<?xml version="1.0" encoding="UTF-8"?>
<svg id="_レイヤー_2" data-name="レイヤー 2" xmlns="http://www.w3.org/2000/svg" viewBox="0 0 226.1536649 136.7698876">
  <defs>
    <style>
      .cls-1 {
        fill: #332615;
      }
    </style>
  </defs>
  <g id="_レイヤー_2-2" data-name=" レイヤー 2">
    <g>
      <g>
        <path class="cls-1" d="m4.3550756,109.1409813c.1367188-.4501953.2519531-.9433594.3452148-1.4775391.0932617-.5332031.1445312-.9970703.1542969-1.3886719h-1.543457c-.5585938.0195312-.9848633.0439453-1.2788086.0732422.5195312.2939453.8969727.6103516,1.1318359.9482422.2353516.3378906.3530273.6591797.3530273.9628906,0,.2255859-.0615234.4140625-.1835938.5654297-.1230469.1523438-.2670898.2285156-.434082.2285156-.1762695,0-.3427734-.0888672-.4995117-.2646484.0097656-.3623047-.0463867-.7617188-.1689453-1.1982422-.1225586-.4355469-.2670898-.8349609-.4335938-1.1982422l.0292969-.0146484c-.3139648.0400391-.5537109.0742188-.7202148.1035156l-.3823242-.75c.4902344.0585938,1.0878906.0986328,1.793457.1181641h.8378906c0-.8525391-.0395508-1.5292969-.1176758-2.0292969.6762695.1669922,1.144043.296875,1.4038086.3896484.2592773.09375.3891602.1748047.3891602.2431641,0,.0390625-.0390625.0830078-.1171875.1318359l-.25.1621094v1.1025391h.7495117l.3085938-.4707031c.0390625-.0488281.0908203-.1181641.1542969-.2060547.0639648-.0878906.1152344-.1542969.1542969-.1982422s.0786133-.0664062.1176758-.0664062c.059082,0,.1884766.0810547.3896484.2431641.2006836.1611328.387207.3330078.5585938.5136719.1713867.1816406.2573242.3066406.2573242.375-.0297852.1572266-.1469727.2353516-.3530273.2353516h-1.8666992c.9604492.3037109,1.4404297.5097656,1.4404297.6171875,0,.0292969-.0439453.0644531-.1323242.1035156l-.2495117.0878906c-.1767578.3037109-.4023438.6445312-.6762695,1.0214844-.2744141.3769531-.5537109.7226562-.8378906,1.0361328h1.1025391l.3232422-.4853516c.0488281-.0585938.1030273-.1318359.1616211-.2197266.0585938-.0888672.1079102-.1542969.1469727-.1992188.0390625-.0439453.078125-.0654297.1176758-.0654297.0585938,0,.190918.0830078.3969727.25.2055664.1660156.3964844.3427734.5732422.5283203.1762695.1865234.2646484.3144531.2646484.3828125-.0297852.15625-.1523438.2353516-.3676758.2353516H3.0469701c-.6962891.0097656-1.4311523.078125-2.2050781.2050781l-.3671875-.7490234c.5385742.0585938,1.1904297.0976562,1.9545898.1171875h1.9257812Zm.2495117,4.9824219c.0297852,1.2548828.0639648,2.2294922.1030273,2.9257812-.0493164.1171875-.1933594.2246094-.4335938.3232422-.2402344.0976562-.4775391.1464844-.7128906.1464844-.1079102,0-.190918-.0292969-.25-.0878906-.0585938-.0585938-.0878906-.1269531-.0878906-.2060547.0488281-.5390625.0830078-1.2587891.1025391-2.1601562v-1.2353516c-.6757812.9414062-1.5483398,1.7841797-2.6162109,2.5283203l-.1469727-.2050781c.5092773-.5488281.9677734-1.1962891,1.3745117-1.9404297.40625-.7451172.7519531-1.5292969,1.0361328-2.3515625h-.7202148c-.4116211.0097656-.8330078.078125-1.2641602.2050781l-.3823242-.7490234c.5097656.0585938,1.1269531.0976562,1.8520508.1171875h.8671875c0-.6953125-.0341797-1.2685547-.1025391-1.7197266.6464844.1669922,1.0922852.2988281,1.3374023.3964844.2451172.0986328.3676758.1816406.3676758.25,0,.0292969-.034668.0693359-.1030273.1181641l-.2207031.1464844v.8085938h.9848633l.3085938-.4560547c.0390625-.0488281.0908203-.1171875.1547852-.2050781.0634766-.0888672.1147461-.1542969.1542969-.1982422.0390625-.0449219.078125-.0664062.1171875-.0664062.059082,0,.184082.078125.375.2353516.190918.15625.3696289.3251953.5366211.5068359.1665039.1816406.25.3066406.25.375-.0395508.15625-.1572266.2353516-.3530273.2353516h-2.5283203v.5878906l.0444336-.0292969c.7836914.1757812,1.359375.4335938,1.7270508.7714844.3671875.3378906.5512695.6787109.5512695,1.0214844,0,.1865234-.059082.3457031-.1767578.4775391-.1171875.1318359-.2597656.1982422-.4262695.1982422-.1469727,0-.3085938-.0585938-.4848633-.1757812-.0585938-.34375-.2084961-.7080078-.4482422-1.0957031-.2402344-.3867188-.5024414-.7226562-.7866211-1.0068359v1.5136719Zm8.3344727-5.9228516c.2348633.1855469.4555664.3847656.6611328.5947266.2060547.2109375.309082.3505859.309082.4189453-.0395508.1572266-.1669922.2353516-.3823242.2353516h-1.3227539v4.1455078c.0195312,1.2148438.0585938,2.3662109.1171875,3.4541016-.0878906.1074219-.2373047.2128906-.4482422.3154297-.2104492.1035156-.4677734.1542969-.7714844.1542969-.1079102,0-.1982422-.0292969-.2719727-.0878906s-.1103516-.1269531-.1103516-.2060547c.0390625-.578125.0737305-1.1386719.1030273-1.6826172s.0488281-1.2568359.0585938-2.1386719v-3.9541016h-1.675293v.5146484c0,1.078125-.0761719,2.0507812-.2280273,2.9179688s-.4775391,1.7050781-.9775391,2.5126953c-.4995117.8085938-1.234375,1.5117188-2.2045898,2.109375l-.1762695-.1757812c.9111328-.9316406,1.5209961-1.9921875,1.8295898-3.1826172s.4633789-2.5947266.4633789-4.2109375v-2.4550781c0-1.0576172-.0541992-1.8955078-.1621094-2.5136719l1.5727539.5732422c.5292969-.2539062,1.0512695-.5361328,1.5654297-.8447266.5146484-.3085938.9189453-.5849609,1.2128906-.8300781.4897461.3818359.8305664.6611328,1.0214844.8378906.190918.1757812.2866211.2988281.2866211.3671875,0,.0488281-.0732422.0732422-.2202148.0732422l-.3823242-.0146484c-.4702148.1669922-1.0288086.3232422-1.6757812.4707031-.6464844.1464844-1.2885742.2646484-1.925293.3525391v3.0722656h2.4399414l.3671875-.5439453c.0488281-.0585938.1103516-.1425781.184082-.25.0732422-.1074219.1318359-.1865234.1762695-.2353516.0439453-.0488281.0854492-.0732422.125-.0732422.0585938,0,.2055664.0927734.440918.2792969Z"/>
        <path class="cls-1" d="m17.8482396,105.9075829c-.7055664.8818359-1.519043,1.5673828-2.4399414,2.0576172l-.1616211-.1767578c.3134766-.3330078.6123047-.7099609.8964844-1.1318359.2646484-.4013672.512207-.8886719.7426758-1.4619141.2299805-.5732422.3842773-1.0654297.4628906-1.4775391.6171875.2744141,1.0507812.4824219,1.3007812.625.25.1416016.3745117.2421875.3745117.3007812,0,.0400391-.0488281.0693359-.1469727.0888672l-.2792969.0585938c-.1274414.2158203-.2695312.4462891-.4257812.6904297h2.0869141l.3085938-.4550781c.0292969-.0488281.0756836-.1152344.1396484-.1992188.0639648-.0830078.1152344-.1464844.1542969-.1904297s.0786133-.0664062.1176758-.0664062c.059082,0,.1835938.078125.375.2353516.190918.1572266.3696289.3232422.5366211.5.1665039.1757812.2495117.2988281.2495117.3671875-.0390625.1572266-.1616211.2353516-.3671875.2353516h-2.5722656c.2646484.1464844.4604492.3105469.5878906.4921875.1269531.1816406.190918.3603516.190918.5361328,0,.1865234-.0585938.3408203-.1762695.4628906-.1176758.1230469-.2597656.1845703-.4262695.1845703-.1762695,0-.3481445-.0791016-.5146484-.2353516,0-.2158203-.0415039-.453125-.125-.7128906-.0830078-.2597656-.1835938-.5019531-.3012695-.7275391h-.5878906Zm5.1445312,7.8486328c.6269531.5097656,1.4453125.9433594,2.4545898,1.3007812,1.0092773.3583984,2.0336914.6054688,3.0722656.7421875l-.0146484.1621094c-.2646484.0683594-.4926758.2158203-.6835938.4404297-.190918.2255859-.3256836.5097656-.4042969.8525391-1.0483398-.3232422-1.9916992-.78125-2.8295898-1.3740234-.8374023-.5927734-1.5209961-1.3007812-2.050293-2.1240234h-.0146484v1.1464844c.0195312.9316406.0488281,1.6708984.0883789,2.2197266-.0493164.0878906-.1962891.1787109-.4414062.2714844-.2446289.09375-.4897461.1396484-.7348633.1396484-.1079102,0-.190918-.0292969-.2495117-.0878906-.059082-.0585938-.0883789-.1269531-.0883789-.2060547.0488281-.4404297.0830078-1.0283203.1030273-1.7636719v-1.0429688c-.6860352.6660156-1.5263672,1.2412109-2.5209961,1.7265625s-2.1044922.875-3.3291016,1.1689453l-.1030273-.2060547c.9897461-.3916016,1.8935547-.8798828,2.7119141-1.4628906.8178711-.5830078,1.4916992-1.2167969,2.0209961-1.9033203h-1.984375c-.6958008.0097656-1.4306641.0791016-2.2045898.2060547l-.3969727-.75c.5390625.0595703,1.1904297.0986328,1.9550781.1181641h3.8510742v-1.3964844c.6367188.1367188,1.0776367.25,1.3227539.3378906.2446289.0878906.3676758.1669922.3676758.2353516,0,.0390625-.0395508.0830078-.1176758.1318359l-.25.1621094v.5292969h3.6010742l.3530273-.4707031c.0390625-.0488281.0927734-.1171875.1616211-.2060547.0683594-.0878906.125-.1542969.1689453-.1982422s.0854492-.0664062.125-.0664062c.0585938,0,.2006836.0810547.4262695.2431641.2250977.1611328.4360352.3330078.6318359.5146484.1958008.1806641.2939453.3056641.2939453.3740234-.0292969.1572266-.1567383.2353516-.3818359.2353516h-4.909668Zm-4.0126953-5.1152344v2.0585938l2.0136719-.3535156.0292969.2207031c-1.2246094.5195312-2.7143555,1.1025391-4.4682617,1.7490234-.0585938.1767578-.1713867.2890625-.3378906.3378906l-.7202148-1.4550781c.6762695-.078125,1.4306641-.1806641,2.2636719-.3085938v-2.2490234h-.6030273c-.3330078.0097656-.6757812.0791016-1.0288086.2060547l-.3818359-.75c.5385742.0595703,1.1904297.0986328,1.9545898.1181641h1.5727539l.2939453-.4267578c.0292969-.0390625.0761719-.0996094.1396484-.1835938.0639648-.0830078.1152344-.1445312.1542969-.1835938s.0786133-.0585938.1176758-.0585938c.059082,0,.1884766.0732422.3896484.2207031.2006836.1464844.3896484.3037109.565918.4697266.1762695.1669922.2646484.2841797.2646484.3525391-.0395508.1572266-.1669922.2353516-.3823242.2353516h-1.8374023Zm3.8657227.5732422c0,.5390625-.112793,1.0390625-.3378906,1.5-.2255859.4599609-.6616211.8671875-1.3081055,1.2197266-.5292969.2939453-1.190918.5390625-1.984375.734375l-.1030273-.1904297c.9799805-.4121094,1.6411133-.8847656,1.984375-1.4189453.3427734-.5341797.5146484-1.1484375.5146484-1.8447266v-1.8955078l-.3530273.2050781-.190918-.1611328c.1860352-.1962891.3818359-.4462891.5878906-.75.2739258-.3818359.5239258-.8544922.7495117-1.4179688s.3769531-1.0605469.4555664-1.4921875c1.1171875.4111328,1.6757812.6865234,1.6757812.8232422,0,.0292969-.0439453.0634766-.1323242.1025391l-.2646484.0888672c-.1860352.3037109-.3623047.5585938-.5288086.7636719h2.6748047l.3383789-.4697266c.0390625-.0488281.090332-.1201172.1542969-.2138672.0634766-.0927734.1176758-.1611328.1616211-.2050781.0439453-.0449219.0854492-.0664062.125-.0664062.0585938,0,.2006836.0810547.4262695.2421875.2250977.1621094.4335938.3359375.6245117.5224609.190918.1855469.2866211.3134766.2866211.3818359-.0390625.1572266-.1665039.2353516-.3823242.2353516h-3.027832c.2841797.1367188.4926758.2988281.625.484375.1323242.1865234.1982422.3730469.1982422.5585938,0,.1279297-.0292969.2451172-.0883789.3535156.6269531.5087891.940918.828125.940918.9550781,0,.0390625-.0439453.078125-.1323242.1171875l-.2353516.0742188v2.3369141c0,.078125.0146484.1298828.0444336.1542969.0292969.0244141.0927734.0361328.190918.0361328h.4555664c.2353516,0,.3725586-.0039062.4116211-.0146484.0883789,0,.1567383-.0390625.2060547-.1171875.0488281-.0976562.1811523-.5585938.3964844-1.3818359h.1616211l.0444336,1.4111328c.1469727.0585938.2421875.1230469.2866211.1914062.0439453.0683594.065918.1669922.065918.2939453,0,.2548828-.1298828.4433594-.3891602.5654297-.2597656.1230469-.6889648.1835938-1.2861328.1835938h-.7055664c-.3041992,0-.5268555-.0341797-.6689453-.1025391s-.237793-.1738281-.2866211-.3164062c-.0493164-.1416016-.0737305-.3496094-.0737305-.6240234v-2.7490234h-2.3076172v.7792969l.1176758-.0878906c.6665039.1171875,1.15625.3056641,1.4697266.5654297s.4707031.5322266.4707031.8154297c0,.1669922-.0541992.3095703-.1621094.4267578s-.2397461.1767578-.3964844.1767578c-.1469727,0-.2939453-.0537109-.440918-.1621094-.0395508-.2744141-.1621094-.5683594-.3676758-.8818359s-.4360352-.578125-.690918-.7939453v.0585938Zm.4116211-3.3066406c-.4702148.5390625-1.0141602,1.0039062-1.6313477,1.3964844l1.4257812.5878906h1.9692383l.2646484-.2939453c-.2255859.0292969-.4311523-.0341797-.6171875-.1914062-.0195312-.2353516-.0834961-.4853516-.190918-.75-.1079102-.2646484-.2402344-.5136719-.3969727-.7490234h-.8232422Z"/>
        <path class="cls-1" d="m34.3111302,105.4075829c.519043.1962891.7788086.3476562.7788086.4560547,0,.0488281-.0537109.0878906-.1616211.1171875l-.2646484.0732422c-.5195312.9111328-1.1708984,1.8105469-1.9550781,2.6972656-.7836914.8867188-1.6508789,1.6240234-2.6015625,2.2119141l-.1176758-.1757812c.8134766-.8330078,1.5776367-1.9111328,2.2929688-3.234375.2353516-.4306641.440918-.8886719.6176758-1.3740234.1762695-.4853516.2988281-.9335938.3671875-1.3447266l1.0439453.5732422Zm-.5439453,4.9970703c-.4902344.0107422-.9995117.0791016-1.5288086.2060547l-.3969727-.7490234c.5390625.0585938,1.190918.0976562,1.9550781.1171875h5.1884766l.3383789-.3818359c.0488281-.0488281.1220703-.1279297.2202148-.2353516s.1762695-.1621094.2353516-.1621094c.0585938,0,.1933594.0839844.4042969.25.2104492.1669922.40625.3457031.5878906.5371094.1811523.1904297.2719727.3203125.2719727.3886719-.1079102.1279297-.2939453.2109375-.5585938.25-.0883789,1.8232422-.2255859,3.2490234-.4116211,4.2773438-.1865234,1.0292969-.4555664,1.7050781-.8085938,2.0283203-.4213867.3828125-1.0239258.5732422-1.8076172.5732422,0-.4794922-.1030273-.8037109-.309082-.9697266-.2348633-.2255859-.7397461-.40625-1.5136719-.5439453l.0146484-.2207031c1.15625.0986328,1.871582.1474609,2.1459961.1474609.137207,0,.2426758-.0097656.315918-.0292969.0737305-.0195312.1445312-.0634766.2133789-.1328125.3818359-.3525391.6513672-2.1357422.8081055-5.3505859h-3.027832c-.1079102.9609375-.3134766,1.8427734-.6171875,2.6464844s-.8378906,1.5947266-1.6020508,2.3740234c-.7646484.7783203-1.8276367,1.4765625-3.1899414,2.09375l-.1469727-.2197266c1.078125-.6865234,1.9111328-1.4208984,2.4990234-2.2050781s.9848633-1.5458984,1.1904297-2.2861328c.2060547-.7392578.3378906-1.5400391.3969727-2.4033203h-.8671875Zm6.7099609-2.9023438c.8769531.7792969,1.8344727,1.3886719,2.8735352,1.8300781l-.0292969.1611328c-.2744141.0693359-.5170898.2109375-.7275391.4267578-.2109375.2158203-.3603516.4609375-.4487305.734375-.9013672-.6855469-1.7026367-1.5205078-2.402832-2.5058594-.7006836-.984375-1.2226562-2.0253906-1.5654297-3.1230469h-.9995117c-.5878906.0097656-1.2055664.078125-1.8520508.2050781l-.3969727-.734375c.5385742.0585938,1.1855469.0976562,1.9399414.1171875h.940918l.5-.7792969,1.3227539.9414062c-.1274414.15625-.4853516.2695312-1.0732422.3378906.4018555.8134766,1.0410156,1.609375,1.918457,2.3886719Z"/>
        <path class="cls-1" d="m46.3492162,107.2005517c-.4702148.0097656-.9604492.0791016-1.4697266.2060547l-.3823242-.7353516c.5385742.0595703,1.1904297.0986328,1.9550781.1181641h1.6606445l.3085938-.4560547c.0297852-.0488281.0761719-.1152344.1396484-.1982422.0639648-.0830078.1152344-.1464844.1547852-.1914062.0385742-.0439453.078125-.0654297.1171875-.0654297.059082,0,.1860352.0751953.3823242.2275391.1958008.1523438.3798828.3164062.5512695.4921875.1713867.1767578.2573242.2988281.2573242.3671875-.0395508.1572266-.1669922.2353516-.3823242.2353516h-3.2924805Zm11.6264648,8.8046875l-.0146484.1621094c-.2451172.0683594-.4506836.2080078-.6171875.4189453-.1669922.2099609-.2744141.4775391-.3232422.8007812-.8920898-.4316406-1.5927734-1.0214844-2.1020508-1.7714844-.5097656-.7490234-.887207-1.7265625-1.1318359-2.9326172-.3525391.3632812-.7744141.6816406-1.2641602.9560547v1.984375l2.0136719-.3525391.0292969.2050781c-1.019043.5488281-2.1801758,1.1220703-3.4833984,1.7197266-.0786133.1962891-.190918.3085938-.3378906.3378906l-.75-1.5283203,1.3378906-.1914062v-1.5576172c-.5683594.2548828-1.2104492.4755859-1.9257812.6611328l-.1171875-.2207031c.5581055-.2636719,1.0800781-.5703125,1.5654297-.9179688.4848633-.3476562.9038086-.7177734,1.2563477-1.1103516h-.8525391c-.4897461.0107422-1.0043945.0791016-1.5429688.2060547-.0395508.0585938-.1083984.1132812-.2060547.1621094-.0981445.0488281-.2109375.0830078-.3378906.1025391v1.1464844c.0195312.9306641.0488281,1.6708984.0878906,2.2197266-.0488281.0976562-.1958008.2001953-.440918.3085938-.2451172.1074219-.465332.1611328-.6611328.1611328-.1767578,0-.2646484-.0976562-.2646484-.2939453l.0585938-.2636719v-.2792969h-1.484375v.3378906c.0097656.1269531.0170898.2421875.0219727.3447266.0048828.1035156.012207.1787109.0219727.2285156-.0195312.0976562-.1445312.2001953-.375.3085938-.2299805.1074219-.4628906.1611328-.6977539.1611328-.0786133,0-.1425781-.0292969-.1914062-.0878906s-.0732422-.1269531-.0732422-.2060547c.0390625-.4111328.0683594-.9306641.0878906-1.5576172v-.9257812c0-1.1367188-.0585938-2.0878906-.1762695-2.8515625l1.4404297.6318359h1.293457l.2792969-.3378906c.0292969-.0292969.0712891-.078125.125-.1474609.0537109-.0683594.1005859-.1201172.1396484-.1542969s.078125-.0517578.1176758-.0517578c.078125,0,.25.1005859.5141602.3017578.2646484.2011719.465332.3847656.6030273.5507812l-.2792969-.5585938c.4208984.0595703.9306641.0986328,1.5283203.1181641h.7202148v-1.1464844h-.4555664c-.2451172.0097656-.4995117.078125-.7641602.2060547l-.3823242-.7353516c.2939453.0585938.6567383.0976562,1.0878906.1171875h.5141602v-1.1015625h-.5878906c-.3232422.0097656-.65625.078125-.9995117.2050781l-.3818359-.7490234c.3720703.0585938.8227539.0976562,1.3520508.1171875h.6171875c0-.4707031-.0244141-.9355469-.0732422-1.3964844-.6567383.2939453-1.3178711.5146484-1.984375.6621094l-.1469727-.1914062.3676758-.2207031c.3916016-.2548828.7763672-.5732422,1.1538086-.9550781.3769531-.3828125.6586914-.7451172.8452148-1.0878906-.6274414.0292969-1.2250977.0927734-1.793457.1914062l-.3671875-.75c.5385742.0585938,1.1904297.0976562,1.9545898.1171875h1.3525391c0-.6660156-.034668-1.2197266-.1030273-1.6601562.6762695.1660156,1.144043.2958984,1.4038086.3886719.2592773.09375.3891602.1748047.3891602.2431641,0,.0488281-.0390625.0976562-.1171875.1464844l-.25.1621094v.7197266h1.484375l.3530273-.484375c.0488281-.0595703.1000977-.125.1542969-.1982422.0537109-.0742188.1074219-.1396484.1616211-.1992188.0537109-.0585938.1005859-.0878906.1396484-.0878906.0585938,0,.1982422.0830078.4189453.25.2202148.1669922.4262695.3427734.6171875.5292969.1914062.1855469.2866211.3134766.2866211.3818359-.0292969.1572266-.1518555.2353516-.3671875.2353516h-5.5561523l.690918.5292969c.3916016.2158203.5878906.3671875.5878906.4550781,0,.0400391-.0493164.0693359-.1469727.0888672l-.25.0292969c-.2841797.2050781-.6713867.4208984-1.1611328.6464844.9794922.2744141,1.4697266.4755859,1.4697266.6025391,0,.0390625-.0341797.0830078-.1030273.1328125l-.2348633.1464844v.5732422h1.6313477c0-.5683594-.0292969-1.0634766-.0878906-1.484375,1.0581055.2841797,1.5874023.4951172,1.5874023.6318359,0,.0390625-.034668.0830078-.1030273.1328125l-.2353516.1464844v.5732422h.3085938l.2939453-.4111328c.0390625-.0488281.0859375-.1103516.1396484-.1835938.0541992-.0742188.1005859-.1298828.1396484-.1699219.0390625-.0390625.0786133-.0585938.1176758-.0585938.059082,0,.184082.0712891.375.2128906.190918.1425781.3696289.2949219.5366211.4560547.1665039.1621094.2495117.2773438.2495117.3457031-.0390625.15625-.1665039.2353516-.3818359.2353516h-1.7788086v1.1015625h.2207031l.2792969-.3964844c.0292969-.0390625.0708008-.0957031.125-.1689453.0537109-.0732422.1000977-.1298828.1396484-.1689453.0390625-.0390625.078125-.0585938.1171875-.0585938.059082,0,.1767578.0683594.3530273.2050781.1762695.1376953.340332.2851562.4921875.4414062.1518555.1572266.2280273.2695312.2280273.3378906-.0292969.1474609-.1469727.2207031-.3530273.2207031h-1.6020508v1.1464844h.5439453l.2939453-.4267578c.0292969-.0390625.0756836-.0996094.1396484-.1835938.0634766-.0830078.1152344-.1445312.1542969-.1835938s.0786133-.0585938.1176758-.0585938c.0585938,0,.1860352.0732422.3823242.2207031.1958008.1464844.3769531.3037109.543457.4697266.1669922.1669922.25.2841797.25.3535156-.0292969.15625-.1518555.234375-.3671875.234375h-1.1464844c.7348633.6767578,1.1020508,1.078125,1.1020508,1.2060547,0,.0292969-.0390625.0439453-.1171875.0439453l-.2060547-.0292969c-.4902344.2255859-1.1269531.4404297-1.9106445.6464844.7348633.7255859,1.621582,1.2148438,2.6601562,1.4697266Zm-9.3408203-7.9667969c.1811523.1474609.3500977.3037109.5073242.4707031.15625.1669922.2348633.2841797.2348633.3525391-.0292969.1474609-.1469727.2207031-.3525391.2207031h-2.484375c-.3330078.0097656-.6860352.078125-1.0581055.2060547l-.3676758-.7353516c.4604492.0585938,1.019043.0976562,1.6757812.1171875h.7792969l.2939453-.4257812c.0292969-.0390625.0756836-.1005859.1396484-.1835938.0634766-.0830078.1147461-.1445312.1542969-.1835938.0390625-.0390625.078125-.0595703.1171875-.0595703.059082,0,.1787109.0742188.3603516.2207031Zm0,1.8964844c.1811523.1464844.3500977.3037109.5073242.4697266.15625.1669922.2348633.2851562.2348633.3535156-.0292969.15625-.1469727.2353516-.3525391.2353516h-1.3378906c-.6958008.0097656-1.4306641.078125-2.2045898.2050781l-.3676758-.7490234c.4604492.0585938,1.019043.0976562,1.6757812.1171875h.7792969l.2939453-.4257812c.0292969-.0390625.0756836-.1005859.1396484-.1845703.0634766-.0830078.1147461-.1445312.1542969-.1835938.0390625-.0390625.078125-.0585938.1171875-.0585938.059082,0,.1787109.0732422.3603516.2207031Zm-.918457-4.5859375c-.6962891.0097656-1.4311523.078125-2.2050781.2060547l-.3671875-.75c.440918.0585938.9794922.0976562,1.6166992.1171875h.7495117l.3085938-.4404297c.0292969-.0488281.0756836-.1152344.1396484-.1982422.0639648-.0839844.1152344-.1474609.1542969-.1914062s.0786133-.0664062.1176758-.0664062c.059082,0,.1860352.0761719.3823242.2275391.1958008.1523438.3769531.3164062.5439453.4931641.1665039.1757812.2495117.2988281.2495117.3671875-.0390625.1572266-.1567383.2353516-.3525391.2353516h-1.3374023Zm-1.2495117,10.3623047h1.484375v-2.7636719h-1.484375v2.7636719Zm7.9077148-6.1289062h-1.6313477v1.1015625h1.6313477v-1.1015625Zm-1.6313477,1.5136719v1.1464844h1.6313477v-1.1464844h-1.6313477Zm1.3374023,1.5722656c.1860352.4902344.4848633,1,.8964844,1.5292969.2548828-.2158203.5073242-.4658203.7573242-.75.2495117-.2841797.453125-.5439453.6098633-.7792969h-2.2636719Zm.3232422-6.4228516c.7250977-.0195312,1.3251953.046875,1.8007812.1982422.4750977.1523438.8232422.3457031,1.043457.5810547.2207031.234375.3310547.4697266.3310547.7050781,0,.1572266-.0493164.2871094-.1469727.3896484-.0981445.1025391-.2353516.1542969-.4116211.1542969-.0981445,0-.1767578-.0097656-.2353516-.0292969-.2353516-.3037109-.5976562-.6298828-1.0878906-.9775391-.4897461-.3476562-.9604492-.6347656-1.4106445-.8603516l.1171875-.1611328Z"/>
        <path class="cls-1" d="m61.150974,109.6556298c-.5488281.734375-1.1269531,1.3671875-1.734375,1.8955078l-.1914062-.1318359c.3920898-.5878906.7792969-1.2714844,1.1611328-2.0507812.3823242-.7783203.7299805-1.5996094,1.0439453-2.4619141.1665039-.4794922.3232422-1.0283203.4702148-1.6464844.1469727-.6171875.2299805-1.1210938.25-1.5136719.7446289.2353516,1.2587891.4140625,1.5429688.5371094.2841797.1220703.4262695.2177734.4262695.2861328,0,.0292969-.0439453.0634766-.1318359.1025391l-.2792969.1035156c-.4707031,1.2832031-1.0292969,2.46875-1.6757812,3.5566406.5292969.3330078.793457.5634766.793457.6914062,0,.0585938-.0390625.1025391-.1171875.1318359l-.2207031.0878906v4.3369141c.0195312,1.2148438.0585938,2.3662109.1176758,3.4541016-.0786133.0976562-.2402344.203125-.4853516.3154297-.2446289.1132812-.4848633.1689453-.7202148.1689453-.1171875,0-.215332-.0292969-.2939453-.0878906-.078125-.0585938-.1171875-.1269531-.1171875-.2060547.0390625-.578125.0732422-1.1386719.1025391-1.6826172s.0488281-1.2568359.059082-2.1386719v-3.7480469Zm9.1425781,1.3076172c.0488281-.0683594.1049805-.1484375.1689453-.2421875.0634766-.0927734.1176758-.1611328.1616211-.2060547.0439453-.0439453.0854492-.0654297.125-.0654297.0585938,0,.2006836.0859375.4262695.2568359.2250977.171875.4360352.3554688.6318359.5507812.1958008.1962891.2939453.3291016.2939453.3974609-.0292969.15625-.1518555.2353516-.3671875.2353516h-3.4692383v4.5566406h2.043457l.3969727-.5732422c.0390625-.0595703.0976562-.1425781.1762695-.25.078125-.1083984.1416016-.1884766.190918-.2431641.0488281-.0537109.0932617-.0800781.1323242-.0800781.0585938,0,.215332.0976562.4702148.2939453.2548828.1953125.4926758.4013672.7128906.6171875.2207031.2148438.3310547.3574219.3310547.4257812-.0395508.1572266-.171875.2353516-.3969727.2353516h-6.9082031c-.6962891.0097656-1.4311523.078125-2.2050781.2060547l-.3671875-.75c.5385742.0585938,1.1904297.0976562,1.9545898.1181641h2.043457v-4.5566406h-1.0439453c-.6074219.0097656-1.234375.078125-1.8813477.2050781l-.3676758-.7490234c.5390625.0585938,1.190918.0976562,1.9550781.1171875h1.3378906v-3.7626953h-1.1469727c-.6855469.0097656-1.4013672.078125-2.1459961.2060547l-.3671875-.75c.5385742.0585938,1.1904297.0986328,1.9550781.1181641h4.9091797l.3823242-.5292969c.0390625-.0595703.0976562-.1396484.1762695-.2431641.078125-.1025391.1420898-.1787109.190918-.2275391s.0932617-.0732422.1323242-.0732422c.059082,0,.2080078.0908203.4482422.2714844.2402344.1816406.465332.375.6762695.5810547.2104492.2050781.315918.3427734.315918.4111328-.0390625.1572266-.1713867.2353516-.3969727.2353516h-3.7041016v3.7626953h1.6904297l.3383789-.5Zm-4.5566406-6.9667969c.7055664.1083984,1.2836914.2792969,1.734375.5146484s.7763672.4951172.9775391.7792969c.2006836.2841797.3012695.5585938.3012695.8222656,0,.2158203-.0615234.3925781-.1835938.5292969-.1230469.1376953-.2773438.2060547-.4633789.2060547-.1567383,0-.3134766-.0439453-.4702148-.1318359-.1567383-.421875-.4287109-.8720703-.815918-1.3525391s-.7915039-.8964844-1.2124023-1.25l.1323242-.1171875Z"/>
        <path class="cls-1" d="m85.4771459,105.6722313c.0488281-.0488281.1225586-.1269531.2207031-.2353516.0976562-.1074219.1762695-.1611328.2348633-.1611328.059082,0,.1933594.0947266.4042969.2861328.2104492.1914062.4091797.3945312.5952148.6103516.1860352.2148438.2792969.3574219.2792969.4257812-.0878906.1083984-.2695312.1669922-.5439453.1767578-.2548828.2744141-.5830078.5751953-.984375.9033203-.4023438.3291016-.7744141.6054688-1.1171875.8310547l-.1030273-.0732422c-.0585938.0292969-.1420898.0439453-.25.0439453-.137207,0-.3037109-.0292969-.4995117-.0888672-.8427734.3144531-1.8618164.6132812-3.0576172.8974609v2.46875l4.0424805-.5585938.3085938-.5732422c.0292969-.0488281.0732422-.1318359.1323242-.25.0585938-.1171875.1098633-.203125.1542969-.2568359.0439453-.0537109.0854492-.0810547.125-.0810547.0585938,0,.2226562.0712891.4921875.2128906.2695312.1425781.5195312.2939453.7495117.4560547.2304688.1621094.3457031.2773438.3457031.3457031-.0097656.078125-.046875.1445312-.1103516.1982422-.0639648.0537109-.1396484.0859375-.2280273.0957031l-6.0117188.8525391v3.3066406c0,.1669922.0517578.2792969.1542969.3388672.1030273.0585938.3212891.0878906.6542969.0878906h1.8959961c.9116211,0,1.4702148-.0097656,1.6757812-.0292969.1079102-.0195312.1933594-.046875.2573242-.0810547.0634766-.0341797.1147461-.0908203.1542969-.1689453.078125-.1269531.1762695-.3945312.2939453-.8007812.1176758-.4072266.2397461-.8603516.3671875-1.3603516h.1621094l.0439453,2.2490234c.215332.0791016.3598633.1621094.4335938.25.0732422.0878906.1103516.2109375.1103516.3671875,0,.2255859-.0957031.4023438-.2866211.5292969-.1914062.1269531-.5415039.2207031-1.0512695.2792969-.5092773.0585938-1.2592773.0878906-2.2485352.0878906h-1.984375c-.5292969,0-.9311523-.0390625-1.2055664-.1171875s-.4702148-.2177734-.5878906-.4189453-.1762695-.4970703-.1762695-.8896484v-3.4541016l-4.9682617.7060547-.1762695-.4121094,5.1445312-.7197266v-2.3662109c-1.3916016.2646484-2.6411133.4501953-3.7480469.5585938l-.0444336-.25c1.3525391-.2939453,2.7490234-.703125,4.1894531-1.2275391s2.5668945-1.03125,3.3803711-1.5214844l1.3671875,1.1757812c.2646484-.5683594.4995117-1.1757812.7055664-1.8222656h-8.8632812c.0292969.5-.0317383.9306641-.1835938,1.2929688-.1523438.3632812-.3505859.6376953-.5957031.8232422-.1860352.1376953-.387207.2060547-.6025391.2060547-.3134766,0-.5288086-.1269531-.6464844-.3818359-.0297852-.0888672-.0444336-.171875-.0444336-.25,0-.1572266.0444336-.3017578.1323242-.4335938.0883789-.1328125.2060547-.2480469.3530273-.3457031.3134766-.1865234.5830078-.4873047.8081055-.9042969.2255859-.4160156.3237305-.8642578.2939453-1.3447266h.2207031c.1176758.3232422.190918.6269531.2207031.9111328h3.6889648c0-.9404297-.0488281-1.7050781-.1469727-2.2929688.7250977.1572266,1.2250977.2841797,1.4995117.3828125.2739258.0976562.4116211.1806641.4116211.2490234,0,.0498047-.0395508.0986328-.1176758.1474609l-.2646484.1621094v1.3515625h3.7924805l.3525391-.3964844Z"/>
        <path class="cls-1" d="m98.8677709,116.2698876h-6.2177734l-.1323242-.2939453c.2744141-.7353516.6518555-1.4179688,1.1318359-2.0507812.4799805-.6318359,1.1318359-1.3984375,1.9550781-2.2998047.519043-.5585938.918457-1.0195312,1.1977539-1.3818359s.4975586-.7324219.6542969-1.109375c.1567383-.3779297.2353516-.7822266.2353516-1.2128906,0-.5976562-.1645508-1.0878906-.4926758-1.4697266-.328125-.3828125-.8061523-.5732422-1.4331055-.5732422-.4506836,0-.8354492.1005859-1.1538086.3007812-.3183594.2011719-.4775391.4628906-.4775391.7861328,0,.1279297.0268555.2402344.0805664.3388672.0537109.0976562.1298828.2001953.2280273.3085938.1074219.1171875.1884766.2275391.2426758.3300781.0537109.1035156.0805664.2285156.0805664.375,0,.2744141-.0908203.4921875-.2719727.6542969s-.4091797.2421875-.6835938.2421875c-.2348633,0-.4580078-.1123047-.668457-.3378906-.2109375-.2255859-.315918-.5244141-.315918-.8964844,0-.4013672.1269531-.8056641.3818359-1.2128906.2548828-.40625.6269531-.7421875,1.1171875-1.0068359.4897461-.2646484,1.0678711-.3964844,1.734375-.3964844.7250977,0,1.3398438.1298828,1.8447266.3896484.5043945.2597656.8793945.6074219,1.1245117,1.0429688.2446289.4365234.3671875.9140625.3671875,1.4335938,0,.4804688-.0927734.8964844-.2788086,1.2490234-.1865234.3525391-.421875.6621094-.7055664.9257812-.284668.2646484-.6962891.5986328-1.2348633,1-.4116211.3037109-.7446289.5585938-.9995117.7646484-.9799805.7734375-1.7636719,1.6806641-2.3515625,2.71875h2.0429688c.7739258,0,1.3618164-.0410156,1.7636719-.125.4018555-.0830078.7177734-.2373047.9482422-.4628906.2299805-.2255859.4482422-.5732422.6538086-1.0439453.0297852-.0585938.0639648-.0878906.1030273-.0878906l.1176758.0292969c.0976562.0390625.1469727.0888672.1469727.1474609l-.0146484.0878906-.7202148,2.8369141Z"/>
        <path class="cls-1" d="m114.6246068,112.0804345c.3828125.6669922.8867188,1.2714844,1.5136719,1.8154297s1.2792969.9628906,1.9550781,1.2568359l-.0292969.1474609c-.5292969.1074219-.8867188.5244141-1.0722656,1.2490234-.609375-.4902344-1.140625-1.1123047-1.5957031-1.8671875-.4550781-.7539062-.8203125-1.6210938-1.0957031-2.6015625v1.6464844c.0292969,1.3818359.0644531,2.4501953.1035156,3.2041016-.0585938.1279297-.2050781.2529297-.4414062.375-.2348633.1220703-.4648438.1835938-.6904297.1835938-.1176758,0-.2080078-.0292969-.2719727-.0878906-.0634766-.0585938-.0952148-.1279297-.0952148-.2060547.0585938-.7636719.0976562-1.5283203.1171875-2.2929688v-1.2929688c-.9799805,1.2441406-2.3222656,2.2685547-4.0273438,3.0712891l-.1469727-.2197266c.7939453-.5488281,1.5043945-1.203125,2.1313477-1.9628906.6269531-.7587891,1.1318359-1.5654297,1.5141602-2.4179688h-1.0585938v.2207031c0,.0390625-.0415039.0908203-.125.1542969-.0830078.0644531-.203125.1201172-.3598633.1689453-.1567383.0498047-.3334961.0742188-.5292969.0742188-.0981445,0-.1787109-.0302734-.2421875-.0888672-.0639648-.0585938-.0957031-.1269531-.0957031-.2060547l.0585938-.9697266c-.0292969.1376953-.0932617.25-.190918.3378906-.0981445.0888672-.2109375.1328125-.3378906.1328125-.1572266,0-.3237305-.0742188-.5-.2207031-.0493164-.3037109-.1616211-.6416016-.3378906-1.0146484-.1762695-.3720703-.3774414-.7294922-.6025391-1.0722656v3.953125c.0195312,1.2158203.0585938,2.3671875.1171875,3.4550781-.0585938.1171875-.2080078.2294922-.4482422.3378906-.2402344.1074219-.4726562.1611328-.6982422.1611328-.1274414,0-.2299805-.0292969-.3085938-.0878906s-.1176758-.1279297-.1176758-.2060547c.0390625-.578125.0737305-1.1386719.1030273-1.6826172s.0488281-1.2568359.0585938-2.1386719v-2.2783203c-.5878906,1.1367188-1.3032227,2.1308594-2.1459961,2.9833984l-.190918-.1757812c.5092773-.8134766.9458008-1.7470703,1.3081055-2.8007812.3623047-1.0527344.6416016-2.1474609.8378906-3.2851562h-.5878906c-.3037109.0107422-.6274414.0791016-.9702148.2060547l-.3818359-.7490234c.3916016.0585938.8720703.0976562,1.4404297.1171875h.6904297v-.5732422c0-1.234375-.0634766-2.2392578-.190918-3.0136719.6958008.1669922,1.1782227.3017578,1.4477539.4042969.2695312.1035156.4042969.1894531.4042969.2578125,0,.0488281-.0390625.0976562-.1176758.1464844l-.2495117.1767578v2.6015625h.2641602l.6616211-1.0146484c.4702148.4511719.8427734.8330078,1.1171875,1.1464844v-.484375l1.3964844.5878906h1.4106445v-1.3964844h-1.043457c-.6074219.0097656-1.2446289.078125-1.9106445.2060547l-.3823242-.75c.5390625.0585938,1.1904297.0976562,1.9550781.1171875h1.3813477c0-.8525391-.0390625-1.5283203-.1171875-2.0283203.6660156.1767578,1.1259766.3164062,1.3818359.4189453.2539062.1035156.3808594.1894531.3808594.2578125,0,.0488281-.0390625.0976562-.1171875.1464844l-.25.1621094v1.0429688h1.5585938l.3378906-.5136719c.0390625-.0488281.0917969-.1230469.1542969-.2207031.0644531-.0976562.1171875-.171875.1621094-.2207031s.0859375-.0732422.125-.0732422c.0585938,0,.1933594.0878906.4042969.2646484.2109375.1757812.40625.3623047.5878906.5585938s.2714844.328125.2714844.3964844c-.0390625.1572266-.1660156.2353516-.3828125.2353516h-3.21875v1.3964844h1.4550781l.2949219-.4121094c.0292969-.0390625.0742188-.0976562.1328125-.1757812s.109375-.1376953.1542969-.1767578c.0429688-.0390625.0859375-.0585938.125-.0585938.0585938,0,.1953125.0859375.4101562.2568359.2167969.171875.4199219.3535156.6113281.5439453.1914062.1914062.2851562.3212891.2851562.3896484-.1171875.1376953-.3085938.2353516-.5722656.2939453v1.2939453c.0195312,1.0380859.0488281,1.8662109.0878906,2.4833984-.0585938.0888672-.21875.1816406-.4785156.2792969-.2597656.0986328-.4921875.1474609-.6972656.1474609h-.2050781v-.4267578h-1.2792969Zm-4.409668-4.3652344c-.0786133.078125-.1816406.1171875-.3085938.1171875h-1.734375v1.4414062c.6464844.2441406,1.1313477.53125,1.4550781.859375.3232422.328125.5043945.6542969.5439453.9775391l.0439453-1.734375v-1.6611328Zm1.2197266,1.9404297h1.5874023v-1.5878906h-1.5874023v1.5878906Zm0,1.9990234h1.5874023v-1.5732422h-1.5874023v1.5732422Zm4.4692383-3.5869141h-1.6035156v1.5878906h1.6035156v-1.5878906Zm0,2.0136719h-1.6035156v1.5732422h1.6035156v-1.5732422Z"/>
        <path class="cls-1" d="m136.6285131,104.2025048l-13.3759766,13.3759766-.4257812-.4121094,13.375-13.3759766.4267578.4121094Z"/>
        <path class="cls-1" d="m3.2378881,123.9827782c.0292969-.0292969.0708008-.078125.125-.1474609.0537109-.0683594.1000977-.1201172.1396484-.1542969.0390625-.0341797.078125-.0517578.1176758-.0517578.0585938,0,.1933594.0810547.4038086.2431641.2109375.1611328.4067383.3359375.5878906.5214844.1816406.1865234.2719727.3134766.2719727.3828125-.1079102.1171875-.328125.2001953-.6611328.2490234-.5683594,1.3427734-1.0976562,2.5332031-1.5874023,3.5722656h.8227539l.309082-.3671875c.0390625-.0390625.1025391-.1103516.190918-.2138672.0883789-.1025391.1616211-.1542969.2202148-.1542969.059082,0,.1889648.0791016.3896484.2353516.2006836.1572266.387207.3261719.5585938.5068359.1713867.1816406.2573242.3066406.2573242.375-.0493164.0693359-.1079102.1201172-.1762695.1542969-.0688477.0351562-.1767578.0615234-.3237305.0810547-.1171875.8623047-.2670898,1.6464844-.4482422,2.3515625-.1811523.7060547-.4287109,1.3623047-.7421875,1.9697266.6171875.6269531,1.3911133,1.0507812,2.3222656,1.2714844s2.1757812.3310547,3.7333984.3310547c2.0288086,0,3.3857422-.0097656,4.0717773-.0292969v.1904297c-.2451172.0595703-.4335938.1914062-.565918.3974609-.1323242.2050781-.2084961.4501953-.2280273.734375h-3.3657227c-1.6269531,0-2.9301758-.1611328-3.9101562-.484375-.9799805-.3242188-1.7783203-.9208984-2.3955078-1.7939453-.6665039,1.0683594-1.5727539,1.9355469-2.7192383,2.6015625l-.1323242-.1904297c1.019043-.8720703,1.7734375-2.0087891,2.2636719-3.4101562-.284668-.5976562-.5390625-1.3378906-.7646484-2.2197266l-.1469727.2939453-.5878906,1.1464844c.0390625.0791016.0585938.1328125.0585938.1621094,0,.078125-.0341797.1416016-.1025391.1904297l-.7495117-.8525391c.1958008-.1660156.4282227-.3789062.6977539-.6386719s.4975586-.4873047.6835938-.6835938l.1323242-.6474609.5292969.1914062-.3823242.5439453c.2548828.7841797.5292969,1.4257812.8232422,1.9257812.3037109-1,.5043945-2.1806641.6025391-3.5429688h-1.1318359c-.0878906.2060547-.2006836.4414062-.3378906.7060547-.1079102.0390625-.2402344.0585938-.3969727.0585938-.2646484,0-.5292969-.0585938-.793457-.1767578.6953125-1.5185547,1.3813477-3.1347656,2.0576172-4.8505859h-.7202148c-.4116211.0107422-.8427734.0791016-1.293457.2060547l-.3969727-.7490234c.4506836.0585938.9995117.0976562,1.6464844.1171875h.7641602l.2792969-.3525391Zm7.7460938.3085938c.0292969-.0390625.0708008-.0957031.125-.1689453.0537109-.0742188.1000977-.1298828.1396484-.1689453.0390625-.0390625.078125-.0595703.1176758-.0595703.0585938,0,.1958008.0839844.4116211.25.215332.1669922.4160156.34375.6025391.5292969.1860352.1865234.2792969.3134766.2792969.3818359-.0395508.0595703-.1103516.1162109-.2133789.1699219-.1025391.0537109-.2226562.0947266-.3598633.125v1.2490234h.1469727l.2792969-.4853516c.0390625-.0585938.0854492-.1347656.1396484-.2275391.0537109-.0927734.1000977-.1621094.1396484-.2060547.0390625-.0439453.078125-.0664062.1176758-.0664062.0878906,0,.2866211.1699219.5952148.5078125s.4628906.5605469.4628906.6689453c-.0292969.15625-.1518555.234375-.3676758.234375h-1.5136719v.6914062l.0146484.4257812c.0097656.3144531.0292969.6083984.0585938.8818359-.0488281.0888672-.1982422.1845703-.4482422.2871094s-.4726562.1542969-.6689453.1542969h-.190918v-.5h-1.6606445v1.5136719h1.7197266l.3232422-.484375c.0488281-.0585938.1030273-.1328125.1616211-.2207031s.1079102-.1542969.1469727-.1982422.078125-.0664062.1176758-.0664062c.0585938,0,.1933594.0830078.4042969.25.2104492.1669922.4086914.3427734.5952148.5292969.1860352.1865234.2792969.3134766.2792969.3818359-.0292969.1572266-.1523438.2353516-.3676758.2353516h-3.3803711v1.5429688h1.9990234l.3671875-.5136719c.0292969-.0498047.0810547-.125.1542969-.2285156.0737305-.1025391.1347656-.1787109.1835938-.2275391.0493164-.0488281.0932617-.0732422.1323242-.0732422.059082,0,.2060547.0878906.440918.2646484.2353516.1757812.4560547.3652344.6616211.5654297.2060547.2011719.3085938.3359375.3085938.4042969-.0390625.1572266-.1665039.2353516-.3818359.2353516h-3.8657227v.5292969l.0292969.4257812c0,.1181641.0092773.2939453.0292969.5292969-.0292969.1083984-.1567383.2128906-.3823242.3164062-.2255859.1025391-.4604492.1542969-.7055664.1542969-.215332,0-.3232422-.0986328-.3232422-.2939453.0292969-.2158203.0488281-.4414062.0585938-.6767578,0-.1269531.0048828-.2353516.0151367-.3232422v-.6611328h-1.0585938c-.637207.0097656-1.293457.078125-1.9697266.2060547l-.3818359-.75c.5385742.0585938,1.1904297.0976562,1.9545898.1171875h1.4555664v-1.5429688h-.8969727c-.5195312.0097656-1.0581055.078125-1.6166992.2060547l-.3525391-.75c.5385742.0585938,1.1855469.0976562,1.9399414.1171875h.9262695v-1.5136719h-.8232422c-.4702148.0097656-.9702148.0791016-1.4995117.2060547l-.3964844-.75c.519043.0585938,1.1362305.0986328,1.8520508.1181641h.8671875v-1.5146484h-1.1318359c-.6665039.0097656-1.3720703.0791016-2.1166992.2060547l-.3823242-.75c.5390625.0595703,1.190918.0986328,1.9550781.1181641h1.6757812v-1.484375h-.8232422c-.4702148.0097656-.9604492.078125-1.4697266.2050781l-.3969727-.7490234c.4995117.0585938,1.1069336.0976562,1.8227539.1171875h.8671875c0-.6660156-.034668-1.2197266-.1030273-1.6611328.65625.1669922,1.1118164.3017578,1.3666992.4042969.2548828.1035156.3823242.1894531.3823242.2578125,0,.0488281-.0390625.0976562-.1176758.1464844l-.2495117.1621094v.6904297h1.5136719l.2792969-.3964844Zm-.1323242.8232422h-1.6606445v1.484375h1.6606445v-1.484375Zm-1.6606445,3.4248047h1.6606445v-1.5146484h-1.6606445v1.5146484Z"/>
        <path class="cls-1" d="m17.8482396,125.1292626c-.7055664.8818359-1.519043,1.5673828-2.4399414,2.0576172l-.1616211-.1767578c.3134766-.3330078.6123047-.7099609.8964844-1.1318359.2646484-.4013672.512207-.8886719.7426758-1.4619141.2299805-.5732422.3842773-1.0654297.4628906-1.4775391.6171875.2744141,1.0507812.4824219,1.3007812.625.25.1416016.3745117.2421875.3745117.3007812,0,.0400391-.0488281.0693359-.1469727.0888672l-.2792969.0585938c-.1274414.2158203-.2695312.4462891-.4257812.6904297h2.0869141l.3085938-.4550781c.0292969-.0488281.0756836-.1152344.1396484-.1992188.0639648-.0830078.1152344-.1464844.1542969-.1904297s.0786133-.0664062.1176758-.0664062c.059082,0,.1835938.078125.375.2353516.190918.1572266.3696289.3232422.5366211.5.1665039.1757812.2495117.2988281.2495117.3671875-.0390625.1572266-.1616211.2353516-.3671875.2353516h-2.5722656c.2646484.1464844.4604492.3105469.5878906.4921875.1269531.1816406.190918.3603516.190918.5361328,0,.1865234-.0585938.3408203-.1762695.4628906-.1176758.1230469-.2597656.1845703-.4262695.1845703-.1762695,0-.3481445-.0791016-.5146484-.2353516,0-.2158203-.0415039-.453125-.125-.7128906-.0830078-.2597656-.1835938-.5019531-.3012695-.7275391h-.5878906Zm5.1445312,7.8486328c.6269531.5097656,1.4453125.9433594,2.4545898,1.3007812,1.0092773.3583984,2.0336914.6054688,3.0722656.7421875l-.0146484.1621094c-.2646484.0683594-.4926758.2158203-.6835938.4404297-.190918.2255859-.3256836.5097656-.4042969.8525391-1.0483398-.3232422-1.9916992-.78125-2.8295898-1.3740234-.8374023-.5927734-1.5209961-1.3007812-2.050293-2.1240234h-.0146484v1.1464844c.0195312.9316406.0488281,1.6708984.0883789,2.2197266-.0493164.0878906-.1962891.1787109-.4414062.2714844-.2446289.09375-.4897461.1396484-.7348633.1396484-.1079102,0-.190918-.0292969-.2495117-.0878906-.059082-.0585938-.0883789-.1269531-.0883789-.2060547.0488281-.4404297.0830078-1.0283203.1030273-1.7636719v-1.0429688c-.6860352.6660156-1.5263672,1.2412109-2.5209961,1.7265625s-2.1044922.875-3.3291016,1.1689453l-.1030273-.2060547c.9897461-.3916016,1.8935547-.8798828,2.7119141-1.4628906.8178711-.5830078,1.4916992-1.2167969,2.0209961-1.9033203h-1.984375c-.6958008.0097656-1.4306641.0791016-2.2045898.2060547l-.3969727-.75c.5390625.0595703,1.1904297.0986328,1.9550781.1181641h3.8510742v-1.3964844c.6367188.1367188,1.0776367.25,1.3227539.3378906.2446289.0878906.3676758.1669922.3676758.2353516,0,.0390625-.0395508.0830078-.1176758.1318359l-.25.1621094v.5292969h3.6010742l.3530273-.4707031c.0390625-.0488281.0927734-.1171875.1616211-.2060547.0683594-.0878906.125-.1542969.1689453-.1982422s.0854492-.0664062.125-.0664062c.0585938,0,.2006836.0810547.4262695.2431641.2250977.1611328.4360352.3330078.6318359.5146484.1958008.1806641.2939453.3056641.2939453.3740234-.0292969.1572266-.1567383.2353516-.3818359.2353516h-4.909668Zm-4.0126953-5.1152344v2.0585938l2.0136719-.3535156.0292969.2207031c-1.2246094.5195312-2.7143555,1.1025391-4.4682617,1.7490234-.0585938.1767578-.1713867.2890625-.3378906.3378906l-.7202148-1.4550781c.6762695-.078125,1.4306641-.1806641,2.2636719-.3085938v-2.2490234h-.6030273c-.3330078.0097656-.6757812.0791016-1.0288086.2060547l-.3818359-.75c.5385742.0595703,1.1904297.0986328,1.9545898.1181641h1.5727539l.2939453-.4267578c.0292969-.0390625.0761719-.0996094.1396484-.1835938.0639648-.0830078.1152344-.1445312.1542969-.1835938s.0786133-.0585938.1176758-.0585938c.059082,0,.1884766.0732422.3896484.2207031.2006836.1464844.3896484.3037109.565918.4697266.1762695.1669922.2646484.2841797.2646484.3525391-.0395508.1572266-.1669922.2353516-.3823242.2353516h-1.8374023Zm3.8657227.5732422c0,.5390625-.112793,1.0390625-.3378906,1.5-.2255859.4599609-.6616211.8671875-1.3081055,1.2197266-.5292969.2939453-1.190918.5390625-1.984375.734375l-.1030273-.1904297c.9799805-.4121094,1.6411133-.8847656,1.984375-1.4189453.3427734-.5341797.5146484-1.1484375.5146484-1.8447266v-1.8955078l-.3530273.2050781-.190918-.1611328c.1860352-.1962891.3818359-.4462891.5878906-.75.2739258-.3818359.5239258-.8544922.7495117-1.4179688s.3769531-1.0605469.4555664-1.4921875c1.1171875.4111328,1.6757812.6865234,1.6757812.8232422,0,.0292969-.0439453.0634766-.1323242.1025391l-.2646484.0888672c-.1860352.3037109-.3623047.5585938-.5288086.7636719h2.6748047l.3383789-.4697266c.0390625-.0488281.090332-.1201172.1542969-.2138672.0634766-.0927734.1176758-.1611328.1616211-.2050781.0439453-.0449219.0854492-.0664062.125-.0664062.0585938,0,.2006836.0810547.4262695.2421875.2250977.1621094.4335938.3359375.6245117.5224609.190918.1855469.2866211.3134766.2866211.3818359-.0390625.1572266-.1665039.2353516-.3823242.2353516h-3.027832c.2841797.1367188.4926758.2988281.625.484375.1323242.1865234.1982422.3730469.1982422.5585938,0,.1279297-.0292969.2451172-.0883789.3535156.6269531.5087891.940918.828125.940918.9550781,0,.0390625-.0439453.078125-.1323242.1171875l-.2353516.0742188v2.3369141c0,.078125.0146484.1298828.0444336.1542969.0292969.0244141.0927734.0361328.190918.0361328h.4555664c.2353516,0,.3725586-.0039062.4116211-.0146484.0883789,0,.1567383-.0390625.2060547-.1171875.0488281-.0976562.1811523-.5585938.3964844-1.3818359h.1616211l.0444336,1.4111328c.1469727.0585938.2421875.1230469.2866211.1914062.0439453.0683594.065918.1669922.065918.2939453,0,.2548828-.1298828.4433594-.3891602.5654297-.2597656.1230469-.6889648.1835938-1.2861328.1835938h-.7055664c-.3041992,0-.5268555-.0341797-.6689453-.1025391s-.237793-.1738281-.2866211-.3164062c-.0493164-.1416016-.0737305-.3496094-.0737305-.6240234v-2.7490234h-2.3076172v.7792969l.1176758-.0878906c.6665039.1171875,1.15625.3056641,1.4697266.5654297s.4707031.5322266.4707031.8154297c0,.1669922-.0541992.3095703-.1621094.4267578s-.2397461.1767578-.3964844.1767578c-.1469727,0-.2939453-.0537109-.440918-.1621094-.0395508-.2744141-.1621094-.5683594-.3676758-.8818359s-.4360352-.578125-.690918-.7939453v.0585938Zm.4116211-3.3066406c-.4702148.5390625-1.0141602,1.0039062-1.6313477,1.3964844l1.4257812.5878906h1.9692383l.2646484-.2939453c-.2255859.0292969-.4311523-.0341797-.6171875-.1914062-.0195312-.2353516-.0834961-.4853516-.190918-.75-.1079102-.2646484-.2402344-.5136719-.3969727-.7490234h-.8232422Z"/>
        <path class="cls-1" d="m41.1309545,131.0823876c.0390625-.0498047.0981445-.1279297.1767578-.2353516.078125-.1083984.1416016-.1884766.190918-.2431641.0488281-.0537109.0927734-.0800781.1323242-.0800781.0585938,0,.2104492.0947266.4555664.2861328.2446289.1914062.4750977.3896484.690918.5957031.215332.2050781.3232422.3427734.3232422.4111328-.0292969.1572266-.1518555.2353516-.3671875.2353516h-5.0712891c.5976562.6855469,1.4038086,1.2763672,2.4179688,1.7714844,1.0141602.4941406,2.074707.8398438,3.1821289,1.0361328l-.0146484.1611328c-.2744141.0693359-.5097656.2207031-.7055664.4560547s-.3330078.5341797-.4116211.8964844c-1.0976562-.4013672-2.0551758-.9648438-2.8735352-1.6904297-.8183594-.7246094-1.4770508-1.6015625-1.9770508-2.6308594h-.0439453v1.4404297c.0292969,1.2050781.0634766,2.1308594.1030273,2.7783203-.0493164.1171875-.2036133.2246094-.4628906.3232422-.2597656.0976562-.5219727.1464844-.7866211.1464844-.1274414,0-.2207031-.0292969-.2792969-.0878906s-.0883789-.1269531-.0883789-.2060547c.0390625-.5585938.0737305-1.3125.1030273-2.2636719v-1.2929688c-.6762695.7646484-1.5117188,1.4453125-2.5058594,2.0429688-.9946289.5976562-2.0996094,1.0927734-3.3149414,1.484375l-.1171875-.2050781c.9794922-.5,1.8789062-1.1152344,2.6972656-1.8447266.8178711-.7304688,1.4916992-1.5019531,2.0209961-2.3154297h-2.0874023c-.6958008.0097656-1.4306641.078125-2.2045898.2060547l-.3823242-.75c.5385742.0585938,1.1904297.0976562,1.9550781.1171875h3.9389648c0-.8525391-.0390625-1.5185547-.1176758-1.9990234.715332.1669922,1.2128906.3017578,1.4921875.4042969.2792969.1035156.4189453.1894531.4189453.2578125,0,.0390625-.0395508.0830078-.1176758.1318359l-.2646484.1621094v1.0429688h3.5131836l.3818359-.5429688Zm-2.3955078-6.8349609c.0488281-.0488281.1342773-.1328125.2568359-.25.1225586-.1181641.2133789-.1767578.2719727-.1767578.059082,0,.1987305.0986328.4189453.2939453.2207031.1962891.4287109.4042969.625.625.1958008.2207031.2939453.3652344.2939453.4335938-.0395508.0683594-.1054688.1171875-.1987305.1464844-.0932617.0302734-.237793.0498047-.4335938.0595703-.6074219.9013672-1.3520508,1.6904297-2.2338867,2.3662109,1.3911133.5878906,3.1845703.9746094,5.3793945,1.1611328l-.0146484.1767578c-.2841797.0683594-.5195312.2177734-.7055664.4482422s-.3183594.5214844-.3969727.8740234c-2.2045898-.3916016-3.9536133-1.0527344-5.2470703-1.984375-1.7641602,1.0976562-3.9833984,1.828125-6.6586914,2.1904297l-.0732422-.2060547c2.3515625-.6171875,4.3012695-1.5185547,5.8496094-2.7041016-.5581055-.5488281-1.0336914-1.1757812-1.425293-1.8818359-1.215332,1.0976562-2.4746094,1.8964844-3.777832,2.3964844l-.1030273-.1621094c.940918-.6171875,1.8227539-1.4453125,2.6459961-2.484375.3037109-.3916016.5878906-.8378906.8525391-1.3369141.2646484-.5.4458008-.9462891.5439453-1.3378906,1.3227539.4404297,1.984375.7197266,1.984375.8378906,0,.0292969-.0444336.0537109-.1323242.0732422l-.2792969.0439453c-.1469727.2255859-.3530273.4951172-.6176758.8085938h2.7490234l.4262695-.4111328Zm-3.5571289.8378906l-.4853516.484375c.4707031.6083984,1.0830078,1.1367188,1.8374023,1.5878906.7250977-.65625,1.2983398-1.3476562,1.7197266-2.0722656h-3.0717773Z"/>
        <path class="cls-1" d="m46.466892,128.7298485c-.5585938.7744141-1.1269531,1.4160156-1.7050781,1.9257812l-.1762695-.1318359c.7543945-1.1757812,1.4301758-2.6318359,2.0283203-4.3662109.1665039-.4990234.3208008-1.0556641.4628906-1.6679688s.2177734-1.1142578.2280273-1.5068359c1.2641602.4609375,1.8959961.7597656,1.8959961.8964844,0,.0292969-.0439453.0644531-.1323242.1035156l-.2646484.0878906c-.3725586,1.0488281-.8085938,2.0478516-1.3081055,2.9990234.440918.3037109.6616211.5136719.6616211.6318359,0,.0488281-.0444336.0927734-.1323242.1318359l-.2207031.1035156v4.8505859c.0195312,1.2148438.059082,2.3662109.1176758,3.4541016-.0786133.0976562-.2402344.203125-.4848633.3154297-.2451172.1123047-.4853516.1689453-.7202148.1689453-.1176758,0-.2158203-.0292969-.2944336-.0878906-.078125-.0585938-.1171875-.1279297-.1171875-.2060547.0390625-.578125.0732422-1.1386719.1025391-1.6826172.0297852-.5439453.0493164-1.2568359.059082-2.1386719v-3.8808594Zm9.2602539-2.6015625c.0488281-.0683594.1025391-.1445312.1616211-.2275391.0585938-.0830078.1176758-.15625.1762695-.2207031.0585938-.0634766.1079102-.0957031.1469727-.0957031.0585938,0,.2006836.0908203.4262695.2724609.2250977.1816406.4384766.375.6391602.5800781.2011719.2060547.3017578.34375.3017578.4121094-.0395508.15625-.1621094.2353516-.3676758.2353516h-3.3662109v3.5712891h1.8666992l.3676758-.5439453c.0488281-.0585938.1103516-.1416016.1835938-.25.0737305-.1074219.1323242-.1855469.1767578-.2353516.0439453-.0488281.0854492-.0732422.1245117-.0732422.059082,0,.2060547.09375.4414062.2792969.2348633.1865234.4575195.3847656.668457.5957031s.315918.3505859.315918.4189453c-.0390625.15625-.1713867.2353516-.3964844.2353516h-3.7485352v1.734375c.0195312,1.2050781.059082,2.3369141.1176758,3.3955078-.0585938.1171875-.215332.2324219-.4702148.3447266s-.5048828.1689453-.7495117.1689453c-.1274414,0-.2304688-.0292969-.3085938-.0878906-.0786133-.0585938-.1176758-.1279297-.1176758-.2060547.0390625-.5195312.0708008-1.0332031.0952148-1.5429688s.0419922-1.1513672.0517578-1.9257812v-1.8808594h-1.6318359c-.6958008.0097656-1.4306641.078125-2.2045898.2050781l-.3823242-.7490234c.5390625.0585938,1.190918.0976562,1.9550781.1171875h2.2636719v-3.5712891h-2.0136719c-.5292969,1.15625-1.1762695,2.1210938-1.9404297,2.8955078l-.190918-.1181641c.3818359-.7929688.7348633-1.7587891,1.0581055-2.8955078.1274414-.4892578.237793-1.0429688.3305664-1.6611328.0932617-.6171875.1347656-1.1259766.125-1.5283203,1.2543945.3818359,1.8818359.6416016,1.8818359.7792969,0,.0390625-.0444336.078125-.1323242.1171875l-.2646484.1035156c-.2255859.7246094-.4511719,1.3515625-.6762695,1.8808594h1.8227539v-.4560547c0-1.234375-.0639648-2.2382812-.1914062-3.0126953.7353516.1767578,1.2421875.3164062,1.5214844.4189453s.4189453.1884766.4189453.2568359c0,.0498047-.0390625.0986328-.1176758.1474609l-.25.1757812v2.4697266h1.5141602l.3676758-.5292969Z"/>
        <path class="cls-1" d="m61.2242162,128.862661c-.5585938.7548828-1.1367188,1.3916016-1.734375,1.9101562l-.1762695-.1318359c.8129883-1.234375,1.5380859-2.734375,2.175293-4.4980469.1762695-.4892578.3354492-1.0429688.4775391-1.6611328.1420898-.6171875.2182617-1.1210938.2280273-1.5136719.7446289.2353516,1.2587891.4140625,1.543457.5371094.2841797.1220703.4262695.2177734.4262695.2861328,0,.0292969-.0444336.0634766-.1323242.1025391l-.2646484.1035156c-.4506836,1.234375-.9458008,2.3173828-1.484375,3.2480469.4111328.2939453.6171875.5.6171875.6171875,0,.0595703-.0390625.1035156-.1176758.1328125l-.2055664.1025391v4.7041016c.0195312,1.2148438.0585938,2.3662109.1171875,3.4541016-.0878906.1074219-.2548828.2148438-.4995117.3232422-.2451172.1074219-.4848633.1611328-.7202148.1611328-.1176758,0-.2158203-.0292969-.2939453-.0878906-.0786133-.0585938-.1176758-.1269531-.1176758-.2060547.0390625-.578125.0737305-1.1386719.1030273-1.6826172s.0488281-1.2568359.0585938-2.1386719v-3.7626953Zm9.7304688-2.484375c.0390625-.0585938.0932617-.1416016.1616211-.25.0688477-.1074219.125-.1855469.1694336-.2353516.0439453-.0488281.0854492-.0732422.1245117-.0732422.059082,0,.1962891.0957031.4116211.2871094.2158203.1904297.4165039.3916016.6030273.6025391.1860352.2109375.2792969.3505859.2792969.4189453-.0297852.15625-.1572266.2353516-.3823242.2353516h-2.1020508v7.4375c0,.4013672-.0512695.7246094-.1542969.9697266s-.3110352.4482422-.6245117.6103516c-.3139648.1611328-.7792969.2714844-1.3964844.3300781-.0493164-.2841797-.1030273-.5019531-.1616211-.6542969-.059082-.1513672-.1567383-.2861328-.2939453-.4033203-.1669922-.1279297-.3774414-.2353516-.6323242-.3242188-.2548828-.0878906-.6025391-.1660156-1.043457-.234375v-.2060547c1.4013672.0976562,2.234375.1464844,2.4990234.1464844.15625,0,.2641602-.0263672.3232422-.0800781.0585938-.0537109.0878906-.1445312.0878906-.2724609v-7.3193359h-3.0131836c-.6958008.0097656-1.4306641.078125-2.2045898.2050781l-.3823242-.7490234c.5390625.0585938,1.190918.0976562,1.9550781.1171875h3.6450195v-.7197266c0-1.2353516-.0634766-2.2392578-.190918-3.0136719.7348633.1767578,1.2441406.3164062,1.5288086.4189453.2841797.1025391.4262695.1884766.4262695.2568359,0,.0400391-.0395508.0839844-.1176758.1328125l-.25.1611328v2.7636719h.3969727l.3378906-.5585938Zm-6.6142578,2.3808594c.9604492.421875,1.6630859.9042969,2.109375,1.4482422.4458008.5439453.668457,1.0507812.668457,1.5214844,0,.2451172-.0585938.4462891-.1762695.6025391-.1176758.1572266-.2695312.2353516-.4555664.2353516-.1762695,0-.362793-.078125-.5585938-.2353516-.0981445-.5195312-.3110352-1.0927734-.6391602-1.7197266-.3286133-.6269531-.6982422-1.2099609-1.1098633-1.7490234l.1616211-.1035156Z"/>
        <path class="cls-1" d="m84.3746068,127.7454735c.0390625-.0585938.0981445-.1416016.1767578-.25.078125-.1074219.1416016-.1884766.190918-.2421875.0488281-.0537109.0927734-.0810547.1323242-.0810547.0585938,0,.2202148.0976562.4848633.2939453s.512207.4013672.7421875.6171875c.2304688.2158203.3457031.3574219.3457031.4267578-.0292969.15625-.1616211.234375-.3969727.234375h-4.7329102v6.8203125h3.3955078l.4116211-.5878906c.0488281-.0683594.1123047-.15625.190918-.2646484.078125-.1074219.1420898-.1884766.190918-.2421875s.0932617-.0810547.1323242-.0810547c.059082,0,.2226562.1005859.4926758.3017578.269043.2001953.5214844.4111328.7568359.6318359s.3525391.3652344.3525391.4335938c-.0390625.15625-.1713867.2353516-.3964844.2353516h-10.2744141c-.6958008.0097656-1.4311523.078125-2.2050781.2050781l-.3671875-.7490234c.5385742.0585938,1.1904297.0976562,1.9545898.1171875h3.9541016v-6.8203125h-2.4692383c-.6958008.0107422-1.4311523.0791016-2.2050781.2060547l-.3964844-.75c.5385742.0595703,1.1904297.0986328,1.9545898.1181641h3.1162109v-2.2783203c0-1.234375-.0639648-2.2392578-.190918-3.0136719.7543945.1767578,1.2734375.3164062,1.5581055.4189453.2836914.1035156.4262695.1943359.4262695.2724609,0,.0390625-.0395508.0830078-.1176758.1318359l-.2646484.1767578v4.2919922h2.6606445l.3964844-.5732422Z"/>
        <path class="cls-1" d="m92.2681615,127.0696923c.0292969-.0595703.0756836-.1396484.1396484-.2431641.0634766-.1025391.1147461-.1787109.1542969-.2275391.0390625-.0488281.078125-.0732422.1176758-.0732422.0878906,0,.2939453.1855469.6171875.5585938.3232422.3720703.4848633.6123047.4848633.7197266-.0097656.1572266-.1274414.2353516-.3525391.2353516h-1.7197266v4.46875c.5385742-.2158203,1.1855469-.4853516,1.9399414-.8085938l.0737305.1611328-.2646484.2207031c-1.4404297,1.1367188-2.699707,2.0625-3.7773438,2.7783203-.0493164.2158203-.1523438.3574219-.309082.4257812l-.7050781-1.6611328c.3134766-.0878906.90625-.2939453,1.7783203-.6171875v-4.9677734h-.5c-.2744141.0097656-.5581055.078125-.8520508.2060547l-.3676758-.75c.3232422.0585938.715332.0976562,1.1757812.1171875h.5439453v-1.2636719c0-1.234375-.0639648-2.2392578-.190918-3.0136719.6855469.1669922,1.1630859.3017578,1.4331055.4042969.269043.1035156.4038086.1894531.4038086.2578125,0,.0390625-.0390625.0830078-.1171875.1318359l-.2646484.1621094v3.3212891h.2646484l.2939453-.5429688Zm7.7607422-1.1464844c.0390625-.0498047.090332-.1103516.1542969-.1845703.0634766-.0732422.1152344-.1298828.1542969-.1689453s.0786133-.0585938.1176758-.0585938c.0585938,0,.1884766.0859375.3896484.2568359.2006836.171875.3891602.3535156.565918.5439453.1762695.1914062.2646484.3212891.2646484.3896484-.0981445.1181641-.2749023.1962891-.5292969.2353516-.0200195,1.3330078-.0512695,2.3691406-.0957031,3.1083984-.0439453.7402344-.1152344,1.3007812-.2128906,1.6835938-.0981445.3818359-.2353516.6611328-.4116211.8378906-.3232422.3232422-.7744141.484375-1.3525391.484375,0-.2539062-.0073242-.4482422-.0219727-.5800781-.0146484-.1328125-.0566406-.2373047-.125-.3164062-.137207-.1757812-.3725586-.3085938-.7055664-.3964844v-.2353516c.3530273.0390625.6567383.0585938.9116211.0585938.0976562,0,.1713867-.0097656.2202148-.0292969s.0932617-.0537109.1323242-.1025391c.1274414-.1269531.2182617-.5390625.2719727-1.234375.0537109-.6962891.090332-1.8574219.1103516-3.484375l-1.734375.6621094v2.5722656c.0195312,1.2148438.0585938,2.3662109.1176758,3.4541016-.059082.1171875-.2060547.2324219-.440918.3447266-.2353516.1132812-.4658203.1699219-.690918.1699219-.1079102,0-.1987305-.0302734-.2719727-.0888672-.0737305-.0585938-.1103516-.1269531-.1103516-.2050781.0390625-.5585938.0708008-1.1123047.0957031-1.6611328.0244141-.5488281.0415039-1.2402344.0512695-2.0732422v-2.0283203l-1.5288086.5878906v5.8798828c0,.2158203.0683594.3671875.2060547.4560547.137207.0878906.3969727.1318359.7788086.1318359h1.9990234c.8916016,0,1.4794922-.0195312,1.7641602-.0585938.215332-.0097656.3671875-.0830078.4555664-.2207031.1567383-.2451172.3769531-.9501953.6611328-2.1162109h.1621094l.0439453,2.1748047c.2348633.0888672.3969727.1767578.4848633.2646484.0883789.0888672.1323242.2011719.1323242.3378906,0,.2451172-.1030273.4316406-.3085938.5585938-.2055664.1279297-.578125.2207031-1.1171875.2792969-.5390625.0595703-1.3276367.0888672-2.3662109.0888672h-2.0288086c-.5585938,0-.9897461-.0449219-1.293457-.1328125s-.5214844-.2421875-.6538086-.4628906-.1987305-.5410156-.1987305-.9628906v-5.7177734l-1.5429688.5878906-.2646484-.3525391,1.8076172-.7050781v-2.1171875c0-.8623047-.0439453-1.5869141-.1323242-2.1757812.6665039.1865234,1.1293945.3310547,1.3891602.4345703.2597656.1025391.3896484.1884766.3896484.2568359,0,.0488281-.0395508.0976562-.1176758.1464844l-.25.1621094v2.8076172l1.5288086-.5878906v-2.1464844c0-.8818359-.0439453-1.6210938-.1323242-2.2197266.65625.1669922,1.1123047.3017578,1.3671875.4042969.2543945.1035156.3818359.1894531.3818359.2578125,0,.0488281-.0390625.0976562-.1171875.1464844l-.25.1621094v2.9101562l1.4697266-.5732422.1323242-.0439453h-.0146484l.3085938-.3964844Z"/>
        <path class="cls-1" d="m112.545017,125.1878563c.5732422.4023438,1.019043.9648438,1.3374023,1.6904297s.4775391,1.5478516.4775391,2.4697266c0,1.3320312-.2158203,2.4785156-.6464844,3.4394531-.4316406.9599609-.9824219,1.6855469-1.6538086,2.1748047-.6713867.4902344-1.3544922.7353516-2.050293.7353516-.578125,0-1.0488281-.0888672-1.4111328-.2646484-.362793-.1767578-.6245117-.3847656-.7861328-.625-.1621094-.2402344-.2426758-.4628906-.2426758-.6689453,0-.2548828.0854492-.4599609.2573242-.6171875.1713867-.15625.3793945-.2353516.6245117-.2353516.2548828,0,.4775391.0986328.6689453.2939453.190918.1962891.2958984.4658203.315918.8085938.0292969.5097656.2646484.7646484.7055664.7646484.7543945,0,1.3227539-.4902344,1.7050781-1.4697266.3818359-.9804688.6171875-2.1171875.7055664-3.4101562-.3432617.4501953-.7402344.7890625-1.190918,1.0136719-.4506836.2255859-.9160156.3378906-1.3959961.3378906-.6079102,0-1.137207-.1416016-1.5878906-.4257812s-.7958984-.6640625-1.0361328-1.1396484c-.2402344-.4746094-.3598633-.9863281-.3598633-1.5351562,0-.7060547.1445312-1.3603516.4335938-1.9628906.2885742-.6025391.7055664-1.0820312,1.2490234-1.4404297.5439453-.3574219,1.1738281-.5361328,1.8891602-.5361328.7543945,0,1.418457.2011719,1.9916992.6025391Zm-.8896484,5.3134766c.3823242-.25.6958008-.6298828.940918-1.1386719v-.1328125c0-1.078125-.1445312-2.0283203-.4335938-2.8515625s-.8256836-1.234375-1.609375-1.234375c-.4018555,0-.7451172.1513672-1.0292969.4550781-.2841797.3046875-.4995117.7011719-.6464844,1.1914062-.1469727.4892578-.2207031,1.0087891-.2207031,1.5576172,0,.9902344.1962891,1.6582031.5883789,2.0068359.3916016.3476562.8129883.5214844,1.2636719.5214844.3823242,0,.7646484-.125,1.1464844-.375Z"/>
        <path class="cls-1" d="m130.1031224,123.893911c.0488281-.0683594.1025391-.1445312.1611328-.2275391.0595703-.0830078.1181641-.15625.1767578-.2207031.0585938-.0634766.1074219-.0947266.1464844-.0947266.0595703,0,.2138672.0927734.4638672.2783203.2490234.1865234.4824219.3798828.6982422.5810547.2148438.2011719.3232422.3359375.3232422.4042969-.0400391.1572266-.171875.2353516-.3974609.2353516h-9.7304688v10.3476562h8.2753906l.4121094-.5585938c.0488281-.0585938.1123047-.1416016.1904297-.25.078125-.1074219.1445312-.1884766.1982422-.2421875.0546875-.0537109.1005859-.0810547.1396484-.0810547.0595703,0,.2158203.0976562.4707031.2939453s.4951172.3994141.7207031.6103516c.2246094.2109375.3378906.3505859.3378906.4189453-.0390625.15625-.1669922.234375-.3828125.234375h-10.3623047v.6767578c0,.0488281-.0488281.1103516-.1464844.1835938-.0986328.0732422-.2333984.1396484-.4042969.1982422-.171875.0585938-.3652344.0878906-.5810547.0878906-.1171875,0-.2128906-.0292969-.2861328-.0878906-.0742188-.0585938-.1103516-.1269531-.1103516-.2060547.0390625-.578125.0732422-1.1386719.1025391-1.6826172s.0488281-1.2568359.0585938-2.1386719v-5.9677734c0-1.234375-.0634766-2.2392578-.1904297-3.0126953l1.7197266.7490234h7.6279297l.3681641-.5292969Zm-7.4082031,10.5830078l-.1621094-.1611328c.7158203-.578125,1.4189453-1.2587891,2.109375-2.0429688.6914062-.7841797,1.3251953-1.6416016,1.9033203-2.5722656-1.0380859-1.0097656-2.1699219-1.8964844-3.3955078-2.6611328l.1181641-.1904297c1.4501953.5585938,2.7333984,1.1855469,3.8505859,1.8808594l.3828125-.7197266c.2148438-.4414062.4160156-.9257812.6025391-1.4550781.1855469-.5292969.3134766-.9951172.3818359-1.3964844,1.2441406.5488281,1.8671875.8916016,1.8671875,1.0283203,0,.0400391-.0498047.0742188-.1474609.1035156l-.2939453.0732422c-.5,1.1367188-1.0683594,2.1757812-1.7050781,3.1162109.8134766.6269531,1.4111328,1.234375,1.7929688,1.8222656.3828125.5878906.5732422,1.0976562.5732422,1.5292969,0,.2548828-.0605469.4550781-.1835938.6025391-.1220703.1464844-.2763672.2207031-.4628906.2207031-.1757812,0-.3623047-.0742188-.5585938-.2207031-.1757812-.4121094-.4335938-.8623047-.7714844-1.3525391s-.7421875-.9892578-1.2128906-1.4990234c-1.3222656,1.6464844-2.8857422,2.9443359-4.6884766,3.8945312Z"/>
        <path class="cls-1" d="m143.0962865,126.2015282c.0292969-.0380859.0703125-.0947266.125-.1689453.0537109-.0732422.1005859-.1289062.1396484-.1689453.0390625-.0390625.078125-.0585938.1171875-.0585938.0585938,0,.1933594.0810547.4042969.2421875.2109375.1621094.40625.3359375.5878906.5224609s.2724609.3134766.2724609.3818359c-.1376953.1376953-.3291016.2304688-.5732422.2792969v2.9990234c.0195312,1.2148438.0585938,2.3662109.1171875,3.4541016-.0683594.0976562-.2255859.1982422-.4707031.3007812-.2451172.1035156-.4697266.1542969-.6757812.1542969-.1572266,0-.2353516-.0976562-.2353516-.2939453l.0585938-.3818359v-.3378906h-4.3798828v.6904297c0,.0791016-.1083984.1689453-.3232422.2724609-.2158203.1025391-.4414062.1542969-.6757812.1542969-.0888672,0-.1650391-.0292969-.2285156-.0888672-.0634766-.0585938-.0957031-.1269531-.0957031-.2050781.0683594-.9609375.1132812-2.0283203.1328125-3.2050781v-1.7636719c0-1.234375-.0644531-2.2392578-.1914062-3.0126953l1.4697266.6318359h1.4404297v-1.9990234h-3.3505859c-.6962891.0097656-1.4316406.078125-2.2050781.2060547l-.3964844-.75c.5380859.0585938,1.1904297.0976562,1.9541016.1171875h8.7314453l.4111328-.5283203c.0595703-.0693359.1201172-.1445312.1835938-.2285156.0644531-.0830078.125-.15625.1845703-.2207031.0585938-.0634766.1074219-.0947266.1464844-.0947266.0585938,0,.2177734.0927734.4775391.2792969.2597656.1855469.5048828.3798828.7353516.5800781.2304688.2011719.3457031.3359375.3457031.4042969-.0292969.1572266-.1572266.2353516-.3828125.2353516h-5.5556641v1.9990234h1.4257812l.2792969-.3974609Zm2.234375,2.8222656c0-1.234375-.0644531-2.2382812-.1914062-3.0126953.6953125.1669922,1.1777344.3007812,1.4482422.4042969.2685547.1025391.4033203.1884766.4033203.2568359,0,.0292969-.0390625.0732422-.1171875.1328125l-.2353516.1464844v5.6738281c.0195312,1.2148438.0585938,2.3662109.1181641,3.4541016-.0595703.1269531-.2109375.2470703-.4560547.3603516-.2451172.1123047-.4902344.1689453-.7353516.1689453-.1953125,0-.2939453-.0986328-.2939453-.2939453,0-.0195312.0195312-.1816406.0595703-.4853516v-.3964844h-9.1572266v.2792969c.0087891.1074219.0166016.2050781.0214844.2939453.0048828.0878906.0126953.1513672.0224609.1904297-.0205078.1181641-.1474609.2353516-.3828125.3535156-.234375.1171875-.4697266.1757812-.7050781.1757812-.1171875,0-.2158203-.0292969-.2939453-.0878906-.0791016-.0585938-.1181641-.1279297-.1181641-.2060547.0390625-.578125.0742188-1.1386719.1035156-1.6826172s.0488281-1.2568359.0585938-2.1386719v-3.5722656c0-1.234375-.0634766-2.2382812-.1914062-3.0126953.6962891.1757812,1.1787109.3154297,1.4482422.4189453.2695312.1025391.4042969.1884766.4042969.2568359,0,.0195312-.0175781.0419922-.0517578.0664062s-.0566406.0419922-.0664062.0517578l-.2490234.1464844v8.0400391h9.1572266v-5.9824219Zm-5.21875.5v-2.4990234h-1.5283203v2.4990234h1.5283203Zm0,.4267578h-1.5283203v2.7480469h1.5283203v-2.7480469Zm2.8515625-.4267578v-2.4990234h-1.5722656v2.4990234h1.5722656Zm-1.5722656.4267578v2.7480469h1.5722656v-2.7480469h-1.5722656Z"/>
      </g>
      <g>
        <path class="cls-1" d="m29.9640795,26.6637604v5.9884065c-2.3649626-2.149689-6.0846612-3.0756702-9.7133032-3.0756702-3.611076,0-14.3797755,2.0813965-14.3797755,14.274917,0,12.1813318,9.9948976,15.916804,15.4231972,15.916804,1.2147107,0,5.7116169-.5513586,7.1995322-1.1518303v-10.2207467c0-1.5492172-.5637265-3.0616891-2.149689-3.8860383h7.628501s-.2625944.9854907-.2625944,2.7044532v12.4928602c0,.4970472,0,1.4214153.1627547,2.0322833-1.4370096.3238963-3.5813212.7176982-4.451378.9381699-.8750756.2136604-5.4298781.8209435-8.5648785.8209435-3.1385853,0-20.8564462-.9854907-20.8564462-18.7770214,0-17.7879458,18.1747572-18.8241629,21.8455218-18.8241629,3.677576,0,6.9703123.7107076,8.1185577.7666322"/>
        <path class="cls-1" d="m93.2862851,63.4983125h10.2436535c-1.1745945,0-3.2733778-3.2767835-3.6637741-4.3112081l-12.175918-31.4589854h-7.7545469c1.0064624.6931095,1.354736,2.1233399,1.0414152,3.1839344l-11.4320865,29.1798813c-.6511982,1.4407738-1.5228681,2.8899721-3.0475287,3.4063778h9.0655107c-1.6103398-.3500973-1.9604059-2.6203871-1.4895285-3.6687929l3.5342159-9.7236994h13.294409l3.8265288,10.1630297c.7352643,2.053255-.0559245,2.7463966-1.4423504,3.2294627m-14.3133121-17.1858608l5.146312-14.2677472,5.3545951,14.2677472h-10.5009071Z"/>
        <path class="cls-1" d="m208.1801602,63.4371899h10.2487089c-1.1674247,0-3.2557721-3.2785759-3.6566043-4.3253685l-12.1707564-31.4450043h-7.761501c.9976794.6931416,1.3337643,2.128538,1.0432077,3.1787363l-11.4250959,29.1852587c-.6547442,1.4388021-1.5404342,2.8829815-3.0545193,3.4063778h9.0725012c-1.6017361-.3432548-1.9552078-2.6221796-1.4825379-3.6689722l3.5078307-9.73069h13.3120112l3.8213307,10.1664353c.7264812,2.0498181-.0385377,2.7553589-1.4545757,3.2332269m-14.3046717-17.1842476l5.1411139-14.2747378,5.3685762,14.2747378h-10.5096901Z"/>
        <path class="cls-1" d="m175.9613927,59.8101611c0,1.3619058,1.2252822,3.362642,2.3106126,3.6270288h-10.1087183c1.0939341-.2643868,2.3034814-2.2651229,2.3034814-3.6270288v-28.6582775c0-1.3529436-1.2095473-3.3642552-2.3034814-3.619859h10.1087183c-1.0853303.2556038-2.3106126,2.2669154-2.3106126,3.619859v28.6582775Z"/>
        <path class="cls-1" d="m40.1376847,27.4024303c1.0957618.2713453,2.3174626,2.2669154,2.3174626,3.6288212v28.656485c0,1.3529436-1.2217007,3.3608495-2.3174626,3.6268495h9.7744258c-1.0905284-.266-2.3036607-2.273906-2.3036607-3.6268495v-28.3221925c2.5153494-.8209435,10.2401052-1.3531228,10.7179731,5.0832177.2048774,3.5936892-2.3771513,7.6616614-9.0882748,8.4091143l7.182001,10.6408977c2.1740663,3.1963023,5.088595,7.5951614,9.7063126,7.9312464l5.0079346.0682925c-3.7318873-2.235189-7.115501-5.6976706-8.5456635-7.6546708l-7.5810368-9.9040202c3.7878118-.5373774,8.5297464-4.2674723,8.5297464-9.5521617,0-5.2863026-3.4553118-8.757388-12.1899356-8.757388l-11.2098223-.2276415Z"/>
        <path class="cls-1" d="m133.8598577,27.5144586c1.088736.2643868,2.3140569,2.2756984,2.3140569,3.6252363v24.5254184l-20.4644367-26.8728471-.628434-1.2182982h-7.6249161c.8245284.1120283,1.6576606,1.4633587,2.531123,2.6099909.1663396.5513265.1803578,1.0939341.1803578,1.5210436v28.0859479c0,1.3547674-1.2201598,3.362642-2.3122645,3.6338714h8.2549264c-1.07117-.2712294-2.2791041-2.2791041-2.2791041-3.6338714v-24.6480228l19.3914743,25.1766486c2.2703211,2.9686608,5.6347555,4.7087742,6.5833216,4.9538026V31.1396949c0-1.3495379,1.2253209-3.3608495,2.3158494-3.6252363h-8.2619539Z"/>
        <path class="cls-1" d="m149.6558504,47.3540462c0,21.8263426,23.8706353,44.7044966,25.5738242,46.4058931,1.6927927,1.6910002,3.2156608.6687642,1.5370285-.8506982-6.2929442-6.4591353-21.0333613-26.785164-21.0333613-45.5551948,0-18.8487195,14.7404171-39.1853544,21.0333613-45.6270722,1.6786323-1.5316512.1557642-2.5415192-1.5370285-.8437077-1.7031889,1.6892078-25.5738242,24.5727392-25.5738242,46.4707799"/>
        <path class="cls-1" d="m223.0098415,57.4909061c1.7854625,0,3.1438234,1.3477455,3.1438234,3.0597174,0,1.7469248-1.3583609,3.1106231-3.1438234,3.1106231-1.7609059,0-3.1350004-1.3636983-3.1350004-3.1106231,0-1.7399342,1.4230683-3.0597174,3.1350004-3.0597174m.0209717,5.615397c1.3864625,0,2.4384532-1.1326511,2.4384532-2.5416985,0-1.3775002-1.0519907-2.5293305-2.4594249-2.5293305-1.3880757,0-2.4682079,1.1518303-2.4682079,2.5153494,0,1.526453,1.1991511,2.5556796,2.4891796,2.5556796m-1.1570285-.8944341v-3.1789155c.3115283-.0613019.6703774-.1050378,1.1080945-.1050378.9294268,0,1.3443398.3746227,1.3443398.9189907,0,.4043774-.2819529.632019-.628434.7352643v.0629151c.2993397.0910566.4429551.3484529.5216038.7772077.1068302.477868.1873113.6721699.2643868.7895756h-.6599812c-.0858585-.1174057-.1539717-.3921887-.2538114-.8209435-.1172264-.5217831-.40613-.5217831-1.097519-.5217831v1.3427266h-.5986793Zm.5986793-1.8012361c.5863114,0,1.2095473,0,1.2095473-.495434,0-.2817736-.2100755-.5076227-.7544435-.5076227-.2240566,0-.353651.017566-.4551038.0297547v.973302Z"/>
      </g>
      <g>
        <path class="cls-1" d="m6.9312474,89.7415673c-1.6665039,1.7011719-3.6469727,3.0214844-5.9423828,3.9619141l-.1035156-.2070312c1.4516602-.8574219,2.7998047-2.0673828,4.0444336-3.6298828s2.2675781-3.3632812,3.0698242-5.4033203c.8017578-2.0390625,1.2856445-4.1650391,1.4516602-6.3769531v-1.265625h-1.5761719c-.8989258.0136719-1.8530273.1113281-2.8623047.2900391l-.5390625-1.0371094c.7602539.0830078,1.6796875.1386719,2.7583008.1660156h1.7006836l1.0161133-1.6796875,2.6757812,2.0322266c-.3457031.4433594-1.203125.7333984-2.5717773.8710938v.7265625c.3037109,3.1523438,1.2475586,5.8007812,2.8310547,7.9433594,1.5830078,2.1435547,3.8334961,3.8369141,6.7509766,5.0810547l-.0830078.2285156c-1.1337891.1660156-1.9082031.9257812-2.3227539,2.28125-.8994141-.5390625-1.8012695-1.3066406-2.7070312-2.3017578-.9057617-.9960938-1.7143555-2.1328125-2.4262695-3.4121094-.7124023-1.2783203-1.2275391-2.6025391-1.5454102-3.9716797-.746582,2.1015625-1.953125,4.0029297-3.6191406,5.703125Z"/>
        <path class="cls-1" d="m28.1592748,75.2855126c.0688477-.0683594.1655273-.1787109.2900391-.3310547s.2285156-.2285156.3110352-.2285156c.0830078,0,.2939453.1171875.6328125.3525391s.6533203.484375.9438477.7470703c.2900391.2626953.4355469.4423828.4355469.5390625-.0556641.0830078-.1455078.1621094-.2700195.2382812-.1240234.0761719-.2695312.1279297-.4355469.1552734v1.8046875c.027832,1.4658203.0693359,2.6337891.1245117,3.5048828-.0693359.125-.3212891.2666016-.7568359.4257812s-.8193359.2382812-1.1508789.2382812c-.2905273,0-.4355469-.1376953-.4355469-.4150391l.0825195-.3320312v-.3935547h-3.0073242v6.2431641c.027832,1.7138672.0830078,3.3388672.1660156,4.8730469-.0966797.2353516-.3422852.4638672-.7363281.6845703-.394043.2216797-.8330078.3320312-1.3168945.3320312-.1796875,0-.3251953-.0410156-.4355469-.1240234-.1108398-.0830078-.1660156-.1796875-.1660156-.2910156.0551758-.8154297.1040039-1.6074219.1450195-2.3740234.0415039-.7675781.0693359-1.7734375.0830078-3.0185547v-8.9804688c0-1.7421875-.0898438-3.1591797-.2695312-4.2519531l2.6132812,1.1621094h2.7172852l.4355469-.5605469Zm-.2285156,3.1318359v-1.9697266h-3.0073242v1.9697266h3.0073242Zm-3.0073242.5605469v2.0322266h3.0073242v-2.0322266h-3.0073242Zm7.9023438,4.5419922c.0551758-.0693359.1274414-.1552734.2177734-.2597656.0898438-.1035156.1621094-.1826172.2177734-.2382812.0551758-.0546875.1103516-.0830078.1660156-.0830078.0830078,0,.293457.1181641.6323242.3525391.3388672.2353516.6533203.484375.9438477.7470703s.4355469.4423828.4355469.5390625c-.1660156.1943359-.4150391.3183594-.746582.3730469v5.953125c.9956055.0830078,1.5898438.1240234,1.7836914.1240234.1518555,0,.2553711-.0380859.3110352-.1142578.0551758-.0751953.0830078-.1826172.0830078-.3212891v-9.0009766h-3.1113281v.3935547c0,.0693359-.0966797.1630859-.2900391.2802734-.1938477.1181641-.4355469.2216797-.7260742.3115234s-.5737305.1347656-.8505859.1347656c-.1381836,0-.2416992-.0419922-.3110352-.125s-.1035156-.1796875-.1035156-.2900391c.0551758-.5810547.0966797-1.3066406.1245117-2.1777344v-1.3066406c0-1.5898438-.0830078-2.9248047-.2490234-4.0029297l2.4887695,1.0371094h2.8208008l.4770508-.6435547c.0688477-.0830078.1416016-.171875.2177734-.2695312.0756836-.0966797.1518555-.1826172.2280273-.2587891s.1416016-.1142578.1972656-.1142578c.0830078,0,.3076172.1347656.6738281.4042969s.7119141.5537109,1.0371094.8505859c.324707.2978516.4873047.4941406.4873047.5908203-.1938477.2216797-.4702148.3603516-.8295898.4150391v14.0410156c0,.6230469-.065918,1.1171875-.1967773,1.4833984-.1318359.3662109-.4013672.6669922-.809082.9023438-.4077148.234375-1.0200195.3867188-1.8354492.4560547-.0415039-.8300781-.1660156-1.4033203-.3735352-1.7216797-.1523438-.1933594-.3422852-.3525391-.5703125-.4765625-.2280273-.125-.5493164-.2285156-.9643555-.3115234v-.0625c-.1938477.1113281-.4321289.2080078-.715332.2910156-.2836914.0830078-.5361328.1240234-.7573242.1240234h-.3730469v-1.203125h-3.4428711v.7880859c0,.0693359-.09375.1591797-.2802734.2695312-.1865234.1113281-.418457.2080078-.6948242.2910156-.2768555.0830078-.5532227.1240234-.8295898.1240234-.1381836,0-.2456055-.0410156-.3212891-.1240234-.0761719-.0830078-.1142578-.1796875-.1142578-.2910156.0551758-.6357422.1040039-1.5.1450195-2.5917969v-1.5146484c0-1.7421875-.0898438-3.1591797-.2695312-4.2509766l2.4472656,1.0361328h3.1733398l.456543-.5595703Zm-.2695312,3.3388672v-2.21875h-3.4428711v2.21875h3.4428711Zm-3.4428711.6015625v2.3027344h3.4428711v-2.3027344h-3.4428711Zm7.7568359-9.0429688v-1.9697266h-3.1113281v1.9697266h3.1113281Zm-3.1113281.5605469v2.0322266h3.1113281v-2.0322266h-3.1113281Z"/>
        <path class="cls-1" d="m56.6563451,80.4300438c.0693359-.0830078.1416016-.1728516.2177734-.2705078.0761719-.0966797.1523438-.1826172.2285156-.2587891.0756836-.0761719.1416016-.1142578.1967773-.1142578.0830078,0,.3144531.1347656.6948242.4042969s.7363281.5498047,1.0683594.8398438c.331543.2910156.4975586.484375.4975586.5810547-.1938477.2216797-.4560547.3662109-.7880859.4355469v6.3466797c0,.5810547-.0727539,1.0507812-.2177734,1.4101562-.1450195.3603516-.4321289.6533203-.8608398.8818359-.4287109.2275391-1.0649414.3769531-1.9082031.4453125-.0415039-.4277344-.0898438-.7705078-.1450195-1.0263672-.0556641-.2558594-.1450195-.4736328-.2695312-.6533203-.1796875-.1933594-.3837891-.3525391-.6118164-.4765625-.2280273-.125-.5498047-.2216797-.9643555-.2910156v-.2695312c1.1474609.0693359,1.8662109.1035156,2.1567383.1035156.1660156,0,.2802734-.0302734.3422852-.0927734s.0932617-.1621094.0932617-.3007812v-6.4921875h-3.484375v6.0566406c.027832,1.7148438.0830078,3.3388672.1660156,4.8740234-.0830078.1933594-.355957.3935547-.8193359.6015625-.4633789.2070312-.9091797.3105469-1.3378906.3105469-.2211914,0-.394043-.0410156-.5180664-.1240234-.1245117-.0830078-.1870117-.1796875-.1870117-.2900391.0551758-.8164062.1040039-1.6074219.1450195-2.375.0419922-.7675781.0693359-1.7734375.0830078-3.0175781v-6.0361328h-3.484375v3.7128906c.027832,1.7148438.0830078,3.3388672.1660156,4.8740234-.0966797.1933594-.362793.3935547-.7983398.6015625-.4355469.2070312-.8886719.3105469-1.3583984.3105469-.1660156,0-.2978516-.0410156-.394043-.1240234-.097168-.0830078-.1455078-.1796875-.1455078-.2900391.0966797-1.2861328.1586914-2.6962891.1865234-4.2314453v-2.34375c0-1.7421875-.0898438-3.1591797-.2695312-4.2519531l2.7792969,1.1621094h3.3183594v-2.9248047h-4.5834961c-.9819336.0136719-2.019043.1113281-3.1108398.2900391l-.5185547-1.0576172c.7602539.0830078,1.6796875.1386719,2.7583008.1660156h5.4545898c0-1.3828125-.0693359-2.5097656-.2070312-3.3808594,1.2026367.2353516,2.0322266.4257812,2.4887695.5703125.4560547.1455078.684082.2666016.684082.3632812,0,.0556641-.0483398.1171875-.1450195.1865234l-.3525391.2490234v2.0117188h4.2104492l.6430664-.9121094c.0825195-.0966797.1865234-.2314453.3110352-.4042969s.2246094-.3007812.3007812-.3837891c.0756836-.0830078.1416016-.125.1967773-.125.0830078,0,.3286133.1552734.7363281.4667969s.7949219.6357422,1.1616211.9746094c.3662109.3388672.5493164.5566406.5493164.6533203-.0551758.2216797-.2485352.3320312-.5805664.3320312h-7.3422852l.4355469.0419922c-.027832.1513672-.0825195.2695312-.1655273.3525391s-.2353516.1445312-.456543.1865234v2.34375h3.2768555l.4770508-.6220703Z"/>
        <path class="cls-1" d="m76.7749974,79.081411c.0546875-.0693359.1347656-.1621094.2382812-.2802734.1035156-.1171875.1865234-.2070312.2490234-.2695312.0620117-.0625.1206055-.0927734.1762695-.0927734.0830078,0,.3144531.1347656.6948242.4042969.3798828.2695312.7363281.5498047,1.0678711.8398438.3320312.2900391.4980469.484375.4980469.5810547-.1386719.2070312-.394043.3525391-.7675781.4355469v1.9082031c.0415039,1.6035156.0898438,2.8271484.1450195,3.6708984-.0830078.1523438-.3730469.328125-.8710938.5283203-.4975586.2011719-.9404297.3007812-1.3271484.3007812h-.4150391v-.9951172h-2.5507812c.8432617,1.0644531,1.9873047,1.9873047,3.4326172,2.7685547,1.4443359.78125,2.9414062,1.3515625,4.4902344,1.7109375l-.0415039.2285156c-.456543.1103516-.8505859.3632812-1.1821289.7568359-.3320312.3945312-.5673828.8886719-.7050781,1.4833984-2.9594727-1.3691406-5.074707-3.6367188-6.3466797-6.8037109v2.2402344c.0415039,1.8808594.0898438,3.3388672.1450195,4.3759766-.0830078.1796875-.3388672.3632812-.7675781.5498047s-.8574219.2802734-1.2856445.2802734c-.4287109,0-.6430664-.1386719-.6430664-.4150391.0551758-.7324219.1040039-1.7216797.1450195-2.9658203v-1.7001953c-2.0048828,1.9492188-4.652832,3.4697266-7.9433594,4.5625l-.1450195-.2695312c1.465332-.8017578,2.8134766-1.8076172,4.0444336-3.0175781,1.2304688-1.2099609,2.2119141-2.4716797,2.9448242-3.7851562h-1.7836914v.5185547c0,.0830078-.1074219.1865234-.3212891.3105469-.2148438.125-.4770508.2353516-.7880859.3320312-.3115234.0966797-.6191406.1455078-.9228516.1455078-.1660156,0-.2905273-.0419922-.3735352-.125s-.1245117-.1787109-.1245117-.2900391c.0688477-.6494141.1171875-1.5273438.1450195-2.6337891v-1.5351562c0-1.7421875-.0898438-3.1591797-.2695312-4.2519531l2.8208008,1.1201172h2.7167969v-1.9697266h-4.1479492c-.9819336.0136719-2.019043.1103516-3.1108398.2900391l-.5395508-1.0371094c.7602539.0830078,1.6801758.1386719,2.7587891.1660156h5.0395508c0-1.1748047-.0620117-2.1777344-.1865234-3.0078125,1.1889648.2626953,2.0048828.4707031,2.4472656.6220703.4423828.1523438.6640625.2841797.6640625.3945312,0,.0556641-.0556641.1171875-.1660156.1865234l-.3525391.2285156v1.5761719h3.8989258l.6430664-.9335938c.0830078-.1103516.1865234-.2558594.3110352-.4355469s.2246094-.3105469.3007812-.3935547c.0756836-.0830078.1416016-.125.1972656-.125.0825195,0,.328125.1591797.7358398.4775391.4082031.3183594.7954102.6494141,1.1616211.9951172s.5498047.5673828.5498047.6640625c-.0556641.2207031-.2490234.3320312-.5805664.3320312h-7.2177734v1.9697266h2.6962891l.5185547-.6220703Zm-5.6210938,3.5263672v-2.3232422h-2.8828125v2.3232422h2.8828125Zm0,.6005859h-2.8828125v2.3232422h2.8828125v-2.3232422Zm5.3095703-.6005859v-2.3232422h-2.9033203v2.3232422h2.9033203Zm-2.9033203.6005859v2.3232422h2.9033203v-2.3232422h-2.9033203Z"/>
        <path class="cls-1" d="m91.3970677,76.2610985c.4697266-.5537109.8017578-1.0029297.9951172-1.3486328l1.7836914,1.5966797h5.0195312l.6010742-.9326172.2490234-.3525391c.2626953-.3876953.4355469-.5810547.5185547-.5810547s.3178711.1591797.7050781.4765625c.387207.3183594.75.6474609,1.0888672.9853516.3388672.3388672.5083008.5566406.5083008.6533203-.0551758.2216797-.2421875.3320312-.5600586.3320312h-2.5097656v13.5224609c0,.609375-.0761719,1.1171875-.2280273,1.5244141-.1523438.4082031-.4560547.7431641-.9125977,1.0068359-.4560547.2617188-1.1132812.4277344-1.9702148.4970703-.0415039-.84375-.2075195-1.4238281-.4975586-1.7421875-.2075195-.2070312-.453125-.3759766-.7363281-.5078125-.2836914-.1308594-.6879883-.2314453-1.2133789-.3007812v-.2900391c1.534668.0966797,2.4609375.1445312,2.7792969.1445312.1791992,0,.300293-.0341797.362793-.1035156.0620117-.0693359.0932617-.1796875.0932617-.3320312v-13.4189453h-3.3183594l-.0209961-.0410156c-.1523438.0830078-.3110352.1376953-.4770508.1660156v7.9013672c.027832,1.7148438.0830078,3.3398438.1660156,4.8740234-.1108398.1523438-.3730469.3183594-.7880859.4980469-.4145508.1796875-.7880859.2695312-1.1201172.2695312-.2763672,0-.4145508-.1376953-.4145508-.4150391l.0830078-.5390625v-.4980469h-4.8120117v.4775391c.0136719.1796875.0239258.3417969.03125.4873047.0068359.1455078.0170898.2529297.03125.3212891-.027832.2080078-.2285156.4121094-.6015625.6123047-.3735352.2001953-.7744141.3007812-1.203125.3007812-.1660156,0-.3007812-.0419922-.4042969-.125-.1040039-.0830078-.1557617-.1796875-.1557617-.2900391.0551758-.8154297.1040039-1.6074219.1455078-2.375s.0688477-1.7734375.0830078-3.0175781v-6.2841797c0-1.7421875-.090332-3.1591797-.2700195-4.2519531l2.4682617,1.0996094h4.5009766Zm-3.2358398,6.1806641v-5.6005859h-1.3896484v5.6005859h1.3896484Zm0,.5800781h-1.3896484v5.7246094h1.3896484v-5.7246094Zm3.4223633-.5800781v-5.6005859h-1.4931641v5.6005859h1.4931641Zm-1.4931641.5800781v5.7246094h1.4931641v-5.7246094h-1.4931641Z"/>
      </g>
    </g>
  </g>
</svg>