<?xml version="1.0" encoding="UTF-8"?>
<svg id="_レイヤー_2" data-name="レイヤー 2" xmlns="http://www.w3.org/2000/svg" xmlns:xlink="http://www.w3.org/1999/xlink" viewBox="0 0 629.22 525.91">
  <defs>
    <style>
      .cls-1 {
        letter-spacing: -.88em;
      }

      .cls-2 {
        letter-spacing: .75em;
      }

      .cls-3 {
        fill: #040000;
        font-family: RyuminPr6N-Light-90ms-RKSJ-H, 'A-OTF Ryumin Pr6N';
        font-size: 11.81px;
        font-weight: 300;
      }

      .cls-4 {
        stroke: #231815;
        stroke-width: .39px;
      }

      .cls-4, .cls-5, .cls-6 {
        fill: none;
      }

      .cls-5 {
        stroke: #000;
        stroke-miterlimit: 10;
        stroke-width: .41px;
      }

      .cls-7 {
        font-size: 11.74px;
        letter-spacing: .12em;
      }

      .cls-7, .cls-8 {
        font-family: Garamond, Garamond;
      }

      .cls-9 {
        font-size: 12.19px;
      }

      .cls-9, .cls-10, .cls-11, .cls-12, .cls-13, .cls-14, .cls-15 {
        font-family: ShipporiMincho-Regular, 'Shippori Mincho';
      }

      .cls-10 {
        fill: #231815;
        font-size: 9.26px;
      }

      .cls-11 {
        font-size: 11.38px;
      }

      .cls-16 {
        letter-spacing: .2em;
      }

      .cls-17 {
        letter-spacing: .5em;
      }

      .cls-18 {
        letter-spacing: -.3em;
      }

      .cls-19 {
        letter-spacing: -.88em;
      }

      .cls-20 {
        clip-path: url(#clippath);
      }

      .cls-21 {
        letter-spacing: .46em;
      }

      .cls-12 {
        letter-spacing: .12em;
      }

      .cls-12, .cls-13 {
        glyph-orientation-vertical: 0deg;
        text-orientation: upright;
      }

      .cls-12, .cls-13, .cls-14 {
        font-size: 10.9px;
        writing-mode: tb;
      }

      .cls-8 {
        font-size: 21.81px;
      }

      .cls-14 {
        glyph-orientation-vertical: 90deg;
        text-orientation: sideways-right;
      }

      .cls-15 {
        fill: #fff;
        font-size: 13px;
      }

      .cls-22 {
        letter-spacing: .47em;
      }
    </style>
    <clipPath id="clippath">
      <rect class="cls-6" width="629.22" height="525.91"/>
    </clipPath>
  </defs>
  <g id="_レイヤー_2-2" data-name="レイヤー 2">
    <g class="cls-20">
      <text class="cls-3" transform="translate(434.89 455.62)"><tspan class="cls-16" x="0" y="0">※実測図ではございません</tspan><tspan class="cls-18" x="170.01" y="0">。</tspan></text>
      <text class="cls-8" transform="translate(461.86 133.74)"><tspan x="0" y="0">No.1</tspan></text>
      <text class="cls-8" transform="translate(349.11 185.76)"><tspan x="0" y="0">No.3</tspan></text>
      <text class="cls-8" transform="translate(251.11 177.26)"><tspan x="0" y="0">No.4</tspan></text>
      <text class="cls-8" transform="translate(251.11 282.64)"><tspan x="0" y="0">No.5</tspan></text>
      <text class="cls-8" transform="translate(330.59 385.83)"><tspan x="0" y="0">No.6</tspan></text>
      <text class="cls-8" transform="translate(236.2 391.52)"><tspan x="0" y="0">No.7</tspan></text>
      <text class="cls-8" transform="translate(140.36 391.52)"><tspan x="0" y="0">No.8</tspan></text>
      <text class="cls-8" transform="translate(41.65 391.52)"><tspan x="0" y="0">No.9</tspan></text>
      <text class="cls-8" transform="translate(69.29 284.26)"><tspan x="0" y="0">No.10</tspan></text>
      <text class="cls-8" transform="translate(69.29 189.25)"><tspan x="0" y="0">No.11</tspan></text>
      <text class="cls-8" transform="translate(461.86 221.39)"><tspan x="0" y="0">No.2</tspan></text>
      <text class="cls-10" transform="translate(402.42 71.52) scale(1.02 1)"><tspan x="0" y="0">清掃施設</tspan></text>
      <g>
        <line class="cls-5" x1="394.56" y1="89.89" x2="400.88" y2="72.5"/>
        <path d="m396.02,90.34c-.29.79-1.17,1.2-1.96.91s-1.2-1.17-.91-1.96c.29-.79,1.16-1.2,1.96-.91.79.29,1.2,1.16.91,1.96Z"/>
      </g>
      <text class="cls-11" transform="translate(269.63 78.55) rotate(-7.52)"><tspan x="0" y="0">約6M公道</tspan></text>
      <text class="cls-9" transform="translate(180.18 488.26)"><tspan x="0" y="0">約12M公道</tspan></text>
      <g>
        <text class="cls-12" transform="translate(191.33 136.64)"><tspan x="0" y="0">約</tspan></text>
        <text class="cls-14" transform="translate(192.55 158.25) rotate(-90)"><tspan class="cls-17" x="0" y="0">5</tspan><tspan class="cls-2" x="-10.9" y="1.38">.</tspan><tspan class="cls-21" x="-21.8" y="-.2">8</tspan><tspan class="cls-1" x="-32.69" y="-2.78">M</tspan></text>
        <text class="cls-13" transform="translate(191.33 192.43)"><tspan x="0" y="0">道路</tspan></text>
      </g>
      <g>
        <text class="cls-12" transform="translate(570.63 111.85) rotate(-7.14)"><tspan x="0" y="0">約</tspan></text>
        <text class="cls-14" transform="translate(574.37 133.16) rotate(-97.14)"><tspan class="cls-22" x="0" y="0">6</tspan><tspan class="cls-19" x="-10.9" y="-2.62">M</tspan></text>
        <text class="cls-13" transform="translate(574.86 145.59) rotate(-7.14)"><tspan x="0" y="0">公道</tspan></text>
      </g>
      <text class="cls-15" transform="translate(325.29 412.59) scale(1.03 1)"><tspan x="0" y="0">新築戸建</tspan></text>
      <g>
        <g>
          <path class="cls-4" d="m481.95,408.4c-1.77,3.04-5.66,4.08-8.71,2.31-3.04-1.77-4.08-5.66-2.31-8.7,1.75-3.03,5.65-4.06,8.69-2.32,3.04,1.77,4.09,5.67,2.32,8.7Z"/>
          <path class="cls-4" d="m481.32,408.05c-1.56,2.69-5.01,3.61-7.71,2.04-2.69-1.55-3.62-5.01-2.04-7.71,1.56-2.68,5.01-3.6,7.7-2.03,2.7,1.55,3.61,5.01,2.04,7.7Z"/>
          <line class="cls-4" x1="476.45" y1="405.21" x2="497.23" y2="369.38"/>
          <line class="cls-4" x1="476.45" y1="405.21" x2="477.7" y2="395.77"/>
          <line class="cls-4" x1="476.45" y1="405.21" x2="473.21" y2="393.01"/>
          <line class="cls-4" x1="476.45" y1="405.21" x2="470.64" y2="397.62"/>
          <line class="cls-4" x1="476.45" y1="405.21" x2="462.6" y2="397.17"/>
          <line class="cls-4" x1="476.45" y1="405.21" x2="467" y2="403.95"/>
          <line class="cls-4" x1="476.45" y1="405.21" x2="464.25" y2="408.45"/>
          <line class="cls-4" x1="476.45" y1="405.21" x2="468.88" y2="411"/>
          <line class="cls-4" x1="476.45" y1="405.21" x2="468.41" y2="419.06"/>
          <line class="cls-4" x1="476.45" y1="405.21" x2="475.18" y2="414.63"/>
          <line class="cls-4" x1="476.45" y1="405.21" x2="479.67" y2="417.36"/>
          <line class="cls-4" x1="476.45" y1="405.21" x2="482.21" y2="412.76"/>
          <line class="cls-4" x1="476.45" y1="405.21" x2="490.3" y2="413.24"/>
          <line class="cls-4" x1="476.45" y1="405.21" x2="485.88" y2="406.47"/>
          <line class="cls-4" x1="476.45" y1="405.21" x2="488.65" y2="401.97"/>
          <line class="cls-4" x1="476.45" y1="405.21" x2="484.01" y2="399.44"/>
          <polygon class="cls-4" points="470.09 405.61 467.24 407.66 470.73 408.02 468.88 411 472.24 409.99 471.67 413.44 474.38 411.24 475.18 414.63 476.85 411.57 478.89 414.41 479.25 410.92 482.21 412.76 481.21 409.43 484.67 409.99 482.47 407.27 485.88 406.47 482.8 404.81 485.64 402.77 482.15 402.41 484.01 399.44 480.64 400.43 481.22 396.97 478.49 399.19 477.7 395.77 476.04 398.87 474 396 473.65 399.5 470.64 397.62 471.66 401.01 468.21 400.43 470.41 403.16 467 403.95 470.09 405.61"/>
          <polyline class="cls-4" points="470.09 405.62 464.25 408.45 470.73 408.02"/>
          <polyline class="cls-4" points="472.24 409.99 468.41 419.06 474.39 411.23"/>
          <polyline class="cls-4" points="476.85 411.57 479.67 417.36 479.25 410.92"/>
          <polyline class="cls-4" points="481.21 409.43 490.3 413.24 482.47 407.27"/>
          <polyline class="cls-4" points="471.66 401.01 462.6 397.17 470.41 403.16"/>
          <polyline class="cls-4" points="473.65 399.5 473.21 393.01 476.04 398.86"/>
          <polyline class="cls-4" points="480.64 400.43 484.48 391.37 478.49 399.19"/>
          <polyline class="cls-4" points="482.17 402.42 488.65 401.97 482.79 404.82"/>
          <polyline class="cls-4" points="478.49 399.19 494.2 374.6 480.64 400.43"/>
          <polygon class="cls-4" points="495.13 372.96 493.97 373.46 494.11 374.73 495.28 374.22 495.13 372.96"/>
          <polygon class="cls-4" points="497.22 369.37 495.12 371.5 495.33 372.65 496.42 372.25 497.22 369.37"/>
        </g>
        <text class="cls-7" transform="translate(495.49 364.11) rotate(30.44)"><tspan x="0" y="0">N</tspan></text>
      </g>
    </g>
  </g>
</svg>