<?xml version="1.0" encoding="UTF-8"?>
<svg id="_レイヤー_2" data-name="レイヤー 2" xmlns="http://www.w3.org/2000/svg" viewBox="0 0 630 527">
  <defs>
    <style>
      .cls-1 {
        fill: #fff;
      }

      .cls-2 {
        fill: #040000;
      }

      .cls-3 {
        stroke: #000;
        stroke-miterlimit: 10;
        stroke-width: .41px;
      }

      .cls-3, .cls-4 {
        fill: none;
      }

      .cls-4 {
        opacity: .4;
      }

      .cls-5 {
        font-family: Garamond, Garamond;
        font-size: 21.81px;
      }

      .cls-6 {
        fill: #231815;
      }
    </style>
  </defs>
  <g id="_レイヤー_2-2" data-name="レイヤー 2">
    <g>
      <g>
        <path class="cls-2" d="m450.41,458.3l-.32-.32,3.27-3.25-3.27-3.25.32-.32,3.25,3.26,3.25-3.26.32.32-3.26,3.25,3.26,3.25-.32.32-3.25-3.27-3.25,3.27Zm1.36-3.58c0,.45-.37.83-.83.83s-.84-.37-.84-.83.38-.83.84-.83.83.38.83.83Zm2.73-2.73c0,.44-.36.83-.83.83s-.83-.38-.83-.83.38-.84.83-.84.83.38.83.84Zm0,5.46c0,.45-.36.84-.83.84s-.83-.38-.83-.84.38-.83.83-.83.83.38.83.83Zm2.74-2.73c0,.45-.37.83-.84.83s-.83-.37-.83-.83.38-.83.83-.83.84.38.84.83Z"/>
        <path class="cls-2" d="m469.65,459.15c-.72-.16-1.41-.5-1.58-.59-.91-.45-1.62-1.17-2.19-2.16h-.2c-.5,1.38-1.69,2.47-4.02,2.88l-.03-.1c1.85-.48,3.09-1.92,3.45-2.78h-2.2c-.36,0-.91.04-1.3.12l-.23-.43c.74.06,1.48.07,1.67.07h2.15c.08-.27.16-.6.21-1.13h-1.04c-.35,0-.91.04-1.3.11l-.23-.43c.75.06,1.48.08,1.67.08h.91c.02-.22.03-.5.03-1.13h-1.29c-.36,0-.91.04-1.3.11l-.23-.43c.74.06,1.48.08,1.67.08h1.15c-.02-.73-.03-1.06-.14-1.37l.92.22s.14.03.14.15c0,.1-.07.16-.32.29,0,.13-.01.19-.02.7h1.62l.33-.37c.1-.11.11-.12.16-.12.07,0,.15.07.18.1l.4.36c.05.05.1.1.1.16,0,.09-.08.11-.15.11h-2.65l-.04,1.13h1.54l.28-.33c.1-.11.11-.12.15-.12.06,0,.13.06.18.1l.4.33c.05.04.1.08.1.15,0,.09-.08.11-.15.11h-2.51c-.05.53-.13.88-.2,1.13h3.09l.42-.38c.12-.1.12-.12.16-.12.05,0,.09.04.18.11l.47.37c.05.04.1.09.1.16,0,.09-.09.1-.15.1h-3.99c1.59,2.01,3.71,1.94,4.45,1.9v.08c-.45.16-.54.23-.84.77Zm.19-7.2c-.1,0-.13,0-.44-.02-.19.1-1.01.54-1.2.62l-.06-.05c.22-.25.45-.6.55-.81h-6.16c.02.81-.22,1.66-.84,1.66-.09,0-.33-.06-.33-.33,0-.2.05-.25.51-.68.29-.27.46-.69.49-1.26h.09c.03.14.04.21.07.37h2.92c-.03-.84-.06-.91-.2-1.27l.93.2c.06.02.15.04.15.15,0,.13-.07.17-.32.31v.6h2.62l.45-.36c.1-.08.11-.09.16-.09.07,0,.13.02.18.07l.61.52c.05.04.1.09.1.16,0,.2-.17.2-.3.2Z"/>
        <path class="cls-2" d="m474.15,454.2c-.19,0-.24-.11-.35-.34-.13-.28-.29-.62-.64-.9l.04-.07c.45.11.79.27.99.42.09.06.27.22.27.54,0,.29-.2.35-.31.35Zm.88.51c-.04.12-.47,1.51-.55,1.86-.02.11-.05.26-.05.39,0,.16.1.64.14.8.06.21.15.54.15.83,0,.13-.02.51-.36.51-.3,0-.35-.3-.35-.48,0-.16.05-.88.05-1.03,0-.33-.01-.89-.6-1.01v-.08c.31-.02.46-.16.57-.29.24-.29,1.21-2.84,1.45-3.51h.08c-.14.68-.32,1.35-.52,2Zm-.17-2.79c-.2,0-.23-.09-.36-.39-.24-.58-.41-.79-.59-.98l.05-.07c.91.39,1.24.59,1.24,1.03,0,.34-.21.41-.33.41Zm2.42,5.57s.07.06.07.13c0,.14-.1.19-.36.18-.55.59-1.17,1.13-1.91,1.45l-.04-.06c.55-.43.94-.99,1.07-1.19.34-.5.4-.69.4-.9l.76.39Zm1.21-6.14c0,.16-.01,4.35.04,5.16,0,.03.01.13.01.18,0,.25-.33.25-.36.25-.17,0-.17-.04-.17-.23h-1.36c0,.22-.22.29-.4.29-.17,0-.17-.12-.17-.18,0-.04.02-.26.02-.29.04-1.42.04-2.33.04-2.82,0-.46,0-2.22-.04-2.75-.01-.18-.03-.26-.06-.39l.68.33h1.12l.22-.2c.1-.09.11-.1.15-.1s.1.03.13.05l.38.27s.09.06.09.13c0,.08-.19.21-.32.3Zm-.48-.21h-1.36v1.6h1.36v-1.6Zm0,1.84h-1.36v1.61h1.36v-1.61Zm0,1.85h-1.36v1.65h1.36v-1.65Zm.64,4.01c-.19,0-.23-.09-.33-.37-.23-.6-.53-.97-.73-1.19l.05-.06c.49.19,1.33.67,1.33,1.25,0,.28-.16.37-.31.37Zm1.47-7.08c-.01.18-.02,2.79.01,4.4,0,.11.03.61.03.71,0,.33-.37.35-.43.35-.13,0-.16-.03-.16-.18,0-.3.04-3.27.04-3.87,0-1,0-1.57-.14-2.04l.86.26s.09.03.09.1c0,.03-.02.16-.3.26Zm1.53-.77v3.49c0,1.32.05,2.5.05,2.84,0,1.04,0,1.29-.29,1.51-.3.23-.61.31-.87.37-.05-.32-.26-.64-.68-.86v-.08c.1,0,.9.05.93.05.32,0,.36-.03.36-.22,0-3.25,0-4.75-.04-6.9-.01-.55-.11-.71-.2-.88l.95.29c.07.02.15.05.15.12,0,.15-.27.25-.36.28Z"/>
        <path class="cls-2" d="m493.69,451.33c0,.57.03,4.4.06,6.04,0,.19.04,1.05.04,1.23,0,.34-.32.41-.42.41-.24,0-.23-.14-.21-.43h-6.59c.01.31.02.63-.46.63-.16,0-.17-.11-.17-.19,0-.23.04-1.24.04-1.45.05-2.46.05-2.98.05-3.81,0-1.12-.02-2.24-.14-3.36l.73.36h6.44l.21-.21s.08-.1.15-.1c.04,0,.08.03.15.08l.43.3c.06.04.08.05.08.12,0,.13-.06.19-.39.37Zm-.52-.32h-6.6v7.32h6.6v-7.32Zm-1.19,1.31c-.56,1.72-1.2,2.6-1.65,3.21.59.29,1.95,1.01,1.95,1.59,0,.2-.13.38-.32.38-.12,0-.15-.03-.31-.2-.41-.46-.93-.92-1.63-1.38-.73.86-1.6,1.62-2.65,2.04v-.06c1.3-.95,1.94-1.75,2.3-2.2-.97-.57-1.71-.76-2.21-.87v-.09c.99.11,1.81.34,2.46.61.95-1.34,1.55-3.25,1.55-3.59,0-.05-.01-.09-.02-.16l.82.34c.06.02.12.05.12.11,0,.14-.31.24-.41.26Zm-3.58,1.76c-.27,0-.3-.19-.4-.72-.06-.28-.17-.76-.49-1.16l.05-.06c.7.37,1.17,1.33,1.17,1.58,0,.22-.16.37-.33.37Zm1.49-.44c-.25,0-.28-.13-.4-.65-.11-.5-.47-1.01-.62-1.19l.03-.05c.69.31,1.33.93,1.33,1.48,0,.07,0,.41-.33.41Z"/>
        <path class="cls-2" d="m498.62,452.58c.28,0,.55-.07,1.66-.37,1.5-.4,4.49-1.03,4.62-1.03.16,0,.71.18.71.47,0,.24-.25.26-.38.26-.09,0-.52-.03-.6-.03-1.13,0-1.68.27-2.25.77-1.02.89-1.35,1.97-1.35,2.7,0,1.76,1.78,2.25,2.55,2.39.27.05.42.07.56.25.07.09.11.19.11.27,0,.16-.14.19-.25.19-1.03,0-3.38-.76-3.38-3,0-1.73,1.29-2.75,2.34-3.59-.6.17-1.35.35-2.02.51-1.28.31-1.63.52-2.13.81-.06.04-.17.1-.29.1-.16,0-.66-.26-.66-.87,0-.15.03-.23.07-.33.31.42.36.49.69.49Zm5.71.67c.67.42.75.67.75.9,0,.1-.02.31-.21.31-.11,0-.17-.1-.24-.22-.33-.61-.96-1.15-1.24-1.33.33.03.65.16.93.33Zm1.92.48c0,.24-.13.27-.18.27-.11,0-.18-.11-.28-.25-.34-.49-.82-.84-1.31-1.2.66.1,1.77.52,1.77,1.18Z"/>
        <path class="cls-2" d="m511.84,454.84c-.11.49-.42,1.97-.48,2.34-.01.09-.04.39-.04.51,0,.1.04.52.04.61,0,.13-.08.23-.22.23-.62,0-.83-1.86-.83-2.45,0-.96.28-2.56.49-3.53.07-.35.08-.46.08-.59,0-.5-.17-.64-.43-.82.07-.02.13-.03.21-.03.52,0,.92.57.92.81,0,.11-.01.15-.16.52-.42,1.03-.67,2.13-.67,3.24,0,.65.1,1.3.13,1.34.01,0,.02.02.04.02.07,0,.1-.14.11-.17.34-.99.38-1.11.68-1.98.01,0,.03-.06.03-.07h.1Zm3.76-3.28c-.02-.53-.17-.59-.69-.72.12-.07.31-.18.61-.18s.56.23.62.29c.08.07.12.11.12.2,0,.07-.07.35-.08.41-.06.37-.09.8-.09,1.39.21-.04,1.11-.29,1.3-.29.12,0,.48.13.48.29s-.18.21-.25.22c-.59.13-1.49.23-1.53.24.02,1.08.05,2.27.15,3.24,1.05.47,1.08.48,1.29.61.21.14.41.36.41.57,0,.1-.07.27-.25.27-.09,0-.15-.04-.33-.16-.39-.26-.95-.62-1.18-.74-.24.66-.63,1.14-1.56,1.14-.86,0-1.59-.46-1.59-1.03,0-.4.34-.65.57-.76.33-.16.85-.16,1.02-.16.47,0,.82.05,1.09.09.02-.3-.07-2.53-.08-3.01-.24.03-.58.08-.91.08-.47,0-1.03-.12-1.43-.37-.17-.11-.22-.21-.27-.34.44.19.81.28,1.48.28.17,0,.58,0,1.13-.08-.01-.23-.02-1.26-.03-1.47Zm-1.03,5.19c-.44,0-1.18.15-1.18.54,0,.32.48.56,1.06.56,1,0,1.19-.67,1.24-.87-.44-.18-.81-.23-1.12-.23Z"/>
        <path class="cls-2" d="m523.07,455.74c0,.67.39,1.13.72,1.4.44.33,1.13.41,1.8.41.39,0,1.64-.05,2.71-.41.18-.06.24-.08.32-.08.19,0,.63.08.63.35,0,.15-.09.22-.18.26-.59.26-2.75.39-3.07.39-.54,0-3.22-.02-3.22-1.87,0-.34.09-.75.36-.97-.03.15-.07.32-.07.52Zm1.78-2.44c.19-.13.98-.75,1.16-.86.04-.02.12-.08.12-.13s-.05-.11-.2-.11c-1.04-.03-1.58-.26-1.92-.46-.43-.26-.44-.52-.45-.65.51.38,1.3.62,2.62.62.12,0,.61-.02.71-.02.42,0,1.21.15,1.21.55,0,.24-.22.24-.5.24-.4,0-.69,0-1.24.21-.24.1-1.29.57-1.51.67v-.06Zm4.83-1.29c0,.1-.05.3-.18.3-.11,0-.18-.09-.27-.22-.39-.51-.84-.88-1.32-1.15,1.51.12,1.77.85,1.77,1.07Zm.31-1.32c.57.24.78.44.78.81,0,.1-.02.32-.17.32-.08,0-.15-.08-.21-.16-.38-.48-.6-.75-1.39-1.13.33-.03.67.03.98.16Z"/>
        <path class="cls-2" d="m539.06,451.47c.3.1.52.1.54.1.12,0,.15,0,.45-.1.06-.02.1-.04.16-.04.19,0,.31.15.31.29,0,.09-.03.18-.2.3-.43.33-1.01.65-1.67.91.8.7,1.52,1.32,2.23,2.41.05.09.15.25.15.41,0,.2-.18.64-.36.64-.09,0-.41-.19-.47-.22-.95-.41-1.66-.52-2.24-.52-1,0-2.14.3-2.14,1.23,0,.99.96,1.38,2.69,1.38.11,0,.58-.02.68,0,.14,0,.49.09.49.35,0,.28-.54.29-.78.29-.19,0-1.88-.13-2.55-.5-.54-.31-.85-.78-.85-1.31,0-.77.58-1.77,2.59-1.77.57,0,1.1.07,1.57.15.09.02.5.11.56.11.04,0,.09,0,.09-.09,0-.17-.97-1.55-2.02-2.42-.4.14-.77.26-1.49.4-.26.05-.62.1-.88.1-.13,0-.4,0-.74-.24-.35-.25-.38-.37-.41-.51.32.25.85.32,1.12.32.61,0,1.39-.22,1.98-.4-1.13-.88-1.26-.97-1.36-1.08-.14-.13-.14-.25-.14-.31,0-.23.16-.62.61-.62.19,0,.47.13.61.23-.3.02-.33.03-.38.05-.06.03-.14.11-.14.26,0,.24.1.32,1.2,1.34.38-.13,1.11-.4,1.11-.69,0-.24-.24-.34-.35-.39l.02-.05Zm3.1.48c0,.13-.02.28-.16.28-.09,0-.1-.02-.25-.22-.4-.57-.96-.97-1.2-1.15,1.13.11,1.62.56,1.62,1.09Zm.33-1.63c.25.11.53.26.53.63,0,.25-.16.26-.18.26-.09,0-.17-.08-.27-.19-.46-.49-1.02-.84-1.26-.98.33-.01.7.06,1.18.28Z"/>
        <path class="cls-2" d="m549.94,454.17c-.14.28-1.2,2.47-1.25,2.57-.04.13-.07.24-.07.37,0,.07.07.39.07.46,0,.11-.07.22-.25.22s-1.26-.08-1.76-2.19c-.09-.36-.09-.53-.2-2.09-.06-.81-.09-1.06-.48-1.68.53.02,1.11.59,1.11,1.03,0,.11,0,.14-.06.43-.06.34-.07.62-.07.85,0,.56.13,1.98.75,2.47.03.02.13.11.22.11.11,0,.2-.08.24-.15.74-1.17.82-1.28,1.55-2.33.01-.02.06-.1.09-.14l.1.05Zm2.28,1.23c.14-.02.79-.12.92-.14.08,0,.26-.05.26-.25,0-.23-.44-1.85-1.86-2.38.05-.02.18-.06.31-.06.17,0,.69.11,1.15.62.76.86,1.08,1.9,1.08,2.37,0,.3-.13.6-.28.6-.07,0-.1-.02-.35-.23-.34-.29-.56-.33-1.24-.46v-.07Z"/>
        <path class="cls-2" d="m562.21,451.25c0-.42-.08-.46-.74-.77.09-.06.2-.15.5-.15.52,0,.94.36.94.6,0,.02-.05.23-.1.44s-.08.44-.12.74c.69-.15,1-.26,1.57-.46.07-.02.17-.06.25-.06.18,0,.54.18.54.32,0,.12-.13.18-.18.2-.31.13-1.18.36-2.23.5-.03.42-.04,1.04-.03,1.61.65-.16.88-.24,1.33-.41.05-.02.13-.05.18-.05.18,0,.52.12.52.29,0,.14-.12.21-.22.25-.18.06-1.1.25-1.8.38.02.41.11,1.8.14,2.3,1.14.27,2.14.75,2.14,1.25,0,.18-.12.28-.22.28-.08,0-.12-.03-.46-.26-.1-.07-.75-.47-1.42-.66-.01.58-.25.81-.39.92-.45.33-1.09.34-1.23.34-1.02,0-1.7-.5-1.7-.99,0-.31.21-.52.5-.69.56-.31,1.53-.31,1.72-.31.23,0,.38.01.53.02-.01-.33-.09-1.81-.1-2.11-.51.07-1.01.12-1.52.12-.6,0-.97-.11-.97-.46,0-.17.18-.42.49-.49-.07.08-.16.19-.16.31,0,.19.21.22.72.22.39,0,.86-.04,1.43-.14,0-.55.01-.84.04-1.65-.4.04-1.74.18-2.03.18-.26,0-1.06-.07-1.33-.67.17.07.59.25,1.3.25.2,0,1.03-.05,2.07-.22,0-.15.03-.82.03-.96Zm-1.05,6.06c-.66,0-1.33.17-1.33.57,0,.29.44.52,1.2.52.42,0,1.32-.12,1.21-.99-.17-.04-.45-.1-1.08-.1Z"/>
        <path class="cls-2" d="m573.68,455.47l.09.02c1.04.23,1.06.28,1.18.28.29,0,.38-.21.42-.34.07-.25.14-1.37.16-1.71-1,.16-1.96.4-2.73.59-.05,1-.05,1.11-.05,1.32,0,1.84.44,2.33,2.16,2.33.66,0,1.39-.11,1.54-.14.26-.06.29-.05.37-.05.26,0,.55.17.55.38,0,.16-.13.21-.18.23-.23.06-1.09.07-1.4.07-1.04,0-2.73,0-3.24-1.34-.21-.54-.25-1.11-.25-2.66-.89.26-1.08.37-1.36.54-.21.13-.26.16-.39.16-.17,0-.93-.35-.88-1.06.29.27.58.42.83.42.08,0,.18,0,.46-.09.64-.19,1.13-.31,1.34-.36,0-.33,0-1.29-.11-1.51-.09-.2-.32-.34-.55-.45.09-.07.13-.09.33-.09.49,0,.95.3.95.49,0,.03-.01.15-.04.27-.04.18-.05.99-.06,1.17.9-.22,1.81-.41,2.72-.56.01-.44.03-1.67-.12-2.05-.12-.32-.59-.45-.77-.5.12-.05.31-.13.59-.13s.9.2.9.57c0,.03-.05.32-.06.34-.05.3-.07,1.32-.08,1.7.24-.04,1.34-.21,1.56-.26.17-.03.47-.1.57-.1.17,0,.6.06.6.31,0,.27-.25.27-.38.27-.09,0-.48-.01-.56-.01-.36,0-.94.04-1.8.14-.01.61-.09,1.83-.3,2.33-.21.49-.51.55-.6.55s-.11-.02-.3-.21c-.36-.36-1.09-.8-1.12-.82v-.04Z"/>
        <path class="cls-2" d="m590.48,455.28c-.22.91-.49,1.66-.91,2.17-.28.33-.85.86-1.69.86-1.08,0-1.18-.83-1.3-1.82-.09-.74-.16-1.27-.75-1.27s-1.14.32-1.74,1.12c-.38.51-.46.66-.95,1.85-.09.21-.16.39-.34.39-.25,0-.29-.55-.29-.61,0-.13.07-.29.28-.57.47-.63,2.02-3.53,2.56-4.62.14-.29.5-1.03.5-1.27,0-.12-.08-.32-.41-.58.08-.02.13-.04.22-.04.42,0,.95.43.95.83,0,.2-.08.29-.26.49-.11.12-.16.2-.27.37-1.4,2.22-1.53,2.42-1.86,3.15.7-.59,1.22-.83,1.72-.83.9,0,1,.69,1.15,1.53.14.78.24,1.29.89,1.29.43,0,.82-.2,1.23-.6.55-.54.92-1.28,1.18-1.84h.09Z"/>
        <path class="cls-2" d="m594,457.53c0-.81.65-1.47,1.46-1.47s1.47.65,1.47,1.47-.67,1.46-1.47,1.46-1.46-.66-1.46-1.46Zm2.64,0c0-.65-.53-1.18-1.19-1.18s-1.19.54-1.19,1.18.51,1.19,1.19,1.19,1.19-.52,1.19-1.19Z"/>
      </g>
      <text class="cls-5" transform="translate(462.13 134.17)"><tspan x="0" y="0">No.1</tspan></text>
      <text class="cls-5" transform="translate(349.38 186.19)"><tspan x="0" y="0">No.3</tspan></text>
      <text class="cls-5" transform="translate(251.37 177.69)"><tspan x="0" y="0">No.4</tspan></text>
      <text class="cls-5" transform="translate(251.37 283.07)"><tspan x="0" y="0">No.5</tspan></text>
      <text class="cls-5" transform="translate(330.85 386.26)"><tspan x="0" y="0">No.6</tspan></text>
      <text class="cls-5" transform="translate(236.47 391.95)"><tspan x="0" y="0">No.7</tspan></text>
      <text class="cls-5" transform="translate(140.62 391.95)"><tspan x="0" y="0">No.8</tspan></text>
      <text class="cls-5" transform="translate(41.91 391.95)"><tspan x="0" y="0">No.9</tspan></text>
      <text class="cls-5" transform="translate(69.55 284.69)"><tspan x="0" y="0">No.10</tspan></text>
      <text class="cls-5" transform="translate(69.55 189.68)"><tspan x="0" y="0">No.11</tspan></text>
      <text class="cls-5" transform="translate(462.13 221.82)"><tspan x="0" y="0">No.2</tspan></text>
      <g>
        <path class="cls-6" d="m403.25,66.41c.48.06.84.18,1.08.37.23.18.35.37.35.57,0,.09-.03.17-.08.24-.06.07-.13.1-.22.1-.08,0-.15-.02-.22-.07-.06-.19-.19-.39-.38-.6s-.39-.38-.6-.51l.08-.09Zm.56,3.67c.05,0,.09-.01.12-.03s.07-.07.1-.15c.1-.22.65-1.53,1.64-3.93l.17.05c-.66,1.99-1.05,3.2-1.18,3.65-.09.34-.13.6-.12.8,0,.14.03.31.09.53,0,.03.03.14.07.32.04.18.06.39.06.62s-.04.42-.13.56-.21.2-.38.2c-.08,0-.15-.04-.19-.12-.05-.08-.08-.19-.09-.33.04-.32.07-.63.07-.92,0-.5-.06-.8-.19-.89-.11-.07-.25-.11-.44-.13v-.2h.4Zm.08-5.77c.5.07.87.21,1.11.41.24.2.36.4.36.6,0,.11-.03.19-.08.25s-.13.1-.23.1c-.07,0-.14-.02-.23-.07-.06-.2-.19-.42-.4-.65-.2-.23-.41-.42-.62-.55l.08-.09Zm6.26,1.65s.05-.06.08-.11c.03-.05.06-.08.09-.11.03-.02.05-.04.08-.04.04,0,.11.04.23.13.12.09.22.18.32.28.1.1.15.17.15.22-.02.1-.1.15-.25.15h-2.11v.82h1.6l.18-.25s.05-.07.09-.12c.03-.05.06-.08.09-.11s.05-.04.08-.04c.04,0,.12.04.24.13.12.09.23.18.33.28.1.1.16.17.16.22-.02.1-.1.15-.25.15h-3.97c-.45,0-.92.05-1.42.13l-.25-.47c.35.04.76.06,1.25.07h1.28v-.82h-.63c-.38,0-.77.05-1.17.13l-.25-.48c.35.04.76.06,1.25.07h.79v-.75h-.71c-.41,0-.84.05-1.3.13l-.25-.46c.35.04.76.06,1.25.07h1c0-.38-.02-.7-.06-.98.33.1.56.18.69.24.13.06.19.11.19.15,0,.02-.03.06-.08.1l-.17.1v.39h1.42l.18-.25s.05-.07.09-.12c.03-.05.06-.08.09-.11.02-.02.05-.04.08-.04.04,0,.11.04.23.13.12.09.22.18.33.28.1.1.15.17.15.22-.02.09-.11.14-.25.14h-2.31v.75h1.24l.18-.25Zm-3.08,5.42v.32c.02.25.03.48.05.71-.02.06-.09.12-.19.18s-.21.08-.32.08c-.04,0-.08-.02-.12-.06s-.05-.08-.05-.13c.04-.56.06-1.11.08-1.68v-.94c0-.78-.04-1.41-.12-1.9l.74.33h2.78l.12-.18s.05-.06.08-.12c.04-.05.08-.08.11-.08s.12.04.24.12c.12.08.23.16.33.25s.15.16.15.2c-.03.04-.07.08-.15.12s-.15.07-.24.08v3.14c0,.17-.02.31-.07.42-.04.11-.14.2-.28.27-.14.07-.35.12-.64.15-.03-.21-.1-.35-.22-.42-.13-.1-.41-.18-.84-.23v-.15c.69.05,1.11.07,1.25.07.09,0,.15-.01.18-.05.03-.03.05-.08.05-.16v-.93h-2.93v.55Zm2.93-1.98v-.82h-2.93v.82h2.93Zm-2.93.28v.89h2.93v-.89h-2.93Z"/>
        <path class="cls-6" d="m415,65.93s.04-.06.08-.12c.03-.05.06-.09.08-.12s.05-.04.07-.04c.06,0,.18.09.36.28.19.18.28.31.28.38-.02.1-.09.15-.22.15h-1.14v1.65l.97-.36.05.13-1.02.6v3.31c0,.19-.02.33-.06.44-.04.11-.12.2-.25.28-.13.07-.31.12-.56.15-.03-.21-.09-.35-.17-.43-.13-.11-.36-.18-.68-.21v-.16c.53.04.85.07.95.07.08,0,.13-.01.16-.04.03-.03.04-.08.04-.14v-2.93l-.92.5c-.02.12-.08.2-.17.24l-.34-.75c.23-.07.7-.23,1.42-.48v-1.85h-.42c-.23,0-.46.05-.7.13l-.24-.48c.25.04.56.06.92.07h.42v-.14c0-.78-.04-1.41-.12-1.9.35.1.6.18.73.24s.2.11.2.15c0,.03-.03.06-.08.09l-.17.1v1.45h.33l.16-.26Zm4.82,2.93l.1-.26.19-.5h-3.95c-.03.43-.18.74-.43.92-.09.06-.18.09-.28.09-.08,0-.15-.03-.21-.08-.06-.05-.08-.12-.08-.2,0-.13.07-.25.22-.36.12-.09.24-.23.36-.44s.19-.44.21-.68h.13c.04.16.07.32.08.47h3.96l.15-.18s.04-.05.09-.11c.05-.05.09-.08.14-.08.06,0,.18.09.36.27.18.18.27.31.27.38-.03.03-.08.05-.14.07-.06.01-.13.02-.2.03-.3.28-.58.52-.84.71l-.06-.03c.39.26.58.43.58.51,0,.04-.03.07-.1.09l-.18.06v1.73c0,.17-.02.31-.05.42-.03.1-.11.19-.22.26s-.28.12-.51.14c-.03-.22-.07-.36-.14-.43-.09-.09-.28-.16-.57-.19v-.15c.43.03.69.05.77.05.06,0,.1-.01.13-.04.02-.03.03-.07.03-.13v-1.76h-1.3v1.01c.02.84.04,1.49.07,1.95-.03.06-.1.12-.21.17-.11.05-.21.08-.31.08-.05,0-.09-.02-.13-.06-.04-.04-.06-.08-.06-.13.04-.59.07-1.24.08-1.95v-1.07h-1.21v.81c.01.67.03,1.2.06,1.58-.03.06-.1.11-.2.16-.1.05-.21.08-.33.08-.04,0-.07-.02-.1-.05-.03-.04-.04-.08-.04-.13.02-.23.04-.52.06-.88v-.54c0-.68-.03-1.23-.1-1.64l.72.34h1.15c0-.34-.02-.64-.06-.89.31.1.53.18.66.24.12.06.18.11.18.15,0,.03-.02.05-.08.08l-.15.09v.32h1.22l.28-.33h0Zm-.26-4.44s.03-.05.06-.09.05-.07.08-.09c.02-.02.05-.03.07-.03.06,0,.19.08.37.25.19.16.28.28.28.35-.03.04-.08.07-.14.1-.06.03-.13.05-.2.07v.75c.01.6.03,1.08.06,1.43-.03.06-.11.11-.23.17-.12.06-.23.08-.32.08h-.09v-.36h-1.79c-.45,0-.92.05-1.42.13l-.25-.47c.35.04.76.06,1.25.07h2.21v-.82h-1.52c-.45,0-.92.05-1.42.13l-.25-.47c.35.04.76.06,1.25.07h1.92v-.81h-1.63c-.45,0-.92.05-1.42.13l-.25-.46c.35.04.76.06,1.25.07h1.98l.13-.2Z"/>
        <path class="cls-6" d="m429.52,67.23s.05-.06.09-.11.08-.08.12-.08c.06,0,.17.08.35.25.18.16.26.28.26.35-.03.04-.06.07-.11.08-.05.02-.13.03-.23.05,0,.93-.02,1.58-.07,1.96-.04.38-.13.64-.25.76-.15.15-.36.23-.64.23,0-.19-.03-.31-.1-.39-.06-.07-.19-.13-.38-.16v-.16c.34.02.52.03.55.03.11,0,.18-.02.22-.06.06-.07.1-.27.12-.6s.04-.89.04-1.68l-1.08.4v1c.02.83.04,1.48.07,1.93-.03.06-.1.12-.2.17-.1.05-.2.08-.29.08-.05,0-.09-.02-.13-.06-.04-.04-.06-.08-.06-.13.04-.55.07-1.15.08-1.8v-1l-.98.36v3.03c0,.11.03.18.1.22.07.04.21.06.42.06h1.14c.58,0,.93,0,1.07-.03.06,0,.11-.01.14-.02.03,0,.06-.03.08-.06.08-.09.16-.36.26-.81h.12l.02.82c.11.03.18.07.22.1s.06.09.06.15c0,.1-.05.17-.16.23-.1.05-.3.09-.58.11-.28.02-.7.03-1.26.03h-1.18c-.26,0-.47-.02-.6-.06-.14-.04-.24-.11-.29-.2s-.08-.23-.08-.41v-2.95l-.91.33-.15-.19c-.04.95-.12,1.69-.21,2.22-.1.53-.23.88-.39,1.05-.11.12-.24.21-.39.26s-.32.08-.5.08c0-.2-.05-.34-.14-.42-.09-.09-.32-.16-.69-.22v-.17c.56.05.9.07,1.01.07.08,0,.14,0,.19-.02.04-.01.09-.04.13-.08.25-.25.4-1.53.47-3.84h-1c-.06,1.01-.22,1.89-.46,2.67-.24.77-.64,1.46-1.2,2.06l-.15-.15c.38-.55.65-1.16.83-1.83s.28-1.33.33-1.97c.04-.65.06-1.46.07-2.44h-.35c-.2,0-.4.05-.6.13l-.24-.47c.31.04.68.06,1.11.07h.52c0-.71-.04-1.31-.11-1.79.35.1.59.18.72.24s.2.11.2.15c0,.02-.03.05-.08.08l-.14.09v1.22h.58l.19-.28s.05-.07.09-.12c.04-.05.07-.09.1-.12.02-.03.05-.04.08-.04.04,0,.12.05.24.15.12.1.24.2.34.32.11.11.16.19.16.23-.02.09-.1.14-.24.14h-1.93c-.01.63-.03,1.1-.05,1.41h.91l.14-.19s.05-.06.09-.12c.04-.05.08-.08.12-.08.06,0,.19.08.37.23.18.15.27.27.27.33-.05.07-.17.12-.36.15-.01.41-.02.72-.04.93l1.06-.39v-.8c0-.36-.02-.64-.05-.83.3.1.5.18.62.24.12.06.17.11.17.15,0,.03-.02.06-.08.09l-.15.09v.86l.98-.36v-.83c0-.37-.02-.66-.05-.87.3.09.51.17.64.23s.18.11.18.15c0,.03-.03.06-.08.1l-.16.1v.93l.94-.35.04-.02.13-.19Zm-.09-1.73s.05-.06.08-.12c.04-.05.07-.09.1-.12.03-.03.06-.04.08-.04.04,0,.12.05.25.14.13.1.24.2.35.31s.17.19.17.23c-.02.1-.09.15-.23.15h-3.48c-.38.61-.81,1.09-1.26,1.43l-.12-.1c.28-.33.55-.76.81-1.29.13-.28.25-.62.36-1,.11-.39.17-.71.18-.96.63.2.95.34.95.42,0,.02-.03.04-.08.06l-.17.06c-.13.35-.3.71-.51,1.1h2.33l.19-.28Z"/>
        <path class="cls-6" d="m432.75,66.19c-.34,0-.69.05-1.06.13l-.25-.46c.35.04.76.06,1.25.07h1.51l.17-.25s.05-.06.08-.11c.03-.05.06-.08.09-.11.02-.02.05-.04.08-.04.04,0,.11.04.23.13.12.09.22.18.32.28.1.1.15.17.15.21-.02.09-.1.14-.24.14h-2.34Zm1.19.68s.04-.06.08-.1c.03-.04.06-.08.08-.1s.05-.03.07-.03c.06,0,.19.08.37.24.18.16.27.28.27.34-.03.1-.1.15-.24.15h-1.07c-.45,0-.92.05-1.42.13l-.24-.48c.35.04.76.06,1.25.07h.68l.15-.22Zm-.02,1.18s.03-.05.07-.1c.03-.05.06-.08.08-.11.03-.02.05-.03.08-.03.06,0,.19.08.37.25.18.17.27.28.27.35-.02.09-.09.14-.22.14h-1.07c-.45,0-.92.05-1.42.13l-.24-.47c.35.04.76.06,1.25.07h.65l.16-.23Zm.16,1.18s.03-.05.06-.09.05-.07.08-.09c.02-.02.05-.03.07-.03.04,0,.11.04.23.12.11.08.22.17.31.27.09.1.14.17.14.21-.03.04-.07.07-.14.11-.07.03-.15.06-.24.08v.75c.01.6.03,1.08.06,1.43-.03.05-.11.1-.22.16-.12.06-.22.08-.32.08-.04,0-.07-.02-.09-.06s-.03-.08-.03-.13l.04-.15v-.18h-1.51v.21c.02.22.03.34.04.37-.02.06-.08.11-.18.16-.1.05-.21.08-.33.08-.04,0-.07-.02-.09-.06-.03-.04-.04-.08-.04-.13.02-.25.04-.57.06-.94v-.57c0-.7-.04-1.28-.11-1.74l.71.31h1.38l.14-.2Zm-.13-4.69s.05-.06.08-.1c.02-.04.05-.07.08-.1.03-.03.06-.05.08-.05.04,0,.11.04.23.13.11.09.22.18.32.28.1.1.15.17.15.21-.02.1-.1.15-.24.15h-1.09c-.45,0-.92.05-1.42.13l-.24-.48c.35.04.76.06,1.25.07h.63l.17-.24Zm-1.43,5.17v1.77h1.51v-1.77h-1.51Zm7.5,2.34l-.02.1c-.13.02-.25.07-.35.16-.1.09-.17.21-.22.36-.93-.34-1.69-.81-2.27-1.42-.74.62-1.67,1.1-2.78,1.42l-.08-.14c1.03-.39,1.88-.93,2.56-1.62-.49-.62-.85-1.39-1.09-2.32h-.24c-.11,0-.22.05-.34.13l-.25-.46c.35.04.76.06,1.25.07h2.07l.17-.19s.05-.06.11-.11c.05-.05.1-.08.14-.08.06,0,.18.08.36.25s.27.28.27.35c-.04.04-.08.07-.14.09-.05.02-.13.03-.23.04-.35.88-.81,1.62-1.4,2.2.66.53,1.48.92,2.47,1.17Zm-2.21-7.6s.03-.05.06-.09.05-.07.08-.09c.02-.02.05-.03.07-.03.06,0,.17.09.34.26s.25.29.25.36c-.07.07-.17.12-.3.14v1.92s.01.08.03.1c.02.02.07.02.16.02h.4c.2,0,.32,0,.35,0,.04,0,.06-.01.08-.02.02,0,.03-.03.05-.07.02-.07.08-.31.16-.74l.08-.37h.11l.03,1.13c.08.04.13.07.15.11.02.04.04.08.04.14,0,.13-.08.22-.24.28s-.44.09-.84.09h-.53c-.24,0-.4-.04-.48-.12-.08-.08-.12-.22-.12-.42v-2.12h-1.38v.52c0,.52-.09,1.01-.28,1.47-.19.45-.57.84-1.15,1.15l-.09-.12c.38-.35.64-.72.77-1.13s.19-.86.19-1.37v-.55c0-.22,0-.42-.03-.59l.71.35h1.18l.14-.2Zm-1.84,4.14c.25.77.65,1.42,1.21,1.97.48-.59.85-1.24,1.09-1.97h-2.3Z"/>
      </g>
      <g>
        <line class="cls-3" x1="394.82" y1="90.32" x2="401.14" y2="72.93"/>
        <path d="m396.28,90.77c-.29.79-1.17,1.2-1.96.91-.79-.29-1.2-1.17-.91-1.96s1.16-1.2,1.96-.91c.79.29,1.2,1.17.91,1.96Z"/>
      </g>
      <g>
        <path d="m270.67,71.41c.11-.35.19-.74.26-1.17.07-.43.11-.81.11-1.14.75.18,1.13.31,1.14.41,0,.02-.03.05-.09.09l-.18.09c-.39.85-.71,1.47-.98,1.88.19.12.34.25.44.38s.16.26.18.39c.02.11,0,.21-.05.28-.05.08-.12.12-.21.13-.07,0-.15,0-.26-.06-.11-.24-.29-.49-.55-.74-.26-.26-.52-.47-.79-.64l.09-.12c.34.06.63.14.88.25v-.04Zm2.64,2.19c-.26-.34-.48-.61-.66-.8l.11-.09c.53.21.94.44,1.21.72.27.27.43.54.46.79.02.14,0,.25-.05.35-.05.09-.13.15-.23.16-.11.01-.21-.01-.31-.08-.06-.21-.19-.48-.4-.82-.32.12-.61.23-.88.32l.31,2.32c.14.93.29,1.81.44,2.64-.04.08-.12.16-.23.24s-.24.13-.39.15c-.06,0-.12,0-.17-.05-.06-.04-.09-.09-.09-.14-.03-.45-.06-.88-.09-1.3-.03-.42-.09-.97-.17-1.65l-.26-1.97c-.4.15-.85.3-1.35.45-.04.14-.13.23-.25.26l-.34-.82c.23-.03.61-.1,1.15-.21.22-.45.45-.98.69-1.59.14-.36.27-.75.38-1.16.11-.41.18-.77.21-1.08.72.2,1.09.34,1.1.44,0,.03-.03.06-.1.09l-.19.09c-.2.46-.45.98-.77,1.55-.31.57-.63,1.1-.97,1.58l1.84-.4Zm-1.93,1.98c.28,0,.42.05.43.12,0,.04-.03.08-.11.14l-.18.12c-.08.55-.2,1.07-.34,1.57-.15.5-.33.93-.53,1.28l-.17-.08c.05-.19.11-.47.18-.83.07-.38.11-.8.12-1.27.02-.47,0-.86-.05-1.17l.65.13Zm1.9-.41c.48.25.83.52,1.07.82.24.29.37.57.41.84.02.17,0,.3-.04.41-.05.11-.13.17-.23.18-.11.01-.21-.02-.32-.11-.06-.31-.2-.66-.39-1.03-.2-.38-.41-.72-.64-1.04l.15-.07Zm5.13-4.73s.03-.06.06-.12.06-.09.09-.12c.03-.03.06-.04.09-.05.05,0,.14.03.29.12.15.08.29.18.42.28s.2.18.2.23c-.08.11-.22.19-.43.24.43,4.05.44,6.4.05,7.05-.27.4-.69.64-1.26.72-.04-.27-.14-.45-.3-.53-.09-.06-.25-.1-.48-.13-.23-.03-.51-.05-.85-.08l-.02-.2c.98-.01,1.59-.04,1.83-.07.12-.02.21-.04.27-.07.06-.03.12-.08.19-.16.31-.41.27-2.59-.13-6.54l-3.29.43c-.25.76-.56,1.41-.91,1.96l-.18-.09c.23-.61.42-1.32.57-2.13.07-.38.12-.81.15-1.29.03-.49.03-.88,0-1.19.44.07.75.13.92.18.18.05.27.1.28.14,0,.03-.03.07-.09.1l-.18.11c-.11.66-.25,1.28-.43,1.88l3.02-.4.15-.27Zm-2.99,2.53c.63.23,1.11.51,1.43.84.32.33.5.66.54.97.02.17,0,.3-.05.42-.06.11-.14.17-.26.19-.11.02-.22-.02-.33-.09-.08-.36-.26-.75-.54-1.17-.28-.42-.58-.77-.9-1.07l.12-.08Z"/>
        <path d="m285.07,72.12c.35.18.62.44.84.78.21.34.35.72.4,1.13.07.52.03,1.01-.11,1.48-.14.47-.38.86-.71,1.17-.33.31-.73.5-1.21.56-.49.06-.95-.02-1.38-.25-.43-.23-.79-.59-1.07-1.08s-.47-1.06-.56-1.73c-.14-1.08-.11-2.01.09-2.82.2-.8.5-1.42.91-1.86.4-.44.83-.69,1.26-.75.35-.05.65-.04.92.03.27.07.47.18.62.33.15.15.24.31.26.49.02.16-.02.3-.11.42-.09.12-.22.2-.37.21-.16.02-.31-.03-.44-.15-.14-.12-.23-.3-.28-.52-.04-.17-.1-.29-.19-.37-.09-.07-.22-.1-.39-.08-.39.05-.7.3-.91.75-.22.45-.36.98-.42,1.59-.06.62-.08,1.23-.04,1.84.18-.4.42-.71.72-.95.31-.23.64-.37.99-.42.44-.06.83,0,1.17.18Zm-.14,4.29c.19-.23.32-.53.39-.9s.08-.77.02-1.21c-.11-.8-.33-1.31-.67-1.53-.34-.22-.69-.31-1.04-.26-.31.04-.6.19-.86.45-.27.26-.44.63-.51,1.12.12.83.32,1.52.61,2.05.29.54.74.76,1.36.68.28-.04.51-.17.7-.4Z"/>
        <path d="m287.92,76.6c-.06,0-.1-.04-.11-.16-.01-.1.01-.15.07-.16l.16-.02c.25-.03.46-.15.64-.35.18-.2.25-.43.22-.68l-.79-5.96c-.04-.26-.14-.44-.3-.52s-.42-.1-.77-.05l-.16.02c-.05,0-.09-.04-.1-.15-.01-.11,0-.16.06-.17l2.11-.28,3.68,6.3,2.05-7.06,2.01-.26s.06,0,.08.03c.01.02.03.06.03.12.01.11,0,.16-.07.17l-.17.02c-.35.05-.59.13-.72.26-.13.12-.18.31-.14.57l.81,6.15c.04.26.13.44.3.52.16.08.42.11.75.06l.17-.02c.05,0,.09.04.1.14.02.11,0,.17-.06.18l-3.17.42s-.08-.05-.09-.16c-.01-.1,0-.15.05-.16l.19-.03c.35-.05.59-.13.72-.26s.19-.32.15-.58l-.81-6.1-2.16,7.54-.14.02-3.97-6.74.78,5.92c.03.26.17.46.4.6s.46.2.69.17l.18-.02s.07.04.09.14c.01.11,0,.17-.04.18l-2.73.36Z"/>
        <path d="m301.2,66.78c.33.06.5.13.51.2,0,.04-.03.08-.12.12l-.21.08c-.28.83-.64,1.58-1.08,2.27-.44.69-.93,1.27-1.47,1.75l-.14-.12c.46-.62.86-1.33,1.2-2.12.15-.35.29-.76.42-1.24.12-.48.19-.88.2-1.19l.7.25Zm5.43,6.38c-.55-.7-1.21-1.36-1.96-1.99l.11-.11c.76.34,1.4.71,1.91,1.1.51.39.88.77,1.13,1.12s.39.68.42.95c.02.17,0,.3-.05.4-.05.1-.13.16-.24.17-.1.01-.22-.02-.36-.09-.17-.41-.44-.86-.81-1.35-1.65.58-3.71,1.21-6.18,1.89-.05.13-.14.22-.26.26l-.54-1c.58-.09,1.19-.2,1.82-.32.27-.96.5-2.01.69-3.15.06-.38.11-.78.13-1.19.03-.41.03-.77,0-1.08.46.06.78.12.97.17.19.05.28.1.29.15,0,.03-.03.06-.09.1l-.19.12c-.14.73-.34,1.53-.61,2.41-.26.87-.56,1.68-.88,2.43,1.6-.33,3.17-.66,4.69-.99Zm-.37-5.52c.74.62,1.55,1.08,2.44,1.37v.13c-.16.05-.29.14-.4.28s-.18.27-.2.42c-.85-.45-1.6-1.03-2.26-1.76-.66-.73-1.18-1.55-1.56-2.47l-.99.13c-.53.08-1.09.21-1.67.38l-.38-.52c.42,0,.92-.05,1.51-.11l1.23-.16.28-.6,1.05.57c-.09.15-.33.26-.71.34.38.72.94,1.39,1.67,2.01Z"/>
        <path d="m309.86,64.47c.69.15,1.2.38,1.55.66.35.29.54.58.58.87.02.14,0,.26-.06.36-.06.1-.14.15-.25.16-.1.01-.2-.01-.32-.07-.11-.31-.32-.65-.64-1s-.64-.65-.96-.88l.1-.11Zm1.72,3.96s.04-.09.07-.15.05-.11.07-.14c.02-.03.05-.05.08-.06.05,0,.15.04.32.15.17.1.32.22.47.34.15.12.22.21.23.26-.08.12-.24.21-.49.27l.4,3.04c.29.27.59.46.9.56.31.11.66.16,1.06.16.4,0,.93-.05,1.6-.14,1.99-.26,3.41-.46,4.26-.61l.02.16c-.15.05-.26.13-.33.25-.08.12-.11.26-.11.44l-3.72.49c-.69.09-1.25.12-1.69.1-.43-.03-.81-.13-1.14-.31-.33-.18-.65-.47-.96-.87-.19.28-.41.58-.68.93-.27.34-.49.62-.69.83v.06c.02.11-.01.19-.09.24l-.63-.88c.42-.26.94-.64,1.57-1.14l-.44-3.32-.53.07c-.3.05-.61.14-.93.28l-.35-.55c.31,0,.67-.01,1.09-.05l.51-.07.14-.34Zm6.22-2.39s.04-.08.07-.13c.03-.06.05-.1.08-.12.02-.03.05-.04.08-.04.04,0,.14.04.29.12.15.09.29.18.42.29.13.11.2.19.2.24-.07.12-.21.21-.41.28l.27,2.08c.14.93.28,1.81.44,2.64-.04.08-.13.17-.27.25-.14.09-.27.14-.39.15-.05,0-.08-.01-.11-.05-.03-.04-.05-.09-.05-.15,0,0,.01-.07.02-.2l-.03-.21-3.46.46.06.45s-.05.11-.16.19c-.11.08-.24.13-.37.15-.06,0-.12,0-.17-.05-.05-.04-.08-.09-.09-.15-.04-.68-.1-1.43-.19-2.25l-.16-1.23c-.12-.95-.28-1.71-.45-2.29l.95.31.88-.12c.03-.37.03-.73,0-1.07l-.89.12c-.53.08-1.07.2-1.63.38l-.36-.55c.42,0,.92-.04,1.51-.11l2.43-.32c.09-.33.17-.67.22-1.04.06-.37.08-.69.06-.96.45.07.76.13.94.18s.27.1.28.14c0,.02-.03.05-.09.09l-.19.11c-.26.49-.56.97-.91,1.44l1.49-.2.18-.36s.05-.1.09-.17c.03-.07.06-.12.09-.16.03-.03.05-.05.08-.06.05,0,.15.04.32.14.17.1.32.2.47.32.15.11.22.2.23.25,0,.12-.09.19-.25.21l-3.23.43c-.11.41-.24.79-.38,1.12l1.95-.26.15-.28Zm-4.2-2.44c.46.1.82.25,1.05.46.24.21.37.42.4.64.02.14,0,.26-.07.36s-.15.16-.26.17c-.11.01-.22-.02-.34-.09-.04-.25-.15-.5-.32-.77-.17-.26-.36-.49-.57-.69l.12-.08Zm4.36,4.18l-.15-1.15-3.46.46.15,1.15,3.46-.46Zm.04.34l-3.46.46.15,1.15,3.46-.46-.15-1.15Zm-3.27,1.95l.17,1.25,3.46-.46-.17-1.25-3.46.46Z"/>
      </g>
      <g>
        <path d="m182.51,485.27c.29.05.44.11.44.18,0,.04-.04.08-.13.13l-.21.1c-.16.57-.36,1.11-.58,1.62-.23.51-.48.94-.74,1.29l-.17-.11c.08-.2.18-.48.3-.85.12-.39.23-.83.31-1.33s.12-.92.12-1.25l.67.23Zm2.33-1.83c-.23-.4-.42-.71-.59-.94l.13-.08c.54.29.93.6,1.18.93s.38.63.38.91c0,.15-.03.27-.1.36-.07.09-.16.14-.26.14-.11,0-.22-.04-.32-.13-.03-.23-.13-.54-.31-.93-.36.08-.68.15-.98.22v2.51c.02,1.01.05,1.96.1,2.87-.06.08-.15.16-.28.22-.13.07-.28.1-.44.1-.06,0-.12-.03-.18-.08s-.08-.11-.08-.16c.03-.48.06-.95.09-1.4s.04-1.04.05-1.77v-2.13c-.45.1-.95.2-1.5.29-.06.15-.17.23-.3.24l-.24-.91c.24,0,.66-.02,1.26-.06.3-.45.62-.98.95-1.6.2-.37.39-.76.56-1.18.17-.42.3-.79.38-1.12.74.31,1.11.52,1.11.62,0,.03-.04.06-.12.09l-.22.07c-.28.46-.62.98-1.03,1.54-.41.56-.83,1.08-1.25,1.55l2.01-.17Zm-2.5-2.7c.16-.36.31-.76.44-1.21.13-.45.23-.84.27-1.19.77.29,1.16.49,1.16.6,0,.02-.04.05-.11.08l-.21.07c-.53.85-.96,1.46-1.3,1.85.19.15.33.31.41.46s.13.3.13.44c0,.12-.03.22-.09.29-.06.07-.14.11-.24.11-.07,0-.16-.03-.27-.1-.08-.27-.24-.56-.48-.87-.24-.31-.49-.57-.75-.79l.11-.11c.35.11.65.24.9.39v-.04Zm2.24,4.35c.47.33.81.67,1.02,1.02.21.35.32.66.32.95,0,.18-.03.32-.1.43-.07.11-.16.16-.27.16s-.22-.05-.33-.16c-.02-.34-.12-.73-.27-1.15s-.34-.82-.53-1.19l.17-.05Zm6.11-4.3s.04-.06.09-.12.08-.09.11-.12c.03-.02.06-.04.1-.04.05,0,.15.05.29.16.15.11.28.23.4.35.12.13.18.22.18.27-.1.11-.26.17-.49.2-.11,4.37-.43,6.86-.94,7.5-.34.39-.82.59-1.44.59,0-.29-.08-.5-.24-.61-.09-.07-.25-.14-.49-.2-.24-.06-.54-.13-.9-.2v-.22c1.05.12,1.7.18,1.96.18.13,0,.23-.01.29-.04s.14-.07.22-.15c.39-.39.65-2.71.78-6.96h-3.56c-.37.77-.79,1.42-1.24,1.95l-.18-.12c.33-.62.63-1.34.9-2.18.13-.39.24-.84.34-1.35.1-.51.15-.93.16-1.27.46.14.77.25.96.32.18.08.27.14.27.19,0,.03-.04.06-.11.1l-.21.08c-.21.68-.45,1.33-.72,1.94h3.27l.19-.27Zm-3.54,2.27c.64.33,1.11.7,1.4,1.1.29.4.44.77.44,1.11,0,.18-.04.32-.12.43-.08.11-.18.16-.3.16s-.24-.05-.34-.15c-.03-.4-.17-.84-.41-1.32s-.51-.9-.81-1.26l.13-.07Z"/>
        <path d="m193.73,488.68c-.06,0-.09-.06-.09-.17,0-.12.03-.18.09-.18h.19c.4,0,.72-.06.96-.18s.37-.31.37-.57v-5.84c0-.24-.02-.41-.07-.49-.04-.08-.15-.14-.32-.17-.17-.03-.48-.04-.93-.04h-.21c-.06,0-.09-.06-.09-.18,0-.11.03-.17.09-.17.51,0,.97-.08,1.37-.23.4-.15.78-.39,1.13-.73v7.85c0,.5.44.76,1.33.76h.18s.05.01.07.04.02.08.02.14c0,.11-.03.17-.09.17h-4.01Z"/>
        <path d="m203.73,488.68h-4.44l-.12-.27c.23-.63.52-1.2.87-1.71.35-.51.82-1.12,1.4-1.83.59-.69,1.02-1.26,1.29-1.71s.4-.91.4-1.38c0-.44-.12-.83-.37-1.16-.24-.33-.63-.5-1.15-.5-.38,0-.71.1-.98.29-.27.19-.4.42-.4.7,0,.11.01.2.04.27s.08.15.14.24c.06.09.1.17.13.24.03.07.04.15.04.25,0,.2-.06.35-.18.47-.12.12-.27.18-.46.18-.16,0-.31-.08-.44-.24s-.2-.38-.2-.65c0-.3.09-.62.27-.95.18-.33.46-.62.83-.85.37-.23.82-.35,1.36-.35.59,0,1.06.12,1.41.35.36.23.61.52.76.87s.23.71.23,1.08c0,.34-.06.64-.17.9-.11.26-.27.49-.46.71-.2.21-.49.5-.88.86-.09.09-.2.2-.34.32-.14.12-.3.27-.48.45-.81.82-1.42,1.67-1.83,2.55h1.45c.59,0,1.04-.03,1.33-.1.29-.07.51-.19.67-.37.15-.18.3-.47.44-.87.02-.05.04-.07.09-.07,0,0,.04,0,.11.02.05.02.09.03.11.05.02.02.04.04.04.07v.06s-.52,2.1-.52,2.1Z"/>
        <path d="m205.61,488.68c-.06,0-.1-.06-.1-.18,0-.11.03-.16.1-.16h.17c.27,0,.51-.09.73-.28.22-.19.33-.42.33-.7v-6.44c0-.28-.08-.48-.25-.59-.17-.11-.44-.16-.81-.16h-.17c-.06,0-.09-.06-.09-.17s.03-.17.09-.17h2.28l3.02,7.21,3.17-7.21h2.17s.07.01.08.04c.01.03.02.07.02.13,0,.11-.03.17-.1.17h-.18c-.38,0-.65.06-.8.17-.15.11-.23.31-.23.59v6.64c0,.29.08.48.24.6s.43.17.79.17h.18c.06,0,.09.05.09.16,0,.12-.03.18-.09.18h-3.43s-.07-.06-.07-.18c0-.11.02-.16.07-.16h.21c.37,0,.64-.06.8-.18.16-.12.24-.32.24-.59v-6.6l-3.35,7.71h-.15l-3.27-7.72v6.4c0,.28.11.51.34.7.23.19.46.28.71.28h.2s.07.05.07.16c0,.12-.02.18-.07.18h-2.95Z"/>
        <path d="m221.09,480.11c.34.11.51.21.51.28,0,.05-.05.09-.15.11l-.23.06c-.42.84-.9,1.59-1.47,2.26-.56.67-1.17,1.22-1.81,1.65l-.13-.15c.58-.59,1.1-1.29,1.57-2.08.21-.35.42-.77.62-1.26s.33-.9.38-1.24l.71.37Zm4.88,7.54c-.49-.82-1.09-1.62-1.8-2.39l.13-.1c.76.47,1.39.95,1.87,1.44.48.49.83.94,1.04,1.35.21.42.32.77.32,1.07,0,.18-.03.32-.1.41-.07.1-.16.15-.27.15-.11,0-.23-.05-.37-.15-.12-.46-.35-.98-.67-1.55-1.83.38-4.1.76-6.83,1.15-.07.13-.18.21-.32.24l-.44-1.13c.63-.02,1.29-.04,1.98-.08.42-.98.81-2.07,1.17-3.26.12-.4.23-.81.31-1.25.09-.43.14-.82.15-1.15.48.13.81.24,1.01.32s.29.15.29.2c0,.03-.04.07-.11.1l-.22.1c-.25.76-.58,1.58-.98,2.47-.4.89-.83,1.71-1.27,2.46,1.75-.12,3.45-.25,5.12-.39Zm.38-5.92c.69.76,1.49,1.36,2.4,1.8l-.02.13c-.17.03-.32.11-.46.24-.13.13-.23.27-.27.42-.84-.59-1.55-1.32-2.15-2.19-.6-.87-1.03-1.82-1.31-2.85h-1.07c-.58,0-1.19.07-1.83.17l-.33-.61c.45.05.99.08,1.62.1h1.33l.38-.6,1.04.76c-.11.15-.38.23-.8.26.3.82.8,1.61,1.49,2.37Z"/>
        <path d="m231.88,483.32s.05-.09.09-.15c.04-.06.07-.11.1-.14.03-.03.06-.05.09-.05.05,0,.15.07.32.2.16.13.31.28.45.43s.21.25.21.31c-.1.11-.29.19-.56.22v3.28c.27.33.56.57.87.73.31.16.68.26,1.1.32.42.05,1,.08,1.72.08,2.15,0,3.68-.02,4.61-.05v.17c-.16.03-.29.11-.39.22-.1.11-.16.26-.18.45h-4.02c-.75,0-1.35-.04-1.8-.13-.46-.09-.85-.25-1.17-.49s-.63-.59-.9-1.05c-.24.27-.52.57-.85.89-.33.33-.61.59-.85.78v.06c0,.11-.04.2-.13.24l-.55-1.02c.48-.22,1.09-.55,1.83-.99v-3.58h-.57c-.33,0-.67.07-1.02.17l-.29-.63c.33.05.72.08,1.17.1h.55l.2-.34Zm-1.27-4.45c.71.26,1.23.57,1.55.92s.49.69.49,1.01c0,.16-.04.28-.12.37-.08.09-.17.14-.29.14-.11,0-.22-.04-.33-.12-.07-.35-.25-.73-.54-1.15-.28-.42-.59-.77-.9-1.07l.12-.1Zm8.21,2.78s.05-.08.09-.13.07-.1.1-.12c.03-.02.06-.04.09-.04.05,0,.15.06.29.17.15.11.28.24.4.37.12.13.18.22.18.28-.09.11-.25.2-.48.24v2.24c.02,1.01.05,1.96.1,2.87-.06.08-.17.16-.32.23-.16.07-.3.11-.43.11-.05,0-.09-.02-.11-.07s-.04-.11-.04-.17c0,0,.02-.08.05-.21v-.23h-3.74v.49s-.07.11-.2.18-.27.1-.41.1c-.06,0-.12-.02-.17-.07s-.07-.11-.07-.17c.06-.73.09-1.54.11-2.41v-1.33c0-1.02-.05-1.86-.16-2.5l.96.46h.95c.08-.39.13-.77.16-1.13h-.96c-.57,0-1.16.07-1.78.17l-.31-.63c.45.05.99.08,1.62.1h2.62c.15-.33.27-.69.38-1.07.11-.38.18-.72.2-1.01.46.14.79.25.97.32.18.08.27.14.27.19,0,.02-.04.05-.11.09l-.22.08c-.34.49-.73.96-1.17,1.4h1.61l.24-.35s.07-.1.12-.17c.04-.07.08-.12.12-.15.03-.03.06-.05.1-.05.05,0,.15.06.32.19s.31.26.45.4.21.24.21.3c-.02.13-.12.19-.29.19h-3.49c-.18.42-.37.8-.56,1.13h2.11l.2-.28Zm-4.12-3.18c.48.17.83.38,1.05.63.22.25.33.5.33.73,0,.15-.04.28-.12.38-.08.1-.18.15-.3.15-.11,0-.23-.05-.35-.15,0-.27-.09-.55-.23-.86-.15-.3-.32-.58-.51-.81l.13-.07Zm4.05,5.05v-1.24h-3.74v1.24h3.74Zm0,.37h-3.74v1.24h3.74v-1.24Zm-3.74,1.61v1.35h3.74v-1.35h-3.74Z"/>
      </g>
      <g>
        <path d="m187.99,143.6c.26.04.39.1.39.16,0,.04-.04.08-.12.12l-.19.09c-.15.51-.32.99-.52,1.44-.2.45-.42.84-.66,1.15l-.15-.1c.07-.17.16-.43.27-.76.11-.35.2-.75.28-1.19.08-.45.11-.82.1-1.12l.6.21Zm2.08-1.63c-.2-.36-.38-.64-.52-.84l.12-.08c.48.26.83.54,1.06.83.23.29.34.56.34.81,0,.13-.03.24-.09.32-.06.08-.14.12-.23.12-.1,0-.2-.04-.28-.12-.03-.2-.12-.48-.27-.83-.32.07-.61.14-.87.2v2.25c.01.9.04,1.75.09,2.56-.05.07-.13.14-.25.2s-.25.09-.39.09c-.06,0-.11-.02-.16-.07-.05-.05-.07-.1-.07-.15.03-.43.05-.84.08-1.25.02-.4.04-.93.04-1.59v-1.91c-.4.09-.85.17-1.34.26-.06.13-.15.2-.27.22l-.22-.82c.22,0,.59-.02,1.12-.05.27-.4.55-.88.85-1.43.18-.33.35-.68.5-1.05s.27-.71.34-1c.66.28.99.46.99.56,0,.03-.04.05-.11.08l-.2.07c-.25.41-.55.87-.92,1.37-.37.5-.74.96-1.12,1.38l1.8-.15Zm-2.23-2.41c.15-.32.28-.68.4-1.08.12-.4.2-.75.25-1.07.69.26,1.04.44,1.04.53,0,.02-.03.05-.1.08l-.19.06c-.47.76-.86,1.31-1.17,1.66.17.14.29.28.37.41s.12.27.12.39c0,.11-.03.2-.08.26-.05.07-.12.1-.21.1-.07,0-.15-.03-.24-.09-.07-.24-.22-.5-.43-.77-.21-.28-.44-.51-.67-.71l.1-.1c.31.09.58.21.81.35v-.03Zm2,3.89c.42.3.73.6.92.91s.28.59.28.84c0,.16-.03.29-.09.38-.06.09-.14.14-.25.14s-.2-.05-.29-.14c-.02-.3-.1-.65-.25-1.03-.14-.38-.3-.74-.47-1.06l.15-.04Zm5.46-3.85s.04-.06.08-.1c.04-.05.07-.08.1-.1.03-.02.06-.03.09-.03.04,0,.13.05.26.15.13.1.25.2.36.32.11.11.16.2.16.25-.09.09-.23.15-.44.17-.1,3.9-.38,6.14-.84,6.7-.31.35-.73.52-1.29.52,0-.26-.07-.44-.22-.54-.08-.07-.23-.13-.44-.18-.21-.05-.48-.12-.8-.18v-.2c.94.11,1.52.16,1.75.16.12,0,.2-.01.26-.03.06-.02.12-.07.2-.13.35-.35.58-2.42.7-6.22h-3.18c-.33.69-.7,1.27-1.11,1.74l-.16-.11c.3-.55.57-1.2.81-1.95.12-.35.22-.75.31-1.21.09-.46.13-.83.14-1.13.41.12.69.22.86.29.16.07.25.13.25.17,0,.03-.03.06-.1.09l-.19.08c-.19.61-.4,1.19-.64,1.73h2.92l.17-.24Zm-3.16,2.03c.57.3.99.62,1.25.98.26.36.39.69.39.99,0,.16-.03.29-.1.39-.07.1-.16.15-.27.15s-.21-.04-.31-.13c-.03-.36-.15-.75-.37-1.18-.21-.43-.46-.81-.72-1.13l.12-.07Z"/>
        <path d="m192.5,153.8c.34.14.64.4.9.78.26.38.39.91.39,1.58,0,.53-.12,1-.36,1.41-.24.41-.54.72-.92.94-.37.22-.74.33-1.12.33-.33,0-.66-.06-.99-.19-.32-.12-.59-.31-.8-.56-.21-.25-.31-.54-.31-.88,0-.24.05-.41.16-.52s.22-.16.35-.16c.15,0,.29.04.41.13.12.08.19.21.19.39,0,.09-.02.21-.07.34l-.03.13c-.01.06-.02.11-.02.16,0,.26.1.46.31.59.21.13.44.2.69.2.28,0,.53-.09.76-.28s.42-.45.56-.78c.14-.34.21-.73.21-1.17,0-.66-.13-1.19-.4-1.59s-.63-.6-1.08-.6c-.54,0-1.06.35-1.55,1.05l-.32-.21.15-4.12h3.83l-.15.82h-3.32l-.12,2.86c.3-.31.58-.53.85-.66.27-.13.55-.19.85-.19s.59.07.93.21Z"/>
        <path d="m191.17,169.57c-.12-.12-.17-.25-.17-.41s.06-.31.17-.42c.12-.11.25-.17.41-.17.17,0,.31.06.43.17s.17.25.17.41-.06.3-.17.41-.26.17-.43.17-.3-.06-.41-.17Z"/>
        <path d="m192.3,176.26c.35.2.64.38.87.54.23.17.42.38.58.64.16.26.24.57.24.93,0,.44-.11.84-.34,1.18-.23.34-.53.61-.89.8-.36.19-.74.28-1.13.28-.41,0-.81-.09-1.18-.26-.37-.17-.67-.42-.9-.73-.23-.31-.34-.67-.34-1.07,0-.34.07-.63.22-.87.15-.24.34-.45.58-.62.24-.17.55-.37.95-.58-.48-.25-.85-.52-1.12-.82s-.4-.72-.4-1.25c0-.32.08-.63.23-.93.15-.3.39-.55.7-.74.31-.19.69-.29,1.13-.29.36,0,.69.07,1,.21s.56.35.76.63.29.6.29.97c0,.43-.13.79-.4,1.08-.27.29-.62.55-1.06.78l.21.12Zm.43,3.51c.29-.32.43-.74.43-1.24,0-.28-.09-.53-.28-.76-.19-.23-.41-.42-.67-.59-.26-.16-.59-.35-1.01-.57-.34.24-.62.53-.83.87-.21.34-.32.7-.32,1.07,0,.29.06.56.17.82.12.26.28.47.5.63.22.16.48.25.78.25.52,0,.93-.16,1.22-.49Zm-2.39-4.93c.14.21.32.39.54.54.22.15.54.36.96.61.6-.44.89-1.01.89-1.7,0-.22-.04-.44-.13-.66-.09-.23-.23-.42-.42-.57s-.45-.23-.76-.23c-.28,0-.52.07-.71.21-.19.14-.34.31-.43.51-.09.2-.14.39-.14.57,0,.28.07.52.21.72Z"/>
        <path d="m186.79,191.37c-.06,0-.09-.05-.09-.16,0-.09.03-.14.09-.14h.15c.24,0,.46-.08.65-.25s.29-.37.29-.62v-5.75c0-.25-.07-.43-.22-.53-.15-.1-.39-.15-.72-.15h-.15c-.05,0-.08-.05-.08-.15s.03-.15.08-.15h2.04l2.7,6.44,2.83-6.44h1.94s.06.01.07.04c.01.03.02.06.02.11,0,.1-.03.15-.09.15h-.16c-.34,0-.58.05-.72.15-.14.1-.21.28-.21.52v5.94c0,.25.07.43.22.53.15.1.38.15.71.15h.16c.05,0,.08.05.08.14,0,.11-.03.16-.08.16h-3.06s-.07-.05-.07-.16c0-.09.02-.14.07-.14h.19c.33,0,.57-.05.72-.16.15-.1.22-.28.22-.53v-5.9l-3,6.89h-.13l-2.92-6.9v5.72c0,.25.1.45.31.62.2.17.41.25.63.25h.17s.06.05.06.14c0,.11-.02.16-.06.16h-2.64Z"/>
        <path d="m188.41,197.66s.05-.08.08-.14.06-.1.09-.12.05-.04.08-.04c.04,0,.14.06.28.18.15.12.28.25.4.38s.19.23.19.28c-.09.1-.25.17-.5.2v2.93c.24.29.5.51.78.65.28.14.61.24.99.28.38.05.89.07,1.54.07,1.92,0,3.29-.01,4.12-.04v.15c-.15.03-.26.09-.35.2-.09.1-.14.24-.16.4h-3.6c-.67,0-1.21-.04-1.61-.12-.41-.08-.76-.23-1.05-.44-.29-.21-.56-.53-.81-.94-.21.24-.46.5-.76.8-.29.29-.55.52-.76.7v.05c0,.1-.04.17-.12.22l-.49-.92c.43-.2.97-.49,1.63-.88v-3.2h-.51c-.29,0-.6.06-.92.15l-.26-.57c.29.04.64.07,1.05.09h.49l.17-.3Zm-1.13-3.98c.63.23,1.09.51,1.39.82s.44.62.44.9c0,.14-.03.25-.1.33-.07.08-.15.12-.26.12-.09,0-.19-.04-.29-.11-.07-.31-.23-.66-.48-1.03-.25-.37-.52-.69-.81-.95l.11-.09Zm7.33,2.49s.05-.07.08-.12.06-.09.09-.11c.03-.02.05-.03.08-.03.04,0,.13.05.26.15s.25.21.36.33c.11.12.16.2.16.25-.08.1-.22.17-.42.22v2c.01.9.04,1.75.09,2.56-.05.07-.15.14-.29.21s-.27.1-.39.1c-.04,0-.08-.02-.1-.07-.02-.04-.03-.09-.03-.15,0,0,.02-.07.04-.19v-.21h-3.35v.44s-.06.1-.17.16c-.12.06-.24.09-.37.09-.06,0-.11-.02-.15-.07-.04-.04-.07-.09-.07-.15.05-.65.08-1.37.1-2.16v-1.19c0-.92-.05-1.66-.14-2.23l.86.41h.85c.07-.35.12-.69.14-1.01h-.86c-.51,0-1.04.06-1.59.15l-.27-.57c.4.04.88.07,1.45.09h2.34c.13-.3.25-.62.34-.96s.16-.64.18-.9c.41.12.7.22.87.29.16.07.25.13.25.17,0,.02-.03.05-.1.08l-.2.08c-.31.44-.65.85-1.05,1.25h1.44l.22-.32s.06-.08.1-.15c.04-.06.07-.11.1-.14s.06-.04.09-.04c.04,0,.14.06.28.17.15.11.28.23.4.36.12.13.19.22.19.27-.02.12-.11.17-.26.17h-3.12c-.16.38-.33.71-.5,1.01h1.89l.17-.25Zm-3.68-2.84c.43.15.74.34.94.57.2.23.3.44.3.65,0,.14-.04.25-.11.34s-.16.13-.27.13c-.1,0-.21-.04-.32-.13,0-.24-.08-.5-.21-.77s-.28-.51-.46-.72l.12-.07Zm3.62,4.51v-1.11h-3.35v1.11h3.35Zm0,.33h-3.35v1.11h3.35v-1.11Zm-3.35,1.44v1.21h3.35v-1.21h-3.35Z"/>
        <path d="m189.23,212.44c.19-.04.62-.16,1.29-.34l.38-.1.04.16-.24.11c-1.16.52-2.31,1-3.46,1.45-.01.06-.04.11-.09.16-.04.05-.09.08-.14.09l-.36-.92c.25-.05.47-.1.65-.14v-1.92c0-.83-.04-1.49-.12-1.97.64.2.96.34.96.44,0,.02-.03.05-.08.09l-.16.1v3.13l.68-.16v-4.7h-.65v.3s-.05.08-.16.14c-.11.05-.23.08-.38.08-.05,0-.09-.02-.13-.07-.03-.04-.05-.09-.05-.15.03-.28.05-.62.07-1.05v-.64c0-.83-.04-1.48-.12-1.96l.89.4h1.57l.15-.21s.06-.06.1-.12c.05-.06.09-.09.14-.09s.13.04.26.13c.13.09.25.18.36.28s.16.18.16.23c-.09.1-.23.17-.44.22v.89c.01.73.04,1.31.07,1.73-.04.06-.13.11-.26.17-.13.05-.25.08-.35.08h-.1v-.38h-.5v1.7h.4l.2-.31s.05-.07.09-.13c.04-.06.07-.1.1-.13.03-.03.06-.04.09-.04.04,0,.13.05.26.16.13.11.25.22.35.34.11.12.16.21.16.26-.03.12-.12.17-.27.17h-1.38v2.51Zm-1.3-7.15v2.3h1.8v-2.3h-1.8Zm8.6,4.37l-.03.12c-.31.09-.49.28-.54.59-.18-.07-.39-.17-.62-.28.2.2.29.33.29.39-.09.09-.22.15-.38.17v1.1c.02.93.05,1.65.08,2.15-.04.07-.13.13-.25.19-.12.06-.26.09-.4.09-.04,0-.08-.02-.1-.07-.03-.04-.04-.09-.04-.15l.04-.26v-.25h-2.58v.53s-.05.08-.16.14c-.11.05-.23.08-.39.08-.05,0-.1-.02-.15-.07-.05-.04-.07-.09-.07-.15.03-.38.05-.75.07-1.12.02-.37.03-.83.04-1.39v-1.37c-.36.2-.77.39-1.25.58l-.11-.16c1.21-.58,2.22-1.37,3.03-2.37-.33-.44-.62-.96-.87-1.56-.46.66-.95,1.18-1.47,1.56l-.15-.13c.41-.43.77-.97,1.1-1.61.17-.32.32-.71.47-1.16.15-.45.23-.83.26-1.13.7.25,1.05.41,1.05.5,0,.04-.04.07-.11.09l-.21.07c-.07.2-.17.44-.31.72h1.61l.21-.22s.06-.07.13-.13c.06-.07.11-.1.16-.1.07,0,.2.1.4.29.2.2.3.33.3.41-.04.05-.1.09-.16.1-.06.02-.15.03-.28.04-.36.86-.84,1.62-1.43,2.3.75.66,1.69,1.15,2.83,1.47Zm-1.85.38s.05-.07.08-.11c.03-.05.06-.08.08-.1-.57-.33-1.07-.75-1.5-1.24-.54.56-1.17,1.04-1.86,1.44l.63.26h2.43l.14-.24Zm-2.69,3.08h2.58v-2.52h-2.58v2.52Zm1.31-5.34c.44-.6.81-1.26,1.09-1.99h-1.78c-.05.11-.16.29-.33.56.3.57.64,1.05,1.01,1.44Z"/>
      </g>
      <g>
        <path d="m567.47,115.22c.1-.33.19-.71.26-1.12.07-.41.11-.77.11-1.09.72.17,1.08.31,1.09.4,0,.02-.03.05-.09.09l-.18.09c-.38.81-.69,1.41-.95,1.79.18.12.32.24.42.37.1.13.15.25.17.37.01.11,0,.2-.05.27-.05.07-.11.11-.2.12-.06,0-.15-.01-.25-.06-.1-.23-.28-.47-.52-.71-.25-.25-.5-.45-.75-.62l.08-.11c.32.05.6.14.84.25v-.03Zm2.52,2.11c-.25-.33-.45-.58-.62-.77l.11-.09c.51.2.89.43,1.15.7s.41.52.44.76c.02.13,0,.24-.05.33-.05.09-.12.14-.22.15-.1.01-.2-.01-.3-.08-.05-.2-.18-.46-.37-.79-.31.11-.59.21-.84.3l.28,2.23c.13.89.26,1.74.4,2.53-.04.08-.12.16-.22.23-.11.08-.23.12-.38.14-.06,0-.11,0-.17-.05s-.08-.09-.09-.14c-.02-.43-.05-.84-.08-1.25s-.08-.93-.15-1.58l-.24-1.89c-.39.14-.82.28-1.3.42-.04.14-.12.22-.24.25l-.32-.78c.22-.03.59-.09,1.11-.19.22-.43.44-.94.67-1.52.14-.35.26-.72.37-1.11.1-.39.18-.73.21-1.03.69.19,1.04.33,1.05.43,0,.03-.03.06-.1.09l-.19.09c-.19.44-.44.93-.74,1.48-.3.54-.61,1.05-.94,1.51l1.77-.38Zm-1.86,1.88c.27.01.4.05.41.11,0,.04-.03.08-.1.13l-.17.11c-.08.52-.19,1.02-.34,1.5s-.32.88-.52,1.22l-.16-.08c.05-.18.11-.45.18-.79.07-.36.11-.77.13-1.22.02-.45,0-.83-.04-1.12l.62.13Zm1.82-.38c.46.24.8.51,1.02.79.23.28.35.55.39.8.02.16,0,.29-.04.39-.05.1-.12.16-.23.17-.1.01-.2-.02-.31-.1-.06-.3-.18-.63-.37-.99-.19-.36-.39-.69-.6-1l.15-.06Zm4.94-4.5s.03-.06.06-.11c.03-.05.06-.09.08-.12.03-.03.05-.04.08-.04.04,0,.14.03.28.11.14.08.27.17.4.27.12.1.19.17.19.22-.08.1-.21.18-.41.23.38,3.88.38,6.13,0,6.75-.26.38-.66.61-1.21.68-.03-.26-.13-.43-.28-.51-.09-.05-.24-.1-.46-.12-.22-.03-.49-.05-.82-.08v-.2c.92,0,1.51-.03,1.74-.05.12-.01.2-.04.26-.06.05-.03.11-.08.18-.15.3-.39.28-2.48-.08-6.26l-3.16.4c-.25.73-.54,1.35-.89,1.87l-.18-.09c.23-.58.41-1.26.56-2.04.07-.36.12-.77.15-1.24s.03-.85,0-1.14c.42.07.71.13.88.18.17.05.26.09.26.14,0,.03-.03.06-.09.1l-.17.1c-.11.63-.25,1.23-.42,1.8l2.9-.36.14-.26Zm-2.88,2.4c.61.22,1.06.5,1.37.82.3.32.47.63.51.94.02.16,0,.29-.05.4-.06.11-.14.17-.25.18-.11.01-.21-.02-.32-.09-.07-.35-.24-.73-.51-1.13-.27-.4-.55-.75-.86-1.03l.11-.08Z"/>
        <path d="m574.47,128.96c.33.17.59.43.8.75s.33.69.38,1.08c.06.5.02.97-.11,1.42-.14.45-.37.82-.68,1.12-.32.3-.7.47-1.16.53-.47.06-.91-.02-1.32-.25-.41-.23-.75-.57-1.02-1.04s-.45-1.02-.53-1.66c-.13-1.03-.1-1.93.1-2.7.2-.77.49-1.36.88-1.78.39-.42.79-.65,1.21-.71.33-.04.62-.03.88.04s.45.17.59.32c.14.14.22.3.25.47.02.15-.02.29-.11.4s-.21.19-.35.2c-.15.02-.29-.03-.42-.15-.13-.12-.22-.29-.26-.5-.04-.16-.09-.28-.18-.35s-.21-.09-.37-.07c-.37.05-.67.28-.88.71-.21.43-.35.93-.41,1.52-.07.59-.08,1.18-.05,1.76.17-.38.41-.68.7-.9.29-.22.61-.35.95-.39.42-.05.79,0,1.12.18Zm-.16,4.11c.18-.22.31-.51.38-.86.07-.35.08-.74.03-1.16-.1-.76-.31-1.25-.63-1.47-.32-.22-.65-.3-.99-.26-.3.04-.57.18-.83.43-.26.25-.42.6-.5,1.07.11.8.3,1.46.57,1.97.27.51.71.74,1.3.66.27-.03.49-.16.67-.38Z"/>
        <path d="m570.17,145.13c-.06,0-.09-.04-.11-.15-.01-.09.01-.14.07-.15l.15-.02c.24-.03.44-.14.62-.33.17-.19.25-.41.21-.65l-.72-5.71c-.03-.25-.13-.42-.29-.5-.16-.08-.41-.1-.74-.06l-.15.02c-.05,0-.08-.04-.09-.14-.01-.1,0-.16.06-.16l2.02-.25,3.48,6.05,2.01-6.74,1.92-.24s.06,0,.08.03.02.06.03.11c.01.1,0,.16-.07.16l-.16.02c-.34.04-.57.12-.69.24-.12.12-.17.3-.14.54l.74,5.89c.03.25.13.42.28.5s.4.1.72.06l.16-.02c.05,0,.08.04.09.13.01.11,0,.17-.06.17l-3.04.38s-.07-.05-.08-.15c-.01-.09,0-.14.05-.15l.18-.02c.33-.04.56-.12.69-.25.13-.12.18-.31.15-.55l-.73-5.85-2.12,7.21-.13.02-3.76-6.48.71,5.68c.03.25.16.44.38.58.22.14.44.2.66.17l.17-.02s.07.04.08.13c.01.11,0,.17-.04.17l-2.62.33Z"/>
        <path d="m573.45,148.17c.32.06.48.13.49.19,0,.04-.03.08-.12.11l-.2.08c-.27.79-.63,1.51-1.05,2.17-.43.66-.9,1.21-1.42,1.67l-.14-.11c.45-.59.83-1.26,1.16-2.02.15-.33.28-.73.41-1.19.12-.46.19-.84.2-1.14l.67.25Zm5.16,6.14c-.52-.67-1.15-1.31-1.87-1.92l.11-.1c.73.33,1.34.69,1.82,1.07.48.38.84.74,1.07,1.08.23.34.37.65.4.92.02.16,0,.28-.05.38-.05.09-.13.15-.23.16-.09.01-.21-.02-.34-.09-.16-.4-.42-.83-.77-1.3-1.58.54-3.56,1.13-5.93,1.77-.05.12-.13.21-.25.25l-.52-.96c.56-.08,1.14-.18,1.74-.29.27-.92.49-1.92.68-3.02.06-.37.11-.75.14-1.14.03-.4.03-.74,0-1.04.44.06.75.12.93.17.18.05.27.1.28.14,0,.03-.03.06-.09.1l-.18.11c-.14.7-.34,1.46-.6,2.3-.26.83-.54,1.61-.86,2.32,1.54-.3,3.04-.61,4.5-.92Zm-.32-5.29c.7.6,1.48,1.04,2.32,1.33v.12c-.15.05-.28.13-.39.26-.1.13-.17.26-.2.4-.81-.43-1.53-1-2.15-1.7s-1.12-1.5-1.48-2.38l-.95.12c-.51.07-1.05.19-1.6.35l-.36-.5c.4,0,.88-.04,1.45-.09l1.18-.15.27-.57,1,.55c-.08.14-.31.25-.69.32.36.7.89,1.34,1.59,1.94Z"/>
        <path d="m572.29,158.18c.66.15,1.15.37,1.48.64.33.28.51.56.55.84.02.14,0,.25-.06.34-.06.09-.14.14-.24.16-.09.01-.2-.01-.31-.07-.1-.3-.31-.62-.6-.96-.3-.34-.6-.62-.92-.85l.1-.1Zm1.62,3.81s.04-.09.06-.14c.03-.06.05-.1.07-.14.02-.03.05-.05.08-.05.04,0,.14.04.3.14.16.1.31.21.45.33.14.12.21.2.22.25-.07.11-.23.2-.47.26l.36,2.91c.27.26.56.44.85.55.29.11.63.16,1.01.16s.89-.04,1.53-.12c1.9-.24,3.26-.42,4.08-.56l.02.15c-.14.05-.25.13-.32.24-.07.11-.11.25-.11.42l-3.57.45c-.66.08-1.2.11-1.62.08-.41-.03-.78-.13-1.09-.31-.32-.18-.62-.45-.92-.83-.18.26-.4.56-.65.88s-.48.59-.66.79v.05c.02.1-.01.18-.08.23l-.6-.85c.4-.25.9-.61,1.51-1.08l-.4-3.18-.51.06c-.29.04-.58.13-.89.27l-.33-.53c.29,0,.64,0,1.05-.04l.49-.06.13-.33Zm5.97-2.25s.04-.07.07-.13.05-.09.07-.12c.02-.02.05-.04.08-.04.04,0,.14.04.28.12.14.08.28.18.4.28.12.1.19.18.19.23-.07.11-.2.2-.39.27l.25,1.99c.13.89.26,1.74.41,2.53-.04.08-.13.16-.26.24-.13.08-.26.13-.37.15-.04,0-.08-.01-.11-.05-.03-.04-.04-.09-.05-.15,0,0,.01-.07.02-.19l-.03-.21-3.32.42.05.43s-.05.1-.15.18c-.11.08-.23.12-.36.14-.06,0-.11,0-.16-.05-.05-.04-.08-.08-.08-.14-.03-.66-.09-1.37-.17-2.15l-.15-1.18c-.11-.91-.25-1.64-.42-2.2l.91.3.84-.11c.03-.35.03-.7.01-1.02l-.85.11c-.5.07-1.02.19-1.56.35l-.34-.53c.4,0,.88-.04,1.45-.09l2.32-.29c.09-.31.17-.64.22-.99.05-.35.08-.66.07-.92.43.07.73.13.9.18.17.05.26.09.26.14,0,.02-.03.05-.09.09l-.19.1c-.25.47-.54.93-.88,1.37l1.43-.18.18-.34s.05-.09.08-.16.06-.12.09-.15c.02-.03.05-.05.08-.05.04,0,.14.04.3.13.16.09.31.2.44.31.14.11.21.19.22.24,0,.12-.09.19-.24.21l-3.09.39c-.11.4-.24.75-.37,1.07l1.87-.23.14-.27Zm-4.01-2.36c.44.1.78.25,1.01.44.23.2.35.4.38.61.02.14,0,.25-.07.35-.06.1-.15.15-.25.16-.1.01-.21-.02-.33-.09-.04-.24-.14-.48-.3-.74-.16-.25-.35-.47-.54-.66l.11-.08Zm4.15,4.03l-.14-1.1-3.32.42.14,1.1,3.32-.42Zm.04.32l-3.32.42.14,1.1,3.32-.42-.14-1.1Zm-3.14,1.84l.15,1.2,3.32-.42-.15-1.2-3.32.42Z"/>
      </g>
      <g>
        <path class="cls-1" d="m326.2,406.66c.49.05,1.08.09,1.77.1h1.77c.14-.4.26-.83.35-1.31s.14-.89.15-1.24h-1.47c-.63,0-1.3.07-2,.18l-.33-.65c.47.05,1.03.09,1.68.1h.8c0-.75-.04-1.34-.11-1.78.83.23,1.25.41,1.25.53,0,.04-.04.09-.11.13l-.21.13v.99h1.01l.25-.36s.06-.09.11-.16c.05-.07.09-.13.13-.16.04-.03.07-.05.11-.05.05,0,.16.06.33.19s.32.26.46.4c.14.14.21.25.21.31-.04.14-.15.21-.33.21h-1.71c.45.14.77.25.95.32s.27.14.27.2c0,.03-.04.06-.12.09l-.24.09c-.38.72-.77,1.33-1.16,1.85h1.05l.25-.38s.07-.1.11-.16.08-.11.13-.16c.04-.04.08-.06.12-.06.05,0,.16.06.33.19s.32.27.46.42c.14.15.21.25.21.31,0,.06-.04.11-.1.14-.06.04-.13.05-.22.05h-3.83c-.63,0-1.3.07-2,.18l-.35-.65Zm4.42,4.15c-.27-.34-.56-.63-.87-.87v1.27c.03,1.07.06,1.89.09,2.46-.04.09-.14.17-.29.25-.15.08-.3.12-.44.12-.08,0-.15-.03-.2-.08s-.08-.11-.08-.18c.05-.73.09-1.46.11-2.18v-1.23c-.65,1.07-1.48,1.97-2.49,2.69l-.15-.19c.5-.5.94-1.07,1.34-1.7.4-.63.71-1.3.95-1.99h-.68c-.4,0-.81.07-1.23.18l-.35-.68c.49.05,1.08.09,1.76.1h.84c0-.62-.03-1.12-.09-1.52.8.24,1.2.42,1.2.55,0,.04-.03.07-.09.12l-.2.13v.73h1.2l.25-.35s.06-.08.11-.15c.05-.06.09-.11.13-.15.04-.03.07-.05.11-.05.05,0,.16.06.31.18.16.12.3.25.43.4.13.14.2.25.2.31-.04.14-.15.21-.33.21h-2.41v.6h.01c.72.17,1.25.42,1.59.73.34.31.51.62.51.91,0,.14-.04.25-.11.34-.07.09-.17.13-.28.13s-.22-.03-.32-.1c-.08-.29-.26-.61-.53-.95Zm-2.57-4.34c0-.3-.07-.65-.19-1.03s-.26-.73-.42-1.05l.15-.08c.43.29.74.58.94.88.2.3.3.58.3.84,0,.18-.04.33-.12.44s-.18.16-.31.16c-.12,0-.23-.06-.35-.17Zm9.49-.42c.17.14.34.29.49.44.15.16.23.26.23.33-.03.14-.13.21-.32.21h-1.4v3.6c.02,1.08.05,2.09.11,3.06-.07.09-.18.17-.31.24-.14.07-.3.11-.47.11-.07,0-.14-.03-.2-.08-.06-.05-.09-.11-.09-.18.04-.51.07-1.01.09-1.49.03-.48.04-1.11.05-1.89v-3.37h-1.91v.39c0,.94-.07,1.78-.2,2.54-.13.76-.41,1.49-.84,2.2-.43.71-1.04,1.33-1.85,1.86l-.17-.17c.61-.55,1.09-1.17,1.42-1.84.33-.67.56-1.38.67-2.11.12-.74.17-1.56.17-2.48v-2.13c0-.89-.04-1.62-.13-2.2l1.08.4c.05-.02.26-.09.61-.22.44-.17.86-.37,1.28-.6.42-.24.76-.48,1.01-.72.61.56.92.9.92,1,0,.06-.06.08-.19.07l-.31-.03c-.44.17-.99.33-1.63.48-.64.16-1.26.28-1.85.36v2.81h2.73l.28-.39c.04-.05.09-.11.13-.17s.09-.11.13-.16.08-.07.12-.07c.05,0,.17.07.34.21Z"/>
        <path class="cls-1" d="m341.71,403.91c-.57.74-1.22,1.32-1.95,1.74l-.15-.17c.27-.23.54-.55.83-.94.26-.34.5-.76.74-1.27.24-.51.39-.94.46-1.31.77.36,1.16.58,1.16.69,0,.04-.04.06-.13.08l-.24.05c-.2.35-.35.6-.47.75h2.39l.23-.34s.07-.09.11-.14.07-.1.11-.14c.04-.04.08-.07.11-.07.09,0,.26.12.53.36s.39.41.39.5c-.03.13-.14.19-.33.19h-2.52c.23.15.4.31.51.47.11.17.17.33.17.49,0,.14-.04.25-.11.34-.08.09-.17.14-.29.14-.12,0-.24-.05-.35-.14,0-.2-.06-.42-.14-.66s-.19-.45-.3-.64h-.76Zm4.72,6.92c.59.48,1.35.89,2.28,1.25.93.36,1.87.61,2.81.75l-.03.14c-.17.03-.32.12-.45.25-.13.13-.22.3-.27.49-.97-.26-1.87-.64-2.71-1.14-.84-.5-1.53-1.08-2.06-1.75h-.04v.99c.02.8.04,1.43.08,1.88-.04.09-.14.17-.3.24-.16.07-.31.11-.47.11-.08,0-.14-.03-.19-.08s-.07-.11-.07-.18c.04-.42.07-.98.09-1.69v-.99c-.63.63-1.41,1.18-2.33,1.63-.92.46-1.95.82-3.07,1.1l-.09-.22c.94-.32,1.81-.72,2.61-1.2.8-.48,1.46-1.01,1.98-1.59h-2.13c-.63,0-1.3.07-2,.18l-.36-.66c.49.05,1.08.09,1.77.1h3.63c0-.5-.03-.94-.08-1.3.46.14.78.25.96.33.18.08.27.15.27.21,0,.04-.03.07-.09.12l-.2.13v.51h3.63l.27-.35s.07-.09.12-.16.1-.12.14-.16c.04-.03.08-.05.11-.05.05,0,.17.06.35.18.18.12.34.25.5.4.16.14.23.24.23.3-.03.14-.14.21-.35.21h-4.53Zm-6.63-2.08c.51-.07,1.24-.19,2.19-.36v-2.08h-.57c-.33,0-.67.07-1.01.18l-.33-.66c.49.05,1.08.09,1.77.1h1.52l.23-.31s.09-.11.15-.19c.07-.09.13-.13.18-.13s.16.05.31.16c.16.11.3.23.43.36s.19.23.19.29c-.04.14-.15.21-.33.21h-1.72v1.92c.69-.12,1.32-.24,1.88-.35l.05.21c-1.28.46-2.65.91-4.11,1.36-.04.17-.14.26-.28.29l-.55-.99Zm5.11-3.63c.21-.21.4-.42.55-.64.27-.34.52-.75.75-1.24.23-.48.39-.91.47-1.29.77.33,1.16.55,1.16.65,0,.04-.04.07-.13.09l-.24.07c-.16.28-.33.54-.52.78h2.83l.25-.36s.06-.09.11-.16c.05-.07.09-.13.13-.16.04-.03.07-.05.11-.05.05,0,.17.06.34.19s.33.26.48.41c.15.15.22.25.22.31-.04.13-.15.19-.33.19h-2.87c.27.15.46.31.59.48.12.17.19.34.19.51,0,.14-.04.25-.12.34s-.18.14-.29.14-.23-.04-.35-.13c-.03-.21-.1-.43-.22-.68-.12-.25-.26-.47-.42-.66h-.93c-.41.48-.84.88-1.29,1.2l.99.49h2.25l.2-.27s.07-.09.13-.16c.06-.07.12-.11.17-.11.08,0,.24.12.47.36s.35.41.35.5c-.09.09-.23.15-.43.18v2.34c0,.07.01.12.04.14.03.02.08.03.17.03h.49c.24,0,.38,0,.43-.01.04,0,.08,0,.1-.02.02-.01.05-.04.07-.08.08-.23.18-.63.29-1.2h.15l.04,1.21c.11.05.18.1.22.15.04.05.06.11.06.19,0,.17-.1.3-.31.38-.2.08-.56.12-1.08.12h-.65c-.33,0-.54-.05-.65-.16-.1-.1-.15-.29-.15-.56v-2.63h-2.53v.85c0,.43-.07.83-.21,1.2-.14.36-.43.71-.87,1.04-.44.33-1.08.6-1.93.82l-.11-.2c.91-.36,1.52-.76,1.85-1.22.32-.46.49-1,.49-1.62v-.84c0-.35-.02-.64-.05-.88l-.27.17-.16-.17Zm1.55,1.52c.62.1,1.08.28,1.38.52.3.24.45.49.45.74,0,.12-.03.22-.1.29-.07.07-.15.11-.26.11-.1,0-.2-.03-.29-.09-.08-.25-.25-.52-.5-.79s-.52-.5-.79-.66l.12-.12Z"/>
        <path class="cls-1" d="m355.56,409.1c-.08.99-.31,1.9-.69,2.75-.38.85-1,1.58-1.85,2.19l-.16-.14c.75-.81,1.25-1.7,1.51-2.69.26-.99.39-2.11.39-3.35v-1.47c0-.62-.03-1.14-.09-1.53l1.12.52h6.39l.2-.26s.07-.08.13-.15c.06-.07.12-.11.17-.11s.16.05.33.16.32.23.47.36.21.23.21.29c-.09.11-.27.2-.53.27v1.26c.03,1.06.06,1.87.09,2.44-.05.08-.17.16-.35.23s-.34.12-.47.12c-.06,0-.11-.03-.14-.08s-.05-.11-.05-.18c0-.02.02-.13.05-.33v-.3h-6.72Zm0-5.51c-.63,0-1.3.07-2,.18l-.36-.68c.49.05,1.08.09,1.77.1h7.75l.29-.4s.08-.1.14-.18c.06-.07.11-.13.15-.17s.08-.06.11-.06c.05,0,.18.07.37.21.19.14.37.29.53.45s.25.27.25.33c-.03.14-.14.21-.33.21h-8.67Zm.05,4.25c0,.38,0,.67-.03.87h6.69v-2.95h-6.67v2.08Z"/>
        <path class="cls-1" d="m368.84,402.9s.06-.08.1-.13.08-.09.11-.12.06-.04.1-.04c.08,0,.25.13.51.39.26.26.39.44.39.53-.11.1-.31.17-.6.2-.55,1.2-1.07,2.27-1.55,3.21h1.12l.21-.25s.06-.08.13-.15c.07-.07.13-.11.19-.11.09,0,.26.11.51.33.25.22.37.38.37.47-.04.06-.1.1-.17.12-.07.02-.17.04-.31.06-.18,1.51-.51,2.77-1,3.78.39.47.85.83,1.39,1.07.53.25,1.14.42,1.83.51.68.09,1.52.14,2.51.14,1.73,0,2.9,0,3.49-.03v.18c-.17.04-.3.11-.39.23s-.15.26-.17.44h-3c-1.01,0-1.88-.06-2.59-.17-.71-.12-1.34-.33-1.88-.64-.54-.31-1.01-.74-1.4-1.31-.59,1.01-1.38,1.81-2.37,2.41l-.12-.2c.9-.7,1.6-1.66,2.09-2.87-.28-.53-.54-1.18-.77-1.96-.28.52-.51.94-.69,1.25.03.05.04.1.04.14,0,.07-.02.12-.05.16l-.63-.61c.56-.55.97-.98,1.24-1.29l.13-.57.45.14-.35.51c.2.68.47,1.29.79,1.82.28-.88.49-1.95.61-3.22h-1.4s-.1.18-.21.4l-.15.29c-.09.02-.16.03-.23.03-.14,0-.32-.04-.53-.12.35-.68.7-1.43,1.07-2.24.37-.81.68-1.51.93-2.11h-.72c-.4,0-.83.07-1.28.18l-.35-.68c.44.05.98.09,1.6.1h.77l.21-.29Zm7.07.31s.07-.09.13-.18c.06-.08.12-.12.17-.12s.16.06.31.18.3.25.43.39.2.24.2.3c-.04.04-.12.09-.21.14-.1.05-.21.08-.32.11v1.18h.2l.23-.36s.05-.09.09-.16.08-.12.12-.16c.04-.03.07-.05.11-.05.08,0,.25.13.51.38.26.25.39.42.39.52-.04.14-.14.21-.32.21h-1.33v1c.02.29.04.55.07.81-.04.08-.15.16-.31.23-.16.08-.31.12-.45.12h-.09v-.42h-1.91v1.34h1.88l.24-.35s.07-.09.11-.14c.04-.05.07-.1.11-.14.04-.04.08-.06.11-.06.05,0,.16.06.33.18.16.12.32.25.45.4.14.14.21.25.21.31,0,.07-.04.12-.11.16-.06.03-.14.05-.23.05h-3.11v1.37h2.28l.27-.38s.07-.09.12-.16c.05-.07.1-.13.14-.17s.08-.06.11-.06c.05,0,.17.07.35.2s.34.27.49.42c.15.15.23.26.23.32-.04.14-.15.21-.33.21h-3.65v.49l.03.42c0,.11,0,.28.03.51-.03.09-.11.18-.25.25-.14.07-.29.1-.45.1-.08,0-.14-.03-.18-.08-.04-.05-.06-.11-.06-.18.03-.2.04-.4.05-.61,0-.12,0-.22.01-.3v-.6h-1.07c-.63,0-1.3.07-2,.18l-.33-.66c.49.05,1.08.09,1.77.1h1.63v-1.37h-.89c-.53,0-1.08.07-1.65.18l-.35-.68c.49.05,1.08.09,1.77.1h1.12v-1.34h-.84c-.48,0-.99.07-1.52.18l-.36-.66c.49.05,1.08.09,1.77.1h.95v-1.36h-1.27c-.63,0-1.3.07-2,.18l-.35-.66c.49.05,1.08.09,1.77.1h1.84v-1.34h-.84c-.48,0-.98.07-1.49.18l-.35-.65c.49.05,1.08.09,1.77.1h.91c0-.6-.03-1.08-.09-1.46.47.14.8.25.98.33.18.08.27.16.27.23,0,.04-.04.09-.11.13l-.23.16v.61h1.77l.2-.3Zm-.07.66h-1.91v1.34h1.91v-1.34Zm-1.91,3.08h1.91v-1.36h-1.91v1.36Z"/>
      </g>
      <path d="m499.44,358.57l.13-.24c.51.3.89.51,1.14.62.1.04.17.08.2.1.03.02.07.05.13.08.07.2.12.4.15.62,0,.04.02.09.03.15l.37,1.76.04.26c.07.37.13.7.2.97.07.28.19.84.37,1.68l.41,2c.04.2.09.44.16.74l.05-.08c.25-.47.38-.72.4-.74l.19-.29.26-.47.12-.21c.08-.13.31-.56.7-1.27.05-.1.15-.29.28-.56.13-.28.26-.52.38-.72.21-.36.32-.59.31-.67,0-.06-.12-.19-.34-.38-.06-.04-.14-.1-.26-.19-.14-.09-.23-.15-.25-.18-.02-.03-.03-.07-.03-.13.04-.05.08-.09.13-.12.1.03.2.06.28.11.09.05.2.13.32.24.12.1.24.19.35.25.15.09.39.22.72.39.19.09.32.16.39.2l.08.05-.1.15c-.07,0-.15-.04-.24-.08-.1-.05-.19-.09-.28-.11-.14-.03-.23-.04-.27-.03-.13.04-.22.1-.27.19l-.86,1.59-.38.74-.13.2-.55,1.01c-.38.69-.72,1.29-1.01,1.79-.06.11-.21.34-.44.69l-.24-.12c-.04-.2-.19-.85-.46-1.95-.06-.25-.1-.43-.12-.53l-.14-.74c-.06-.28-.1-.46-.12-.53-.02-.08-.04-.14-.04-.17-.12-.62-.29-1.4-.5-2.35-.06-.26-.13-.65-.23-1.17-.06-.33-.1-.54-.12-.61-.02-.08-.06-.17-.1-.29l-.11.16c-.38.64-.88,1.54-1.51,2.69l-.93,1.66c-.08.14-.15.28-.21.42l.15.14c.3.21.58.44.85.68.01.03.02.06.03.08l-.12.18c-.06-.01-.11-.03-.14-.05-.04-.02-.08-.05-.13-.09-.31-.22-.7-.46-1.17-.74-.33-.19-.62-.36-.88-.49l-.07-.04s-.07-.04-.12-.08l.08-.15.16.02.25.1c.23.09.4.15.51.17.08.01.15,0,.21-.01.17-.21.38-.53.64-.97.12-.2.34-.58.64-1.13l.4-.67.81-1.41c.36-.63.56-1.01.59-1.14.02-.07,0-.15-.03-.23-.07-.16-.2-.31-.39-.46-.19-.14-.31-.24-.36-.29Z"/>
      <rect class="cls-4" width="630" height="527"/>
    </g>
  </g>
</svg>