<?xml version="1.0" encoding="UTF-8"?>
<svg id="_レイヤー_2" data-name="レイヤー 2" xmlns="http://www.w3.org/2000/svg" viewBox="0 0 220.3139518 130.619044">
  <defs>
    <style>
      .cls-1 {
        fill: #332615;
      }
    </style>
  </defs>
  <g id="_レイヤー_2-2" data-name="レイヤー 2">
    <g>
      <path class="cls-1" d="m4.2748893,115.1703135c.1621094-.1982422.2700195-.3959961.4140625-.3959961.2163086,0,1.2246094,1.0083008,1.2246094,1.2783203-.144043.144043-.4501953.2338867-.8103027.2700195-.486084,1.0805664-1.2963867,2.8447266-2.088623,4.4472656h1.5124512l.2880859-.3422852c.1618652-.1796875.2880859-.3598633.4321289-.3598633.2160645,0,1.1882324.8461914,1.1882324,1.1162109-.1259766.1621094-.3061523.2163086-.6481934.2524414-.2160645,1.8364258-.5939941,3.6186523-1.3503418,5.2392578,1.6384277,1.9985352,4.0512695,2.3769531,7.7243652,2.3769531,1.0983887,0,3.5109863,0,4.7172852-.0361328v.2519531c-.4680176.0898438-.7202148.4501953-.7561035.918457h-4.0512695c-3.8352051,0-6.2839355-.5405273-7.9223633-2.9350586-.7202148,1.2783203-1.7285156,2.4306641-3.2050781,3.3310547l-.1618652-.2700195c1.3503418-1.0805664,2.2145996-2.4487305,2.8269043-3.9790039-.3962402-.7563477-.7382812-1.6567383-1.0444336-2.7192383-.2880859.5581055-.684082,1.2963867-.9362793,1.7285156.0900879.144043.0720215.3061523-.0180664.4145508l-.8461914-.8466797c.4501953-.4501953,1.2243652-1.2421875,1.6745605-1.7822266l.1799316-.7924805.6123047.1982422-.4682617.7021484c.2880859.9902344.6481934,1.8183594,1.0622559,2.5209961.4501953-1.4047852.6843262-2.9169922.8283691-4.4658203h-1.890625c-.1799316.3242188-.3239746.6484375-.486084.9545898-.2700195.0717773-.5942383.0541992-1.0263672-.1259766.9362793-1.9086914,2.034668-4.3574219,2.7009277-6.0141602h-.9724121c-.6120605.0180664-1.1523438.1083984-1.7285156.2524414l-.4680176-.9365234c.7202148.090332,1.4404297.1259766,2.1606445.144043h1.0441895l.2880859-.3959961Zm9.5429688.4321289c.1621094-.1982422.2700195-.4140625.4140625-.4140625.2160645,0,1.2783203.9360352,1.2783203,1.2060547-.1079102.1264648-.3959961.2705078-.7202148.3422852v1.6386719h.2700195l.3061523-.5043945c.1621094-.2519531.2880859-.5039062.4321289-.5039062.2160645,0,1.2243652.972168,1.2243652,1.2421875-.0539551.1982422-.197998.2880859-.4321289.2880859h-1.8005371v.8642578c.0361328.8642578.0361328,1.1523438.0900879,1.6386719-.1081543.2158203-.6481934.4858398-1.0263672.4858398h-.1259766v-.5761719h-2.574707v1.8549805h2.5388184l.3239746-.4863281c.1799316-.234375.3061523-.4863281.4501953-.4863281.2160645,0,1.3322754.9545898,1.3322754,1.2246094-.0358887.1977539-.2338867.2880859-.4501953.2880859h-4.1950684v1.890625h3.0788574l.3601074-.5224609c.197998-.2700195.3601074-.5400391.5041504-.5400391.2160645,0,1.4404297,1.0263672,1.4404297,1.2963867-.0539551.1982422-.197998.2880859-.4501953.2880859h-4.9333496v.684082c.0358887.6845703.0358887.918457.0720215,1.2783203-.0720215.2524414-.5222168.4863281-.9543457.4863281-.2341309,0-.3239746-.1801758-.3239746-.3603516.0539551-.4140625.0539551-.6298828.0898438-1.2602539v-.828125h-1.4404297c-.9362793.0180664-1.8005371.1079102-2.7006836.2519531l-.4501953-.9179688c.7922363.0898438,1.5844727.1259766,2.3947754.144043h2.1965332v-1.890625h-1.2062988c-.7561035.0180664-1.4943848.1079102-2.232666.2519531l-.4682617-.9365234c.7924805.090332,1.5844727.1264648,2.3947754.1445312h1.5124512v-1.8549805h-1.1342773c-.7202148.0180664-1.3684082.1083984-2.0527344.2524414l-.486084-.918457c.7922363.0898438,1.5844727.1259766,2.3947754.144043h1.2783203v-1.890625h-1.7104492c-.9362793.0180664-1.8005371.1079102-2.7006836.2519531l-.4682617-.9179688c.7922363.0898438,1.5844727.1259766,2.3947754.144043h2.4846191v-1.8544922h-1.1342773c-.684082.0180664-1.3503418.1079102-2.0166016.2519531l-.4682617-.9003906c.7924805.090332,1.5844727.1259766,2.3947754.144043h1.2243652c0-.6660156-.0358887-1.4584961-.1259766-2.0166016,1.8544922.5581055,1.8544922.7382812,1.5483398.9541016l-.3059082.2163086v.8461914h2.3947754l.2700195-.4140625Zm-2.6647949.918457v1.8544922h2.574707v-1.8544922h-2.574707Zm2.574707,4.2670898v-1.890625h-2.574707v1.890625h2.574707Z"/>
      <path class="cls-1" d="m25.5158561,115.6024424c.1801758-.2338867.3061523-.4863281.4501953-.4863281.2160645,0,1.2424316.918457,1.2424316,1.1884766-.0361328.1801758-.1982422.2700195-.4501953.2700195h-3.4030762c1.6564941,1.0805664.7202148,2.5571289-.0900879,1.8007812-.0178223-.5761719-.2880859-1.2963867-.5939941-1.8007812h-1.0263672c-.7741699,1.0263672-1.692627,1.8544922-2.6286621,2.4125977l-.1982422-.2338867c.3781738-.3422852.7563477-.7919922,1.1164551-1.2963867.7021484-.9541016,1.4223633-2.5566406,1.6203613-3.5649414,1.7285156.8100586,1.7285156.9902344,1.3864746,1.0620117l-.3239746.0722656c-.1982422.3603516-.3962402.7202148-.6303711,1.0444336h3.2231445l.3059082-.4682617Zm7.130127,9.5429688c.1982422-.2519531.3601074-.5043945.5041504-.5043945.2160645,0,1.4584961.9545898,1.4584961,1.2246094-.0358887.1977539-.2160645.2880859-.4680176.2880859h-6.1220703c1.6567383,1.3681641,4.4475098,2.3764648,6.8781738,2.7729492l-.0358887.1977539c-.4501953.090332-.8464355.4863281-.9724121,1.0263672-2.520752-.7021484-4.9694824-2.0883789-6.4460449-3.9970703h-.0539551v1.3681641c.0361328,1.3505859.0539551,1.8007812.1081543,2.6108398-.1081543.234375-.6123047.4863281-1.0444336.4863281-.2160645,0-.342041-.1801758-.342041-.3603516.0720215-.7739258.0900879-1.1704102.1259766-2.3408203v-1.3681641c-1.7463379,1.7827148-4.3391113,3.0429688-7.2922363,3.78125l-.1259766-.3061523c2.520752-.8823242,4.753418-2.2504883,6.1938477-3.8710938h-2.8808594c-.9362793.0180664-1.8005371.1079102-2.7006836.2519531l-.4863281-.918457c.7924805.090332,1.5844727.1259766,2.3947754.144043h4.8974609c0-.5942383-.0358887-1.2963867-.1079102-1.800293,1.8005371.5400391,1.8005371.7202148,1.5305176.9179688l-.2702637.1801758v.7021484h4.8974609l.3601074-.4858398Zm-8.4624023-6.2119141c.1799316-.2163086.3061523-.4501953.4501953-.4501953.2158203,0,1.2602539.8461914,1.2602539,1.1162109-.0539551.1982422-.197998.2880859-.4501953.2880859h-2.3227539v2.6650391c.8103027-.144043,1.6745605-.3061523,2.5388184-.4863281l.0720215.2880859c-1.2783203.4682617-3.060791,1.0986328-5.5456543,1.890625-.0539551.2158203-.197998.3603516-.3781738.3959961l-.7380371-1.3681641c.630127-.090332,1.6923828-.2700195,2.9528809-.5043945v-2.8808594h-.7744141c-.4680176.0180664-.9182129.1083984-1.3681641.2519531l-.4501953-.9179688c.7922363.0898438,1.5844727.1259766,2.3945312.144043h2.0527344l.3061523-.4321289Zm7.0219727-.3959961c.1621094-.1801758.2700195-.378418.4140625-.378418.2163086,0,1.0983887.918457,1.0983887,1.1884766-.1079102.1079102-.2880859.1982422-.5761719.2519531v3.2412109c0,.1796875.0361328.2338867.2880859.2338867h.6662598c.2341309,0,.486084,0,.5761719-.0180664.1259766,0,.1621094-.0180664.2341309-.144043.0720215-.2158203.2519531-.9360352.3959961-1.65625h.197998l.0541992,1.6743164c.3061523.144043.3779297.2519531.3779297.4682617,0,.4501953-.4140625.684082-1.8725586.684082h-.8820801c-.9182129,0-1.0803223-.2700195-1.0803223-.9902344v-3.637207h-3.4211426v1.1704102c0,1.4946289-.4140625,3.2587891-4.0690918,4.2314453l-.144043-.2700195c2.6647949-1.0625,3.1508789-2.4487305,3.1508789-3.9433594v-1.1704102c0-.3959961-.0180664-.8642578-.0720215-1.2421875l1.3503418.684082h3.0429688l.2700195-.3779297Zm1.6564941-2.9711914c.1801758-.2519531.3242188-.5219727.4682617-.5219727.2160645,0,1.4042969.9902344,1.4042969,1.2602539-.0539551.1801758-.2160645.2700195-.4499512.2700195h-3.8713379c1.8005371,1.0083008.9182129,2.574707.0180664,1.8544922-.0720215-.5942383-.4680176-1.3500977-.8642578-1.8544922h-1.260498c-.6660156.7924805-1.3862305,1.4584961-2.1245117,1.9086914l-.2160645-.2338867c.2521973-.2524414.5041504-.5405273.7382812-.8823242.7202148-.9545898,1.4223633-2.4848633,1.6384277-3.4931641,1.7285156.7563477,1.7285156.9365234,1.3864746,1.0263672l-.3242188.0898438c-.2160645.378418-.4499512.7382812-.7021484,1.0805664h3.8171387l.342041-.5043945Zm-4.807373,4.7895508c3.3310547.5761719,2.6647949,2.862793,1.5844727,2.1787109-.2160645-.7202148-1.0263672-1.5844727-1.746582-2.0166016l.1621094-.1621094Z"/>
      <path class="cls-1" d="m50.7001823,123.7948252c.2158203-.2880859.3779297-.5761719.5219727-.5761719.2160645,0,1.548584,1.0986328,1.548584,1.3686523-.0539551.1977539-.2160645.2880859-.4501953.2880859h-6.3737793c1.6022949,1.8901367,4.4291992,3.3847656,7.0039062,3.9609375l-.0358887.2163086c-.4682617.0898438-.8823242.4858398-1.0083008,1.0800781-2.6108398-.9541016-5.0236816-2.7910156-6.4099121-5.2573242h-.1081543v1.7641602c.0361328,1.7646484.0539551,2.3588867.1262207,3.4394531-.1262207.2338867-.6484375.4858398-1.0983887.4858398-.2160645,0-.3601074-.1801758-.3601074-.3598633.0720215-1.0444336.1079102-1.5844727.144043-3.1689453v-1.7646484c-1.692627,2.1606445-4.3032227,3.8530273-7.328125,4.9155273l-.1621094-.2880859c2.574707-1.206543,4.7893066-3.0610352,6.1757812-5.0234375h-2.9528809c-.9362793.0180664-1.8005371.1079102-2.7009277.2519531l-.4499512-.918457c.7922363.090332,1.5844727.1259766,2.3947754.144043h5.0234375c0-.8100586-.0541992-1.8364258-.1621094-2.5205078,1.9626465.5581055,1.9626465.7382812,1.6564941.9360352l-.3061523.1801758v1.4042969h4.9155273l.3962402-.5581055Zm-2.9709473-8.4082031c.2160645-.2163086.3959961-.4501953.5400391-.4501953.2160645,0,1.2424316,1.1523438,1.2424316,1.4223633-.144043.144043-.3242188.1977539-.7922363.2158203-.7741699,1.1884766-1.7285156,2.2329102-2.8808594,3.1152344,1.9265137,1.0083008,4.3393555,1.5844727,6.9140625,1.8725586v.1977539c-.5222168.1079102-.8823242.5043945-1.0263672,1.0805664-2.6647949-.4682617-4.951416-1.2607422-6.7338867-2.5390625-2.1066895,1.3867188-4.753418,2.3769531-7.9223633,2.8989258l-.1081543-.3061523c2.7910156-.7021484,5.2575684-1.7822266,7.2202148-3.2407227-.828125-.7021484-1.4943848-1.5307617-2.034668-2.5029297-1.2783203,1.2783203-2.8447266,2.4487305-4.4472656,3.1870117l-.1801758-.2519531c1.1884766-.7563477,2.3947754-1.8364258,3.3852539-3.0429688.7741699-.9003906,1.512207-2.2324219,1.7824707-3.1870117,1.9804688.7382812,1.9804688.918457,1.6564941.972168l-.3061523.0361328c-.2160645.3242188-.4501953.6484375-.7202148.972168h3.9970703l.4143066-.449707Zm-4.8615723.9902344c-.144043.1621094-.2880859.3237305-.4321289.4677734.6123047.9003906,1.4223633,1.6567383,2.3947754,2.2871094.9724121-.8105469,1.7824707-1.746582,2.3947754-2.7548828h-4.3574219Z"/>
      <path class="cls-1" d="m55.0161002,123.2728526l-.2341309-.1801758c.9362793-1.3681641,1.8725586-3.2412109,2.6647949-5.293457.4140625-1.1166992.8823242-2.8452148.9541016-3.8530273,1.9807129.7021484,1.9807129.8818359,1.6386719,1.0078125l-.3422852.1083984c-.4499512,1.3144531-.9902344,2.5927734-1.6022949,3.7631836.7202148.5761719.7202148.7558594.4499512.8823242l-.2519531.1079102v6.0317383c.0361328,2.1606445.0720215,2.8808594.144043,4.2314453-.144043.1796875-.6123047.4858398-1.0444336.4858398-.2158203,0-.4140625-.1801758-.4140625-.3598633.1081543-1.5488281.1621094-2.3408203.1982422-4.6816406v-5.0776367c-.6662598,1.0805664-1.404541,2.034668-2.1606445,2.8271484Zm13.5039062-5.5458984c.197998-.2700195.3601074-.5400391.5041504-.5400391.2160645,0,1.404541,1.0444336,1.404541,1.3144531-.0361328.1977539-.1982422.2880859-.4501953.2880859h-4.3574219v4.3930664h2.9890137l.3601074-.5400391c.197998-.2700195.3601074-.5400391.5041504-.5400391.2160645,0,1.4404297,1.0625,1.4404297,1.3325195-.0361328.1977539-.197998.2880859-.4501953.2880859h-4.8435059v2.1425781c.0361328,2.1245117.0720215,2.8447266.144043,4.1591797-.144043.2700195-.6481934.5219727-1.0622559.5219727-.2521973,0-.4321289-.1796875-.4321289-.3598633.0900879-1.3867188.144043-2.0888672.1799316-4.1772461v-2.2866211h-2.2866211c-.9362793.0180664-1.8005371.1079102-2.7006836.2519531l-.4501953-.9365234c.7922363.090332,1.5844727.1264648,2.3947754.144043h3.0427246v-4.3930664h-2.8447266c-.6481934,1.3862305-1.4042969,2.5927734-2.2866211,3.5112305l-.2160645-.1801758c.5222168-.9003906,1.026123-2.034668,1.458252-3.3129883.3781738-1.1342773.7202148-2.9169922.7202148-3.9072266,1.9987793.6298828,1.9987793.8100586,1.6567383.9360352l-.3242188.1264648c-.2160645.7919922-.4682617,1.5664062-.7922363,2.3046875h2.6286621v-.378418c0-1.2241211-.0717773-2.7006836-.2338867-3.690918,2.0166016.5761719,2.0166016.7558594,1.7104492.9541016l-.3061523.1982422v2.9169922h2.520752l.3781738-.5405273Z"/>
      <path class="cls-1" d="m72.9980338,123.434962l-.2341309-.1801758c.9902344-1.4042969,1.9985352-3.3310547,2.8088379-5.4555664.4321289-1.1166992.9182129-2.862793.9902344-3.8530273,2.0166016.6479492,2.0166016.828125,1.6745605.9541016l-.3239746.1259766c-.4863281,1.4042969-1.0805664,2.7548828-1.746582,3.9970703.7382812.5761719.7382812.7563477.4680176.8642578l-.2519531.1083984v5.8515625c.0358887,2.1606445.0720215,2.8808594.144043,4.2314453-.1801758.1977539-.6481934.4858398-1.0622559.4858398-.1982422,0-.3962402-.1801758-.3962402-.3598633.1081543-1.5488281.1621094-2.3408203.197998-4.6816406v-4.9511719c-.7021484,1.0981445-1.4763184,2.0703125-2.2685547,2.862793Zm13.6660156-4.7177734l.3601074-.5400391c.197998-.2700195.342041-.5400391.486084-.5400391.2160645,0,1.3684082,1.0620117,1.3684082,1.3325195-.0358887.1977539-.2160645.2880859-.4499512.2880859h-2.6469727v9.3984375c0,1.0083008-.2338867,1.6748047-2.2145996,1.890625-.0900879-.4140625-.2341309-.7202148-.5402832-.9179688-.3598633-.2163086-.9902344-.378418-2.0524902-.5405273v-.2880859s2.5927734.2163086,3.0969238.2163086c.4140625,0,.5041504-.144043.5041504-.4863281v-9.2724609h-3.979248c-.9362793.0175781-1.8005371.1079102-2.7006836.2519531l-.4501953-.9365234c.7922363.090332,1.5844727.1259766,2.3947754.144043h4.7353516v-.8100586c0-1.2246094-.0720215-2.7006836-.2341309-3.690918,2.034668.5761719,2.034668.7558594,1.7285156.9541016l-.2880859.1801758v3.3666992h.8823242Zm-7.7783203,2.3769531c4.3212891,2.4487305,3.4389648,5.3476562,2.1606445,4.3393555-.2880859-1.3325195-1.4584961-3.0791016-2.3586426-4.2133789l.197998-.1259766Z"/>
      <path class="cls-1" d="m103.6918815,119.7977549c.2158203-.2880859.3779297-.5761719.5219727-.5761719.2160645,0,1.5664062,1.1162109,1.5664062,1.3862305-.0358887.1982422-.2158203.2880859-.4680176.2880859h-5.9057617v8.2646484h4.8254395l.4140625-.5761719c.2160645-.2880859.3962402-.5942383.5402832-.5942383.2160645,0,1.5844727,1.1342773,1.5844727,1.4042969-.0539551.1982422-.197998.2880859-.4501953.2880859h-12.3876953c-.9362793.0180664-1.8005371.1083984-2.7009277.2519531l-.4680176-.9179688c.7922363.0898438,1.5844727.1259766,2.3947754.144043h5.0595703v-8.2646484h-3.2412109c-.9360352.0180664-1.800293.1079102-2.7006836.2524414l-.486084-.9365234c.7922363.0898438,1.5844727.1259766,2.3947754.144043h4.0332031v-2.6469727c0-1.2241211-.0722656-2.7006836-.2341309-3.690918,2.0166016.5761719,2.0166016.7563477,1.7104492.972168l-.2880859.1982422v5.1674805h3.8891602l.3962402-.5581055Z"/>
      <path class="cls-1" d="m113.085192,119.0052745c.1799316-.2519531.3061523-.5219727.4501953-.5219727.2160645,0,1.2783203,1.0263672,1.2783203,1.2963867-.0539551.1982422-.2160645.2880859-.4321289.2880859h-2.2145996v5.7075195c.828125-.3779297,1.7104492-.7919922,2.6108398-1.2060547l.1079102.2519531c-1.2243652.8100586-2.9169922,2.034668-5.1135254,3.402832-.0539551.2163086-.1621094.3964844-.3239746.4863281l-.6843262-1.5302734c.486084-.1621094,1.3144531-.4863281,2.3046875-.918457v-6.1938477h-.7021484c-.3962402.0180664-.7741699.1079102-1.1523438.2519531l-.4501953-.9360352c.5222168.0898438,1.0441895.1259766,1.5844727.144043h.7202148v-1.4584961c0-1.2246094-.0720215-2.7006836-.2341309-3.6914062,1.9626465.5585938,1.9626465.7382812,1.6386719.9365234l-.3061523.1801758v4.0332031h.5942383l.3239746-.5224609Zm9.704834-1.4941406c.144043-.1982422.2521973-.4140625.3962402-.4140625.2160645,0,1.2243652.9179688,1.2243652,1.1879883-.1081543.144043-.3242188.234375-.6662598.2880859-.0539551,4.7353516-.2521973,6.5-.8103027,7.1123047-.3601074.4140625-.9001465.5761719-1.4404297.5761719,0-.3422852-.0180664-.6484375-.197998-.828125-.1621094-.144043-.5222168-.2700195-.9001465-.3422852v-.3242188c.3959961.0361328,1.0083008.090332,1.2963867.090332.2338867,0,.342041-.0361328.4499512-.1621094.3242188-.3779297.4682617-2.1245117.5222168-6.2841797l-2.6467285,1.0444336v3.1870117c.0358887,2.1606445.0720215,2.8808594.144043,4.2314453-.144043.2519531-.6123047.5400391-1.0263672.5400391-.197998,0-.3781738-.1801758-.3781738-.3603516.0900879-1.5483398.144043-2.3222656.1801758-4.6630859v-2.5209961l-2.3227539.918457v7.328125c0,.5400391.1801758.7382812,1.2783203.7382812h2.574707c1.206543,0,2.0708008-.0180664,2.4487305-.0541992.2702637-.0356445.3781738-.1079102.4863281-.2700195.144043-.3242188.3959961-1.4042969.6481934-2.7368164h.2341309l.0358887,2.809082c.4680176.1621094.5761719.3061523.5761719.5581055,0,.6479492-.7382812.8100586-4.465332.8100586h-2.6286621c-1.7285156,0-2.2868652-.3417969-2.2868652-1.6201172v-7.1484375l-2.1425781.8461914-.3239746-.4321289,2.4665527-.972168v-2.5927734c0-.8823242-.0539551-1.9448242-.1618652-2.6645508,1.8725586.5761719,1.8725586.7558594,1.5664062.972168l-.3061523.1977539v3.6552734l2.3227539-.9003906v-2.6108398c0-.8642578-.0541992-1.9443359-.1621094-2.6826172,1.8364258.5761719,1.8364258.7563477,1.5305176.972168l-.2880859.1982422v3.690918l2.3405762-.9179688.1621094-.0541992.2700195-.3959961Z"/>
      <path class="cls-1" d="m132.0021842,128.9623057c3.5290527-1.1879883,5.2033691-3.1508789,5.6176758-5.9418945-.7023926.7207031-1.6206055,1.0805664-2.7009277,1.0805664-2.1245117,0-3.7990723-1.4765625-3.7810059-3.8710938,0-2.3769531,1.6745605-3.9970703,4.0510254-3.9970703,2.4487305,0,3.9973145,1.9624023,3.9973145,5.1132812,0,3.7089844-2.1066895,6.9501953-7.0400391,8.1923828l-.144043-.5761719Zm5.6896973-6.7519531c.0180664-.1977539.0180664-.3959961.0180664-.6123047,0-3.1508789-1.0805664-4.6274414-2.5927734-4.6274414-1.3686523,0-2.5388184,1.0625-2.5388184,3.1152344,0,2.0883789,1.2062988,3.0791016,2.7907715,3.0791016.9182129,0,1.6564941-.3061523,2.3227539-.9545898Z"/>
      <path class="cls-1" d="m158.8256705,115.1703135c.197998-.2700195.3598633-.5581055.5039062-.5581055.2163086,0,1.4946289,1.0625,1.4946289,1.3325195-.0361328.1977539-.2160645.2880859-.4501953.2880859h-12.0996094v12.4414062h10.8393555l.4140625-.5761719c.2338867-.2880859.4140625-.5761719.5581055-.5761719.2160645,0,1.5844727,1.1342773,1.5844727,1.4047852-.0539551.1977539-.197998.2880859-.4501953.2880859h-12.9458008v.3237305c.0361328.3061523.0180664.4140625.0539551.5224609-.0539551.1977539-.4499512.5219727-1.026123.5219727-.1801758,0-.3781738-.1801758-.3781738-.3603516.1079102-1.5483398.1618652-2.340332.197998-4.6811523v-6.8779297c0-1.2246094-.0720215-2.7006836-.2341309-3.6914062l1.5844727.7382812h9.9929199l.3603516-.5400391Zm-9.4169922,12.6396484l-.197998-.2519531c1.7824707-1.2783203,3.6010742-3.1689453,5.1315918-5.4555664-1.1704102-1.1162109-2.6108398-2.2329102-4.2854004-3.2587891l.1621094-.2880859c1.9265137.9360352,3.4570312,1.8544922,4.6452637,2.71875.2163086-.3603516.4321289-.7382812.6484375-1.1166992.5761719-1.0439453,1.1342773-2.4663086,1.3322754-3.4570312,1.890625.8823242,1.890625,1.0625,1.5305176,1.1704102l-.3422852.090332c-.6660156,1.4584961-1.4223633,2.7905273-2.2685547,3.9970703,4.2492676,3.4208984,3.3491211,5.7978516,2.1606445,4.8432617-.4682617-1.0800781-1.4042969-2.484375-2.8088379-3.9428711-1.6564941,2.1245117-3.6191406,3.7988281-5.7077637,4.9511719Z"/>
      <path class="cls-1" d="m174.8449576,117.8529307c.1621094-.1977539.2700195-.4140625.4140625-.4140625.2160645,0,1.260498.918457,1.260498,1.1884766-.1259766.144043-.3962402.2880859-.7382812.3598633v3.6015625c.0361328,2.1601562.0720215,2.8808594.144043,4.230957-.144043.2163086-.684082.4863281-1.0263672.4863281-.1621094,0-.2338867-.1801758-.2338867-.3603516.0358887-.1259766.0358887-.1977539.0717773-.3959961v-.3959961h-6.121582v.8823242c0,.1259766-.4321289.3959961-.8642578.3959961-.1801758,0-.3422852-.1801758-.3422852-.3603516.0900879-1.2421875.1259766-1.8544922.1621094-3.7270508v-2.0527344c0-1.2241211-.0720215-2.7006836-.2341309-3.690918l1.3864746.6484375h2.3947754v-2.4130859h-4.2492676c-.9362793.0180664-1.8005371.1083984-2.7009277.2524414l-.4680176-.918457c.7922363.0898438,1.5844727.1259766,2.3945312.144043h10.9833984l.3959961-.5581055c.2163086-.2700195.3962402-.5581055.5402832-.5581055.2160645,0,1.5844727,1.0800781,1.5844727,1.3500977-.0539551.1982422-.2160645.2880859-.4501953.2880859h-6.9140625v2.4130859h2.3227539l.2880859-.3964844Zm2.7368164,10.6772461v-6.9677734c0-1.2246094-.0720215-2.7011719-.2341309-3.6914062,1.9626465.5581055,1.9626465.7382812,1.6564941.9365234l-.3059082.1977539v6.6801758c.0358887,2.1606445.0717773,2.8808594.144043,4.2314453-.144043.2519531-.6303711.5219727-1.0263672.5219727-.2341309,0-.3061523-.1801758-.3061523-.3598633.0361328-.1801758.0361328-.2705078.0720215-.5405273v-.4682617h-11.8654785v.3603516c.0358887.3422852.0180664.4682617.0539551.5942383-.0539551.2338867-.5222168.5219727-.9362793.5219727-.2160645,0-.4140625-.1796875-.4140625-.3598633.1079102-1.5483398.1621094-2.3408203.197998-4.6816406v-3.925293c0-1.2241211-.0720215-2.7006836-.2341309-3.690918,1.9445801.5581055,1.9445801.7382812,1.6386719.9365234l-.3061523.1796875v9.5249023h11.8654785Zm-6.4638672-9.7587891h-2.5026855v2.9887695h2.5026855v-2.9887695Zm-2.5026855,3.5112305v3.3305664h2.5026855v-3.3305664h-2.5026855Zm6.121582-3.5112305h-2.5026855v2.9887695h2.5026855v-2.9887695Zm-2.5026855,6.8417969h2.5026855v-3.3305664h-2.5026855v3.3305664Z"/>
    </g>
    <g>
      <path class="cls-1" d="m24.2224611,21.5545383v4.8409277c-1.9117962-1.7377726-4.9187384-2.4863204-7.852072-2.4863204-2.9191335,0-11.6243702,1.6825662-11.6243702,11.5396043,0,9.8471851,8.0797082,12.8668784,12.4678549,12.8668784.9819518,0,4.6171757-.445709,5.8199815-.9311204v-8.2622808c0-1.2523613-.4557071-2.4750183-1.7377726-3.1414084h6.1667527s-.2122769.7966542-.2122769,2.1862348v10.0990194c0,.4018047,0,1.1490484.1315682,1.6428638-1.1616546.2618323-2.8950802.5801752-3.5984195.7584009-.7073965.1727195-4.3894227.663637-6.9237046.663637-2.5371799,0-16.8600026-.7966542-16.8600026-15.1790303,0-14.3794781,14.6921699-15.2171387,17.6595547-15.2171387,2.972891,0,5.6346839.5745242,6.5629064.6197326"/>
      <path class="cls-1" d="m75.4110738,51.3309746h8.2807983c-.9495226,0-2.6461439-2.648897-2.9617337-3.4851086l-9.8428086-25.430918h-6.2686461c.8136074.5602981,1.095146,1.7164725.8418627,2.5738394l-9.2415076,23.5885284c-.5264177,1.1646974-1.2310611,2.3362051-2.4635713,2.7536589h7.3284073c-1.3017718-.2830128-1.5847594-2.1182772-1.2041099-2.9657909l2.8570011-7.8604761h10.746978l3.0933019,8.2156233c.5943753,1.659817-.0452085,2.2201411-1.165972,2.6106437m-11.5706423-13.8927627l4.1601926-11.5338084,4.3285652,11.5338084h-8.4887578Z"/>
      <path class="cls-1" d="m168.2893622,51.2815641h8.284885c-.9437266,0-2.6319117-2.650346-2.9559378-3.4965556l-9.838636-25.4196159h-6.2742677c.8065073.5603241,1.0781928,1.7206746.8433117,2.5696373l-9.2358566,23.5928753c-.5292843,1.1631036-1.2452612,2.3305541-2.4692223,2.7536589h7.3340584c-1.2948167-.2774814-1.5805573-2.1197262-1.1984589-2.9659358l2.8356717-7.8661272h10.7612074l3.0890999,8.2183764c.5872753,1.6570387-.0311533,2.2273861-1.1758547,2.6136866m-11.5636576-13.8914586l4.1559906-11.5394594,4.3398673,11.5394594h-8.4958578Z"/>
      <path class="cls-1" d="m142.244249,48.3495346c0,1.1009419.9904977,2.7183036,1.8678606,2.9320295h-8.171719c.8843181-.2137259,1.8620959-1.8310875,1.8620959-2.9320295v-23.1668725c0-1.093697-.9777778-2.7196077-1.8620959-2.9262335h8.171719c-.8773629.2066258-1.8678606,1.8325365-1.8678606,2.9262335v23.1668725Z"/>
      <path class="cls-1" d="m32.4466335,22.1516667c.8857956.219351,1.873398,1.8325365,1.873398,2.9334784v23.1654235c0,1.093697-.9876025,2.7168546-1.873398,2.9318846h7.9014825c-.881565-.21503-1.8622408-1.8381876-1.8622408-2.9318846v-22.8951871c2.0333664-.663637,8.2779299-1.0938419,8.6642304,4.1091882.1656195,2.9050783-1.9216494,6.193559-7.3468095,6.7977875l5.8058096,8.6019238c1.7574789,2.5838374,4.1135352,6.1398015,7.8464209,6.411487l4.0483307.0552065c-3.0167953-1.8068894-5.7520521-4.6059017-6.9081715-6.187908l-6.1283835-8.0062444c3.0620038-.4344069,6.8953045-3.4497533,6.8953045-7.7218078,0-4.2733587-2.7932163-7.0793261-9.8541402-7.0793261l-9.061833-.1840216Z"/>
      <path class="cls-1" d="m108.2100718,22.2422285c.880116.2137259,1.8706449,1.8396366,1.8706449,2.9305805v19.8259384l-16.5431086-21.7235604-.5080156-.9848519h-6.1638548c.666535.0905618,1.3400251,1.1829547,2.0461175,2.109873.1344662.4456831.1457982.8843181.1457982,1.2295863v22.7042109c0,1.0951713-.9863568,2.7183036-1.869196,2.9375609h6.6731446c-.8659159-.2192573-1.8423896-1.8423896-1.8423896-2.9375609v-19.9250497l15.6757438,20.3523819c1.8352896,2.3998158,4.5550422,3.8064944,5.3218472,4.0045712v-27.5930996c0-1.0909439.990529-2.7168546,1.8720939-2.9305805h-6.6788255Z"/>
      <path class="cls-1" d="m120.9792883,38.2802195c0,17.6440506,19.2966226,36.1383679,20.6734521,37.5137484,1.3684253,1.3669763,2.5994865.5406178,1.2425082-.6876902-5.087111-5.221457-17.0030178-21.6526789-17.0030178-36.8260581,0-15.2369899,11.9159068-31.6767856,17.0030178-36.8841626,1.3569783-1.2381612.1259172-2.0545217-1.2425082-.6820392-1.3768294,1.3655273-20.6734521,19.8641917-20.6734521,37.5662018"/>
      <path class="cls-1" d="m180.2774287,46.4746876c1.443338,0,2.5414143,1.0894949,2.5414143,2.4734244,0,1.4121848-1.0980762,2.5145757-2.5414143,2.5145757-1.4234869,0-2.5342819-1.1023909-2.5342819-2.5145757,0-1.4065337,1.1503846-2.4734244,2.5342819-2.4734244m.0169532,4.5393931c1.1207931,0,1.9712048-.9156162,1.9712048-2.0546666,0-1.1135481-.8504117-2.0446685-1.988158-2.0446685-1.1220972,0-1.995258.9311204-1.995258,2.0333664,0,1.2339591.9693737,2.0659687,2.0122112,2.0659687m-.9353225-.7230456v-2.5697822c.2518343-.0495554.5419219-.0849108.8957651-.0849108.7513331,0,1.0867418.3028387,1.0867418.7428967,0,.3268919-.227926.5109136-.5080156.5943753v.0508595c.2419812.0736086.3580775.2816835.4216558.6282817.0863598.3863005.1514194.5433709.2137259.6382797h-.5335178c-.0694066-.0949088-.1244682-.3170388-.2051769-.663637-.0947639-.4218007-.3283087-.4218007-.887216-.4218007v1.0854377h-.4839624Zm.4839624-1.4560892c.4739643,0,.9777778,0,.9777778-.4005006,0-.2277811-.1698215-.4103537-.6098795-.4103537-.1811236,0-.2858856.0142001-.3678983.0240532v.7868011Z"/>
    </g>
    <g>
      <path class="cls-1" d="m1.3679069,102.3192393l-.2199707-.3300781c4.6865234-2.5961914,8.2509766-7.9428711,8.9331055-15.6660156v-1.6503906h-1.6281738c-1.012207.0219727-1.9802246.1323242-2.9484863.3081055l-.5720215-1.1220703c.9680176.1098633,1.9362793.1538086,2.9265137.1762695h1.7822266l.880127-1.4082031,2.354248,1.8037109c-.3300781.418457-1.1000977.6601562-2.15625.7485352l.0219727,1.078125c.7260742,6.8867188,3.9604492,12.0356445,9.8793945,14.565918l-.065918.2641602c-.7260742.0219727-1.1662598.4399414-1.4963379,1.2543945-3.5424805-2.0463867-7.2609863-6.3154297-8.2070312-11.9482422-1.3642578,5.5888672-4.6647949,9.6376953-9.4833984,11.9257812Z"/>
      <path class="cls-1" d="m30.2548698,83.1107432c.1760254-.2202148.3081055-.4624023.4841309-.4624023.263916,0,1.4960938,1.0566406,1.4960938,1.3867188-.1320801.1538086-.4179688.3295898-.7700195.3955078v1.9804688c.0439453,1.9804688.065918,2.640625.1540527,3.8505859-.1760254.2421875-.8581543.550293-1.2983398.550293h-.1760254v-.9902344h-4.4445801v6.6230469c.0439453,2.6401367.0878906,3.5205078.1760254,5.1704102-.1760254.3081055-.6381836.6821289-1.2541504.6821289-.2641602,0-.5061035-.2197266-.5061035-.4399414.1320801-1.8920898.197998-2.8603516.2419434-5.7207031v-8.8671875c0-1.496582-.0878906-3.3007812-.2858887-4.5107422l1.7382812.8139648h4.1364746l.3081055-.4619141Zm-.1101074,1.1220703h-4.4445801v2.1123047h4.4445801v-2.1123047Zm-4.4445801,4.9506836h4.4445801v-2.2001953h-4.4445801v2.2001953Zm4.5107422,10.8476562c0,.1318359-.550293.4619141-1.1003418.4619141-.2199707,0-.3520508-.2197266-.3520508-.4399414.0661621-.8579102.0881348-1.2763672.1320801-2.5742188v-1.5185547c0-1.4960938-.0878906-3.300293-.2861328-4.5102539l1.6943359.7919922h4.862793l.3081055-.4179688c.1757812-.1982422.2858887-.418457.4619141-.418457.2641602,0,1.5183105.9243164,1.5183105,1.2543945-.1320801.1757812-.4182129.3520508-.7702637.4179688v2.2441406c.0441895,2.2446289.0661621,2.9926758.1540527,4.3569336-.1760254.2641602-.8581543.6162109-1.2980957.6162109-.197998,0-.2861328-.2202148-.2861328-.4404297.0439453-.1098633.0439453-.1757812.0881348-.3520508v-.3959961h-5.126709v.9243164Zm5.126709-7.1728516h-5.126709v2.3979492h5.126709v-2.3979492Zm-5.126709,5.5883789h5.126709v-2.5302734h-5.126709v2.5302734Zm5.1047363-8.1411133c0,.1323242-.5942383.4404297-1.1662598.4404297-.1760254,0-.3081055-.2202148-.3081055-.4404297.0661621-.7041016.0881348-1.078125.1320801-2.15625v-1.3203125c0-1.2978516-.065918-2.9262695-.2419434-4.0043945l1.6721191.7480469h4.3127441l.3078613-.4399414c.1760254-.2202148.2861328-.4619141.4621582-.4619141.2641602,0,1.7163086,1.0556641,1.7163086,1.3857422-.1320801.1762695-.5061035.3740234-.9243164.4624023v15.6660156c0,1.1665039-.2199707,1.9145508-2.222168,2.1342773-.0439453-.4619141-.1540527-.8579102-.4179688-1.078125-.3300781-.2416992-.8581543-.4179688-1.826416-.5717773v-.3520508s2.1342773.1757812,2.5964355.1757812c.3959961,0,.5280762-.1318359.5280762-.4838867v-10.1875h-4.6206055v.4838867Zm4.6206055-6.0727539h-4.6206055v2.1123047h4.6206055v-2.1123047Zm-4.6206055,4.9506836h4.6206055v-2.2001953h-4.6206055v2.2001953Z"/>
      <path class="cls-1" d="m60.6159537,88.8094737c.1760254-.2421875.2861328-.5058594.4621582-.5058594.2641602,0,1.7163086,1.1879883,1.7163086,1.5180664-.1320801.1757812-.4621582.3740234-.9020996.4399414v7.480957c0,1.1000977-.2641602,1.8486328-2.3103027,2.0244141-.0881348-.4179688-.2202148-.7700195-.4841309-.9902344-.3300781-.2416992-.9240723-.4619141-1.9362793-.5717773v-.3300781s2.2663574.1538086,2.7944336.1538086c.4179688,0,.5500488-.1318359.5500488-.4399414v-7.6132812h-4.9729004v6.2709961c.0441895,2.640625.0881348,3.5205078.1762695,5.1708984-.1762695.3300781-.8361816.7260742-1.3422852.7260742-.2861328,0-.5280762-.2202148-.5280762-.4399414.1320801-1.8925781.197998-2.8608398.2419434-5.7211914v-6.0068359h-4.9067383v4.1147461c.0441895,2.6401367.0881348,3.5205078.1760254,5.1708984-.1760254.2641602-.7260742.59375-1.3200684.59375-.2421875,0-.4179688-.2197266-.4179688-.4399414.0878906-1.3642578.1318359-2.0463867.1757812-4.1142578v-2.2885742c0-1.4960938-.0878906-3.300293-.2858887-4.5107422l1.7822266.8139648h4.7966309v-3.2563477h-5.1706543c-1.1442871.0219727-2.2004395.1323242-3.3005371.3081055l-.5720215-1.144043c.9680176.1098633,1.9362793.1538086,2.9265137.1757812h6.1166992c0-1.1220703-.065918-2.4643555-.197998-3.3881836,2.3764648.6821289,2.3764648.9018555,2.0021973,1.1660156l-.3520508.2421875v1.9799805h5.875l.4841309-.6821289c.263916-.3520508.4838867-.7041016.6599121-.7041016.2641602,0,1.9362793,1.3642578,1.9362793,1.6943359-.065918.2421875-.2858887.3520508-.5720215.3520508h-8.6911621c.9460449.4399414.9460449.6601562.6159668.9023438l-.3081055.2197266v2.1342773h4.7749023l.3078613-.5058594Z"/>
      <path class="cls-1" d="m82.1098502,87.5555674c.1982422-.2641602.3520508-.5283203.5283203-.5283203.263916,0,1.6281738,1.1879883,1.6281738,1.5180664-.1320801.1762695-.4621582.3300781-.880127.418457v2.2001953c.0439453,2.2001953.065918,2.9262695.1540527,4.2685547-.1760254.2421875-.880127.59375-1.3642578.59375-.2199707,0-.2861328-.2197266-.2861328-.4399414.0441895-.0878906.0219727-.1538086.0661621-.3081055v-.3740234h-4.0266113c1.958252,2.4863281,5.5666504,4.4887695,8.8232422,5.3251953l-.0439453.2416992c-.5722656.0878906-1.0561523.5722656-1.2321777,1.2324219-3.1904297-1.2324219-6.2490234-3.6088867-7.9873047-6.6889648v2.2661133c.0439453,2.2446289.0661621,2.9926758.1540527,4.378418-.1540527.3081055-.7480469.6601562-1.2980957.6601562-.2861328,0-.4621582-.2197266-.4621582-.4399414.0881348-1.2319336.1320801-1.8481445.1760254-3.7182617v-2.090332c-2.1342773,2.4643555-5.2148438,4.4663086-8.7131348,5.7866211l-.197998-.3740234c3.2783203-1.6064453,6.1828613-4.0263672,7.9650879-6.5791016h-3.4326172v.7919922c0,.1323242-.6159668.4624023-1.1660156.4624023-.2202148,0-.3520508-.2202148-.3520508-.4399414.065918-.8364258.0878906-1.2543945.1318359-2.5087891v-1.4741211c0-1.4960938-.0878906-3.300293-.2858887-4.5102539l1.8041992.8359375h4.246582v-2.3105469h-4.7966309c-1.1442871.0219727-2.2004395.1323242-3.3005371.3081055l-.5500488-1.1220703c.9680176.1098633,1.9362793.1538086,2.9265137.1762695h5.7207031c0-.9902344-.065918-2.2446289-.197998-3.0805664,2.354248.7041016,2.354248.9238281,1.9802246,1.1879883l-.3520508.2421875v1.6503906h5.4567871l.5061035-.7265625c.2861328-.3515625.5061035-.7260742.6821289-.7260742.2641602,0,1.9802246,1.4082031,1.9802246,1.7382812-.0439453.2421875-.2858887.3520508-.5720215.3520508h-8.0532227v2.3105469h4.2685547l.3520508-.5058594Zm-6.0507812,1.144043h-4.3786621v2.4204102h4.3786621v-2.4204102Zm-4.3786621,3.0581055v2.4863281h4.3786621v-2.4863281h-4.3786621Zm10.2756348-3.0581055h-4.4667969v2.4204102h4.4667969v-2.4204102Zm-4.4667969,5.5444336h4.4667969v-2.4863281h-4.4667969v2.4863281Z"/>
      <path class="cls-1" d="m91.3481315,98.2708995c.0439453.5942383.0439453.7919922.0878906,1.0561523-.0878906.2861328-.5500488.6162109-1.144043.6162109-.2419434,0-.4841309-.2202148-.4841309-.4404297.1320801-1.8920898.197998-2.8603516.2421875-5.7207031v-6.0727539c0-1.4960938-.0881348-3.300293-.2861328-4.5107422l1.6943359.8364258h5.7426758l.3300781-.4404297c.197998-.2197266.3300781-.4399414.5061035-.4399414.2641602,0,1.5842285,1.0341797,1.5842285,1.3642578-.1320801.1757812-.5061035.3520508-.9240723.4399414v8.559082c.0439453,2.640625.0878906,3.5205078.1760254,5.1708984-.197998.2421875-.8361816.6162109-1.276123.6162109-.1762695,0-.2641602-.2202148-.2641602-.4399414.0439453-.1982422.0439453-.3081055.0878906-.6381836v-.550293h-6.0727539v.5942383Zm2.3322754-13.5761719h-2.3322754v5.7431641h2.3322754v-5.7431641Zm-2.3322754,6.3813477v5.9404297h2.3322754v-5.9404297h-2.3322754Zm6.0727539-6.3813477h-2.5083008v5.7431641h2.5083008v-5.7431641Zm-2.5083008,12.3217773h2.5083008v-5.9404297h-2.5083008v5.9404297Zm7.5690918-11.9697266c-.8361816.0219727-1.6501465.1323242-2.4643555.3081055l-.5500488-1.144043c.9682617.1098633,1.9362793.1538086,2.9265137.1757812h3.5644531l.4621582-.6816406c.263916-.3300781.4619141-.6826172.6379395-.6826172.2641602,0,1.826416,1.3422852,1.826416,1.6723633-.0661621.2421875-.2861328.3520508-.550293.3520508h-3.1242676v14.9404297c0,1.1660156-.2641602,2.0244141-2.2883301,2.222168-.0439453-.4399414-.1760254-.8359375-.4841309-1.0561523-.3520508-.2641602-.9240723-.4619141-1.9802246-.5942383v-.3295898s2.3762207.1757812,2.8603516.1757812c.4179688,0,.5280762-.1318359.5280762-.484375v-14.8740234h-1.3642578Z"/>
      <path class="cls-1" d="m119.0021842,87.2254893c-.2199707.9018555-.4841309,1.2978516-1.1882324,1.2978516-.4619141,0-.8361816-.1977539-1.0341797-.7700195.4841309-2.0244141,2.3103027-2.9702148,4.4006348-2.9702148,2.706543,0,4.4226074,1.5400391,4.4226074,3.762207,0,1.8041992-1.1879883,3.2348633-3.2783203,3.8945312,2.5302734.4399414,3.7844238,1.9145508,3.7844238,3.9604492,0,2.6186523-2.1342773,4.5107422-5.2365723,4.5107422-2.2663574,0-4.0046387-.9677734-4.4887695-3.2124023.2199707-.4399414.5720215-.6821289,1.0341797-.6821289.6601562,0,.9020996.4404297,1.1882324,1.4082031l.4179688,1.3642578c.5500488.1762695,1.078125.2421875,1.5842285.2421875,2.4423828,0,3.7185059-1.3642578,3.7185059-3.5644531,0-2.2226562-1.276123-3.5424805-3.8725586-3.5424805h-1.1220703v-.9462891h.9460449c2.2004395,0,3.6086426-1.2319336,3.6086426-3.3886719,0-1.8261719-1.1003418-2.9042969-3.0366211-2.9042969-.4399414,0-.9020996.0439453-1.4301758.1762695l-.4179688,1.3642578Z"/>
      <path class="cls-1" d="m137.9440787,85.2010752c-1.1442871.0219727-2.2004395.1318359-3.3005371.3081055l-.5939941-1.1000977c.9680176.1098633,1.9362793.1538086,2.9262695.1757812h13.0258789l.5280762-.7480469c.2861328-.3740234.5061035-.7480469.6821289-.7480469.2641602,0,2.0463867,1.4521484,2.0463867,1.7822266-.065918.2197266-.2861328.3300781-.5720215.3300781h-8.0751953v14.7641602c0,1.1879883-.2861328,2.0678711-2.5964355,2.2880859-.065918-.4619141-.2419434-.8579102-.5939941-1.078125-.4401855-.2861328-1.1442871-.4838867-2.3984375-.6381836v-.3300781s2.970459.1982422,3.5644531.1982422c.4621582,0,.6162109-.1318359.6162109-.5283203v-14.6757812h-5.2587891Z"/>
      <path class="cls-1" d="m160.7140983,100.9110362c.0441895.3964844.0219727.5283203.0661621.6821289-.0661621.3081055-.5942383.7041016-1.1882324.7041016-.2861328,0-.5280762-.2197266-.5280762-.4399414.1320801-1.8920898.197998-2.8603516.2419434-5.7207031v-8.6035156c0-1.4960938-.0878906-3.300293-.2858887-4.5107422l1.8261719.8583984h9.7473145l.3742676-.5058594c.197998-.2421875.3520508-.5063477.527832-.5063477.2641602,0,1.7824707,1.1879883,1.7824707,1.5180664-.1760254.1982422-.5500488.3964844-1.012207.484375v11.4633789c.0439453,2.640625.0878906,3.5205078.1760254,5.1708984-.2199707.2861328-.880127.6821289-1.4082031.6821289-.2199707,0-.3081055-.2202148-.3081055-.4399414.0439453-.2202148.0439453-.3300781.0881348-.6821289v-.5722656h-10.0996094v.4179688Zm10.0996094-16.3920898h-10.0996094v4.5986328h10.0996094v-4.5986328Zm0,5.2368164h-10.0996094v4.6645508h10.0996094v-4.6645508Zm-10.0996094,10.0991211h10.0996094v-4.7744141h-10.0996094v4.7744141Z"/>
      <path class="cls-1" d="m193.692858,95.7625987h-2.5961914v4.8408203h-1.6503906v-4.8408203h-6.6228027v-1.012207l7.1289062-9.8354492h1.1442871v9.6152344h2.5961914v1.2324219Zm-4.246582-1.2324219v-7.546875l-5.4348145,7.546875h5.4348145Z"/>
      <path class="cls-1" d="m210.3244498,94.8822276c.2199707-.3081055.3740234-.6157227.5500488-.6157227.2641602,0,1.4743652,1.1879883,1.4743652,1.5180664-.0441895.2202148-.2641602.3300781-.5500488.3300781h-7.4150391c-1.1442871.0219727-2.2004395.1318359-3.3005371.3081055l-.5500488-1.1220703c.5720215.1098633,1.144043.1538086,1.7602539.1757812h.8139648v-9.2192383h-.6159668c-.3520508.0219727-.6821289.1318359-1.012207.3081055l-.5720215-1.1445312c.4838867.1103516.9680176.1542969,1.4960938.1762695h.7041016c0-1.078125-.065918-2.3764648-.197998-3.2563477,2.2224121.6816406,2.2224121.9018555,1.8703613,1.144043l-.3300781.2202148v1.8920898h3.8066406c0-1.0561523-.0661621-2.3764648-.1982422-3.2788086,2.2663574.6826172,2.2663574.9023438,1.892334,1.1445312l-.3520508.2421875v1.8920898h.3081055l.3520508-.550293c.197998-.2636719.3300781-.5498047.5061035-.5498047.263916,0,1.3642578,1.078125,1.3642578,1.4082031-.0441895.2421875-.2641602.3520508-.5283203.3520508h-2.0021973v9.2192383h.3300781l.3959961-.5942383Zm-4.6865234,2.9926758l-.4182129.0878906c-1.078125,1.9580078-2.6184082,3.4545898-4.2246094,4.3564453l-.263916-.2861328c.3740234-.3295898.7480469-.7480469,1.1000977-1.2099609.9020996-1.144043,1.7382812-3.0805664,1.9802246-4.2905273l1.2321777.6601562c1.012207.3520508,1.012207.5717773.5942383.6821289Zm2.6184082-11.6176758h-3.8066406v2.4643555h3.8066406v-2.4643555Zm-3.8066406,3.1245117v2.6401367h3.8066406v-2.6401367h-3.8066406Zm0,3.2783203v2.8164062h3.8066406v-2.8164062h-3.8066406Zm2.9484863,4.2026367c4.2905273,1.4960938,3.234375,4.5107422,1.8481445,3.4765625-.2199707-1.1000977-1.2541504-2.5083008-2.1123047-3.3007812l.2641602-.1757812Zm6.5788574-2.8164062c-.2419434,3.0805664-1.1220703,6.0727539-3.9165039,8.2070312l-.3081055-.2416992c2.6623535-2.8828125,3.036377-6.6894531,3.036377-10.8476562v-4.1806641c0-1.3862305-.0878906-3.1245117-.263916-4.2685547l1.8261719.8139648h3.5205078l.2861328-.4399414c.1760254-.2202148.2858887-.4619141.4619141-.4619141.2641602,0,1.6943359,1.0556641,1.6943359,1.3857422-.1320801.1762695-.4841309.3740234-.9020996.4404297v15.7099609c0,1.1660156-.2199707,1.8701172-2.15625,2.090332-.0661621-.4399414-.1760254-.8359375-.4621582-1.0341797-.2861328-.2416992-.814209-.4399414-1.7602539-.5498047v-.3740234s2.1123047.1757812,2.5522461.1757812c.3742676,0,.5061035-.1318359.5061035-.4838867v-5.940918h-4.114502Zm.1101074-2.9042969c0,.7480469-.0222168,1.4960938-.0661621,2.2441406h4.0705566v-4.4008789h-4.0043945v2.1567383Zm4.0043945-6.953125h-4.0043945v4.1806641h4.0043945v-4.1806641Z"/>
    </g>
  </g>
</svg>