<?xml version="1.0" encoding="UTF-8"?>
<svg id="_レイヤー_2" data-name="レイヤー 2" xmlns="http://www.w3.org/2000/svg" xmlns:xlink="http://www.w3.org/1999/xlink" viewBox="0 0 669.58 1837.32">
  <defs>
    <style>
      .cls-1 {
        letter-spacing: .08em;
      }

      .cls-2 {
        letter-spacing: -.18em;
      }

      .cls-3 {
        letter-spacing: .04em;
      }

      .cls-4 {
        letter-spacing: .1em;
      }

      .cls-5 {
        letter-spacing: -.16em;
      }

      .cls-6 {
        letter-spacing: .25em;
      }

      .cls-7 {
        letter-spacing: -.14em;
      }

      .cls-8 {
        letter-spacing: .13em;
      }

      .cls-9 {
        font-size: 18px;
      }

      .cls-9, .cls-10, .cls-11 {
        font-weight: 300;
      }

      .cls-9, .cls-11 {
        font-family: RyuminPr6N-Light-90ms-RKSJ-H, 'A-OTF Ryumin Pr6N';
      }

      .cls-12 {
        letter-spacing: .11em;
      }

      .cls-13 {
        letter-spacing: .09em;
      }

      .cls-14 {
        fill: #e50038;
      }

      .cls-15 {
        letter-spacing: .04em;
      }

      .cls-16 {
        letter-spacing: .11em;
      }

      .cls-17 {
        font-size: 20.92px;
      }

      .cls-18 {
        letter-spacing: -.11em;
      }

      .cls-19 {
        letter-spacing: -.15em;
      }

      .cls-20, .cls-21 {
        font-size: 20.41px;
      }

      .cls-20, .cls-21, .cls-22 {
        font-family: KozGoPro-Regular-90ms-RKSJ-H, 'Kozuka Gothic Pro';
      }

      .cls-20, .cls-23 {
        fill: #e73a1f;
      }

      .cls-24 {
        letter-spacing: .13em;
      }

      .cls-25 {
        letter-spacing: .04em;
      }

      .cls-10 {
        font-family: KozGoPro-Light-90ms-RKSJ-H, 'Kozuka Gothic Pro';
        font-size: 12.54px;
      }

      .cls-11 {
        font-size: 20px;
      }

      .cls-26 {
        letter-spacing: .13em;
      }

      .cls-27 {
        letter-spacing: -.04em;
      }

      .cls-28 {
        letter-spacing: .1em;
      }

      .cls-29 {
        letter-spacing: .12em;
      }

      .cls-30 {
        letter-spacing: .09em;
      }

      .cls-31 {
        letter-spacing: .05em;
      }

      .cls-32 {
        letter-spacing: -.16em;
      }

      .cls-33 {
        font-size: 15.46px;
      }

      .cls-34 {
        letter-spacing: -.5em;
      }

      .cls-35 {
        letter-spacing: .13em;
      }

      .cls-36 {
        letter-spacing: -.5em;
      }

      .cls-37 {
        letter-spacing: .12em;
      }

      .cls-38 {
        letter-spacing: -.14em;
      }

      .cls-39 {
        clip-path: url(#clippath-1);
      }

      .cls-40 {
        letter-spacing: 0em;
      }

      .cls-41 {
        letter-spacing: -.25em;
      }

      .cls-42 {
        letter-spacing: -.05em;
      }

      .cls-43 {
        letter-spacing: 0em;
      }

      .cls-44 {
        letter-spacing: -.09em;
      }

      .cls-45 {
        font-family: ShipporiMinchoB1-Regular, 'Shippori Mincho B1';
        font-size: 24px;
      }

      .cls-46 {
        letter-spacing: -.38em;
      }

      .cls-47 {
        letter-spacing: -.5em;
      }

      .cls-48 {
        letter-spacing: .02em;
      }

      .cls-49 {
        letter-spacing: -.5em;
      }

      .cls-50 {
        letter-spacing: -.35em;
      }

      .cls-51 {
        letter-spacing: .12em;
      }

      .cls-52 {
        letter-spacing: -.07em;
      }

      .cls-23 {
        font-family: Meiryo-Bold, Meiryo;
        font-size: 27.79px;
        font-weight: 700;
      }

      .cls-53 {
        letter-spacing: -.05em;
      }

      .cls-54 {
        letter-spacing: .05em;
      }

      .cls-55 {
        letter-spacing: .02em;
      }

      .cls-56 {
        letter-spacing: .15em;
      }

      .cls-57 {
        letter-spacing: -.23em;
      }

      .cls-58 {
        fill: #009d95;
      }

      .cls-59 {
        letter-spacing: .08em;
      }

      .cls-60 {
        letter-spacing: .1em;
      }

      .cls-61 {
        letter-spacing: .11em;
      }

      .cls-62 {
        letter-spacing: 0em;
      }

      .cls-63 {
        letter-spacing: .1em;
      }

      .cls-64 {
        letter-spacing: -.05em;
      }

      .cls-65 {
        clip-path: url(#clippath);
      }

      .cls-66 {
        letter-spacing: -.12em;
      }

      .cls-67 {
        letter-spacing: -.1em;
      }

      .cls-68 {
        letter-spacing: .04em;
      }

      .cls-69 {
        fill: none;
      }

      .cls-70 {
        letter-spacing: -.02em;
      }

      .cls-71 {
        letter-spacing: .25em;
      }

      .cls-72 {
        letter-spacing: .11em;
      }

      .cls-73 {
        letter-spacing: .12em;
      }

      .cls-74 {
        letter-spacing: .03em;
      }

      .cls-75 {
        letter-spacing: -.11em;
      }

      .cls-76 {
        letter-spacing: .12em;
      }

      .cls-77 {
        letter-spacing: .09em;
      }

      .cls-78 {
        letter-spacing: -.14em;
      }

      .cls-79 {
        letter-spacing: 0em;
      }

      .cls-80 {
        letter-spacing: .06em;
      }

      .cls-81 {
        fill: #231815;
      }

      .cls-82 {
        letter-spacing: .39em;
      }

      .cls-83 {
        letter-spacing: .02em;
      }

      .cls-84 {
        letter-spacing: 0em;
      }

      .cls-85 {
        letter-spacing: -.26em;
      }

      .cls-86 {
        letter-spacing: 0em;
      }

      .cls-87 {
        letter-spacing: .25em;
      }

      .cls-88 {
        letter-spacing: .01em;
      }

      .cls-89 {
        letter-spacing: .25em;
      }

      .cls-90 {
        font-family: Meiryo, Meiryo;
        font-size: 27.13px;
      }
    </style>
    <clipPath id="clippath">
      <rect class="cls-69" width="669.58" height="1837.32"/>
    </clipPath>
    <clipPath id="clippath-1">
      <rect class="cls-69" x="491.05" y="1691.6" width="161.82" height="107.89"/>
    </clipPath>
  </defs>
  <g id="_レイヤー_4" data-name="レイヤー 4">
    <g class="cls-65">
      <g>
        <path d="m138.58,1374.51l-6.05,23.07h-.1l-5.54-23.07h-8.23l-5.17,23.07h-.1l-5.9-23.07h-8.28l10.5,36.6h8.06s3.79-15.84,4.92-22.97h.11c1.23,7.14,3.84,22.97,3.84,22.97h8.27l11.53-36.6h-7.86Z"/>
        <path d="m209.34,1373.97h-13.07v37.14h15c12.26,0,16.23-11.42,16.23-19.38s-5.58-17.76-18.16-17.76m.19,30.52h-5.65v-23.56h4.46c8.07,0,11.32,4.93,11.32,11.84s-3.73,11.72-10.13,11.72"/>
        <polygon points="225.91 1380.54 237.14 1380.54 237.14 1411.11 244.89 1411.11 244.89 1380.54 256.12 1380.54 256.12 1373.97 225.91 1373.97 225.91 1380.54"/>
        <polygon points="266.68 1394.92 284.78 1394.92 284.78 1388.34 266.68 1388.34 266.68 1380.54 284.48 1380.54 284.48 1373.97 259.08 1373.97 259.08 1411.11 284.82 1411.11 284.82 1404.54 266.68 1404.54 266.68 1394.92"/>
        <path d="m312.77,1396.68c0,4.39-3.43,7.94-8.09,7.94-6.25,0-9.53-5.45-9.53-11.8,0-9.98,5.98-12.61,9.53-12.61,5.5,0,7.57,4.81,7.82,6.88h7.12c-.39-5.22-4.42-13.01-14.99-13.01-9.1,0-16.75,6.3-16.75,18.64s7.99,18.55,16.65,18.55c11.15,0,15.35-7.53,15.35-14.58h-7.11Z"/>
        <path d="m174.39,1362.67c-8.13,0-15.06,5.05-17.88,12.18-7.12,2.82-12.17,9.75-12.17,17.87,0,10.62,8.61,19.22,19.23,19.22,8.12,0,15.06-5.05,17.87-12.18,7.12-2.81,12.17-9.74,12.17-17.87,0-10.62-8.61-19.23-19.23-19.23m.49,30.53c-.16,0-.32.03-.49.03-6.26,0-11.33-5.07-11.33-11.33,0-.17.02-.33.02-.49.16,0,.32-.02.48-.02,6.26,0,11.33,5.08,11.33,11.34,0,.16-.02.32-.03.48m-22.64-.48c0-3.05,1.21-5.82,3.17-7.86,1.28,8.24,7.78,14.73,16.02,16.01-2.04,1.97-4.81,3.18-7.86,3.18-6.26,0-11.33-5.08-11.33-11.33m30.31-2.97c-1.28-8.24-7.78-14.73-16.01-16.01,2.04-1.97,4.8-3.18,7.86-3.18,6.26,0,11.33,5.07,11.33,11.34,0,3.05-1.21,5.82-3.18,7.85"/>
        <polygon points="346.39 1378.95 352.82 1378.95 352.82 1404.23 368.09 1404.23 368.09 1409.73 346.39 1409.73 346.39 1378.95"/>
        <path d="m375.97,1384.23h-6.01v-5.45h6.01v5.45Zm-6.01,2.75h6.01v22.75h-6.01v-22.75Z"/>
        <polygon points="393.59 1386.98 399.98 1386.98 391.75 1409.73 385.49 1409.73 377.33 1386.98 384.02 1386.98 388.74 1403.77 393.59 1386.98"/>
        <path d="m409.77,1391.3c1.42,0,2.62.41,3.59,1.21.94.8,1.48,1.97,1.59,3.51h-10.39c.23-1.45.76-2.59,1.61-3.45.86-.85,2.06-1.27,3.61-1.27m.04-4.94c-3.34,0-6.04,1.06-8.14,3.16-2.08,2.11-3.12,5.14-3.12,9.08,0,4.22,1.15,7.26,3.46,9.11,2.31,1.88,4.98,2.81,8.01,2.81,3.67,0,6.52-1.09,8.55-3.3,1.33-1.4,2.05-2.76,2.21-4.11h-6.06c-.35.66-.76,1.18-1.23,1.55-.85.69-1.95,1.03-3.33,1.03-1.28,0-2.37-.29-3.28-.86-1.5-.91-2.3-2.52-2.39-4.81h16.59c.02-1.97-.05-3.46-.19-4.52-.28-1.78-.88-3.35-1.82-4.7-1.02-1.53-2.34-2.65-3.93-3.37-1.58-.7-3.36-1.06-5.34-1.06"/>
        <polygon points="431.28 1378.95 438 1378.95 450.17 1400.34 450.17 1378.95 456.12 1378.95 456.12 1409.73 449.74 1409.73 437.25 1387.91 437.25 1409.73 431.28 1409.73 431.28 1378.95"/>
        <path d="m472.17,1400.89c-.04,1.99-.61,3.37-1.69,4.11-1.09.76-2.27,1.13-3.56,1.13-.82,0-1.52-.22-2.08-.68-.56-.46-.84-1.2-.84-2.21,0-1.14.46-1.98,1.38-2.52.55-.33,1.46-.6,2.72-.82l1.34-.25c.67-.12,1.2-.27,1.59-.41.39-.15.75-.34,1.14-.57v2.21Zm-5.65-4.76c-2.3.29-4.06.78-5.24,1.47-2.16,1.25-3.24,3.28-3.24,6.08,0,2.17.69,3.84,2.03,5.01,1.33,1.18,3.03,1.77,5.1,1.77,1.63,0,3.07-.37,4.35-1.11,1.08-.63,2.03-1.38,2.85-2.28.05.51.1.97.18,1.37.06.4.19.84.36,1.28h6.48v-.89c-.39-.18-.69-.4-.88-.68-.19-.27-.31-.79-.36-1.57-.03-1.03-.04-1.91-.04-2.63v-10.46c0-2.75-.95-4.6-2.9-5.57-1.94-.97-4.15-1.45-6.65-1.45-3.84,0-6.53,1-8.11,2.99-.99,1.28-1.55,2.91-1.68,4.88h5.73c.15-.88.43-1.59.83-2.1.6-.69,1.6-1.05,3.02-1.05,1.25,0,2.22.17,2.87.53.65.35.97,1,.97,1.93,0,.78-.43,1.33-1.27,1.7-.47.21-1.26.39-2.37.52l-2.03.25Z"/>
        <path d="m479.3,1391.42v-4.21h3.14v-6.34h5.95v6.34h3.72v4.21h-3.72v12.07c0,.94.12,1.52.36,1.75.24.24.96.34,2.19.34.18,0,.36,0,.56,0,.22,0,.4-.03.6-.05v4.44l-2.85.12c-2.84.09-4.77-.4-5.81-1.47-.68-.69-1.01-1.74-1.01-3.16v-14.03h-3.14Z"/>
        <path d="m500.02,1386.98v13.67c0,1.29.15,2.27.46,2.91.55,1.15,1.6,1.73,3.2,1.73,2.04,0,3.43-.82,4.18-2.46.39-.88.58-2.06.58-3.51v-12.34h6.02v22.75h-5.78v-3.25c-.06.07-.19.27-.43.63-.22.36-.48.66-.8.94-.93.84-1.82,1.42-2.69,1.73-.86.31-1.89.46-3.05.46-3.36,0-5.63-1.22-6.79-3.68-.65-1.33-.97-3.29-.97-5.9v-13.68h6.06Z"/>
        <path d="m529.85,1386.49c.07,0,.24.03.5.04v6.01c-.37-.02-.7-.03-.99-.04-.28,0-.53,0-.71,0-2.38,0-3.97.77-4.79,2.33-.46.89-.68,2.23-.68,4.05v10.86h-5.96v-22.75h5.62v3.97c.91-1.51,1.71-2.54,2.4-3.1,1.1-.92,2.56-1.39,4.34-1.39.11,0,.2,0,.28.02"/>
        <path d="m544.33,1400.89c-.05,1.99-.61,3.37-1.69,4.11-1.11.76-2.29,1.13-3.58,1.13-.8,0-1.49-.22-2.08-.68-.56-.46-.84-1.2-.84-2.21,0-1.14.47-1.98,1.4-2.52.54-.33,1.45-.6,2.71-.82l1.35-.25c.67-.12,1.21-.27,1.57-.41.4-.15.79-.34,1.16-.57v2.21Zm-5.66-4.76c-2.3.29-4.05.78-5.24,1.47-2.15,1.25-3.24,3.28-3.24,6.08,0,2.17.67,3.84,2.01,5.01,1.35,1.18,3.05,1.77,5.12,1.77,1.61,0,3.07-.37,4.35-1.11,1.06-.63,2.02-1.38,2.84-2.28.04.51.11.97.17,1.37.06.4.19.84.37,1.28h6.48v-.89c-.4-.18-.68-.4-.88-.68-.19-.27-.31-.79-.36-1.57-.03-1.03-.05-1.91-.05-2.63v-10.46c0-2.75-.97-4.6-2.9-5.57-1.94-.97-4.16-1.45-6.64-1.45-3.84,0-6.55,1-8.12,2.99-.99,1.28-1.55,2.91-1.68,4.88h5.73c.14-.88.43-1.59.85-2.1.58-.69,1.58-1.05,3-1.05,1.27,0,2.21.17,2.86.53.66.35.98,1,.98,1.93,0,.78-.42,1.33-1.28,1.7-.47.21-1.25.39-2.35.52l-2.04.25Z"/>
        <rect x="554.26" y="1379" width="5.96" height="30.73"/>
        <path d="m566.15,1378.71c-1.54,0-2.79,1.25-2.79,2.79s1.25,2.78,2.79,2.78,2.79-1.25,2.79-2.78-1.25-2.79-2.79-2.79m0,5.31c-1.39,0-2.52-1.13-2.52-2.52s1.13-2.52,2.52-2.52,2.52,1.13,2.52,2.52-1.13,2.52-2.52,2.52"/>
        <path d="m565.34,1381.3v-1.11h1.07c.14,0,.26.02.35.06.17.07.24.24.24.48s-.05.38-.17.45c-.12.08-.29.13-.48.13h-1.01Zm-.45,1.81h.45v-1.44h.99c.18,0,.31.02.4.07.13.08.21.22.22.44l.03.56c0,.12.01.22.02.26,0,.05.02.08.04.11h.54v-.08c-.06-.03-.11-.1-.13-.2-.02-.06-.03-.16-.03-.28v-.45c-.02-.18-.07-.33-.12-.42-.07-.09-.17-.15-.3-.2.14-.08.27-.19.35-.32.09-.11.13-.29.13-.48,0-.39-.15-.66-.47-.79-.15-.07-.36-.1-.61-.1h-1.51v3.32Z"/>
      </g>
      <g>
        <g>
          <g>
            <path class="cls-81" d="m507.18,1448.66c-.59.28-1.18.57-2.66,1.14v6.16c0,.97-.22,1.6-1.68,1.6h-1.7l-.26-1.18,1.62.04c.57.02.91-.06.91-.73v-5.5c-1.2.47-1.91.69-2.76.97l-.18-1.14c.67-.18,1.4-.37,2.94-.91v-5.01h-2.78v-1.01h2.78v-4.12h1.12v4.12h2.66v1.01h-2.66v4.6c1.16-.43,1.93-.77,2.66-1.07v1.01Zm9.21,7.12c0,.41.06.53.53.53h.47c.37,0,.53-.1.59-.41.16-.83.24-2.68.24-3.14l1.12.38c-.08,4-.83,4.32-1.87,4.32h-.83c-.97,0-1.38-.3-1.38-1.24v-10.22h-4.95v3.16c0,3.91-.69,6.47-3.91,8.42l-.69-.95c2.15-1.32,3.47-2.66,3.47-7.52v-4.12h7.22v10.79Zm-2.92-16.79v2.74h5.72v.99h-11.78v-.99h4.91v-2.74h1.16Z"/>
            <path class="cls-81" d="m538.13,1442.76v1.38c0,4.42-1.22,11.5-12.31,12.39l-.37-1.18c10.85-1.1,11.36-7.24,11.36-11.03v-.45h-12.21v5.27h-1.24v-6.39h6.67v-3.33h1.3v3.33h6.79Z"/>
            <path class="cls-81" d="m552.76,1456.85h-1.3v-10.08c-1.87,1.38-4.87,3.3-8.62,4.6l-.57-1.2c2.43-.73,9.31-3.59,14.56-10.5l1.22.73c-1.3,1.58-2.8,3.31-5.29,5.35v11.09Z"/>
            <path class="cls-81" d="m566.43,1445.59c0,5.01-1.01,8.13-4.04,11.13l-.87-.87c3.49-3.16,3.71-7.1,3.71-10.18v-5.21h1.2v5.13Zm5.21,9.33c5.13-.97,6.37-4.6,7.02-8.33l1.13.47c-.83,4.08-2.39,8.6-9.39,9.35v-16.55h1.24v15.07Z"/>
            <path class="cls-81" d="m596.81,1440.83c-.99,3.85-2.53,6.25-4.04,8.27,2.47,1.99,4.81,4.1,7.1,6.35l-1.03.95c-2.78-2.98-6.21-5.86-6.81-6.37-1.44,1.7-4.08,4.52-8.44,6.51l-.77-.97c3.22-1.4,9.43-5.19,12.39-13.59h-11.46v-1.16h13.06Z"/>
            <path class="cls-81" d="m602.74,1448.37c.73-1.85.89-3.67.91-5.21l1.08.1c-.12,2.35-.39,3.89-.91,5.52l-1.08-.41Zm4.22-9.39v18.6h-1.14v-18.6h1.14Zm1.7,7.2c-.18-1.26-.61-2.47-.91-3.33l.91-.24c.55,1.4.81,2.39.99,3.18l-.99.38Zm6.77-2.47v-4.72h1.13v4.72h4.85v1.03h-4.85v4.66h4.36v1.01h-4.36v5.29h5.13v1.05h-12.53v-1.05h6.27v-5.29h-4.85v-1.01h4.85v-4.66h-3.53c-.38,1.08-1.03,2.72-1.93,3.81l-.85-.71c1.87-2.64,2.53-5.9,2.72-7.87l1.1.2c-.06.59-.16,1.7-.69,3.53h3.18Z"/>
            <path class="cls-81" d="m631.46,1440.02c.85,1.01,2.19,2.82,3.02,4.26l-.91.63c-.2-.38-.37-.71-.81-1.4-.95.14-1.64.2-7.69.79l-.14-1.12c.24.02,1.1-.04,1.4-.04.53-1.01,1.22-2.72,1.76-4.08l1.12.28c-.3.59-1.52,3.2-1.8,3.73,3.27-.2,3.63-.22,4.83-.36-.83-1.2-1.18-1.64-1.58-2.15l.81-.55Zm1.81,5.76v10.36c0,1.03-.45,1.42-1.48,1.42h-2.09l-.22-1.16,2.19.08c.53.02.53-.28.53-.53v-3h-5.23v4.6h-1.08v-11.78h7.38Zm-1.08,1.03h-5.23v2.05h5.23v-2.05Zm0,2.98h-5.23v2.21h5.23v-2.21Zm4.38-10.81v3.43c1.07-.28,3.75-1.09,5.66-2.43l.75.87c-1.87,1.26-4.79,2.13-6.41,2.49v2.68c0,.41,0,.75.75.75h3.89c.75,0,1.01,0,1.16-2.94l1.05.36c-.16,2.66-.3,3.55-1.87,3.55h-4.44c-1.28,0-1.64-.55-1.64-1.5v-7.26h1.09Zm0,9.43v3.29c.89-.18,3.27-.75,5.58-2.41l.77.87c-1.87,1.32-4.75,2.17-6.35,2.51v2.6c0,.63.06.87.97.87h3.67c.57,0,.69-.1.81-.45.1-.28.28-1.38.32-2.74l1.1.28c-.28,3.24-.32,3.93-2.17,3.93h-3.97c-.53,0-1.83,0-1.83-1.54v-7.22h1.09Z"/>
          </g>
          <g>
            <g>
              <path class="cls-14" d="m479.43,1495.96c.89.09,1.92,0,3.32-.14,2.38-.33,4.63-1.31,6.36-2.95,2.01-1.82,3.46-4.49,4.02-8.09h-.14c-1.68,2.06-4.11,3.27-7.15,3.27-5.47,0-8.98-4.11-8.98-9.3,0-5.75,4.16-10.8,10.38-10.8s10.05,5.05,10.05,12.81c0,6.69-2.24,11.36-5.24,14.26-2.34,2.29-5.56,3.69-8.84,4.07-1.5.23-2.8.28-3.79.23v-3.37Zm1.5-17.49c0,3.79,2.29,6.45,5.84,6.45,2.76,0,4.91-1.36,5.98-3.18.23-.37.38-.84.38-1.5,0-5.19-1.92-9.16-6.22-9.16-3.51,0-5.98,3.09-5.98,7.39Z"/>
              <path class="cls-14" d="m503.41,1495.96c.89.09,1.92,0,3.32-.14,2.38-.33,4.63-1.31,6.36-2.95,2.01-1.82,3.46-4.49,4.02-8.09h-.14c-1.68,2.06-4.11,3.27-7.15,3.27-5.47,0-8.98-4.11-8.98-9.3,0-5.75,4.16-10.8,10.38-10.8s10.05,5.05,10.05,12.81c0,6.69-2.24,11.36-5.24,14.26-2.34,2.29-5.56,3.69-8.84,4.07-1.5.23-2.8.28-3.79.23v-3.37Zm1.5-17.49c0,3.79,2.29,6.45,5.84,6.45,2.76,0,4.91-1.36,5.98-3.18.23-.37.37-.84.37-1.5,0-5.19-1.92-9.16-6.22-9.16-3.51,0-5.98,3.09-5.98,7.39Z"/>
              <path class="cls-14" d="m525.33,1496.42c0-1.73,1.17-2.95,2.81-2.95s2.76,1.22,2.76,2.95-1.08,2.95-2.8,2.95c-1.64,0-2.76-1.26-2.76-2.95Z"/>
              <path class="cls-14" d="m537.06,1495.96c.89.09,1.92,0,3.32-.14,2.38-.33,4.63-1.31,6.36-2.95,2.01-1.82,3.46-4.49,4.02-8.09h-.14c-1.68,2.06-4.11,3.27-7.15,3.27-5.47,0-8.98-4.11-8.98-9.3,0-5.75,4.16-10.8,10.38-10.8s10.05,5.05,10.05,12.81c0,6.69-2.24,11.36-5.24,14.26-2.34,2.29-5.56,3.69-8.84,4.07-1.5.23-2.8.28-3.79.23v-3.37Zm1.5-17.49c0,3.79,2.29,6.45,5.84,6.45,2.76,0,4.91-1.36,5.98-3.18.23-.37.38-.84.38-1.5,0-5.19-1.92-9.16-6.22-9.16-3.51,0-5.98,3.09-5.98,7.39Z"/>
              <path class="cls-14" d="m561.04,1495.96c.89.09,1.92,0,3.32-.14,2.38-.33,4.63-1.31,6.36-2.95,2.01-1.82,3.46-4.49,4.02-8.09h-.14c-1.68,2.06-4.11,3.27-7.15,3.27-5.47,0-8.98-4.11-8.98-9.3,0-5.75,4.16-10.8,10.38-10.8s10.05,5.05,10.05,12.81c0,6.69-2.24,11.36-5.24,14.26-2.34,2.29-5.56,3.69-8.84,4.07-1.5.23-2.8.28-3.79.23v-3.37Zm1.5-17.49c0,3.79,2.29,6.45,5.84,6.45,2.76,0,4.91-1.36,5.98-3.18.23-.37.37-.84.37-1.5,0-5.19-1.92-9.16-6.22-9.16-3.51,0-5.98,3.09-5.98,7.39Z"/>
            </g>
            <g>
              <path class="cls-14" d="m603.9,1486.49c0,3.92-1.93,5.8-4.17,5.8s-4.07-1.83-4.07-5.55,1.96-5.73,4.2-5.73c2.54,0,4.04,2.06,4.04,5.48Zm-6.53.25c0,2.29.83,4.24,2.41,4.24,1.71,0,2.41-1.98,2.41-4.37,0-2.26-.63-4.29-2.41-4.29s-2.41,2.26-2.41,4.42Zm3.46,13.36h-1.43l10.75-19.14h1.43l-10.75,19.14Zm14.54-5.93c0,3.89-1.93,5.78-4.17,5.78s-4.07-1.83-4.07-5.55,1.96-5.75,4.19-5.75c2.54,0,4.04,2.08,4.04,5.53Zm-6.53.13c0,2.39.83,4.32,2.41,4.32,1.73,0,2.41-1.96,2.41-4.37,0-2.24-.6-4.29-2.39-4.29-1.68,0-2.44,2.18-2.44,4.34Z"/>
              <g>
                <path class="cls-14" d="m621.96,1484.95c1.39.53,3.08,1.46,3.94,2.2l-.9,1.27c-.83-.74-2.5-1.74-3.89-2.34l.86-1.14Zm-.39,13.77c1-1.9,2.41-5.12,3.41-7.86l1.25.86c-.9,2.55-2.16,5.54-3.06,7.37.09.12.14.25.14.35s-.02.19-.07.25l-1.67-.97Zm1.53-20.12c1.37.63,3.06,1.6,3.87,2.39l-.93,1.25c-.81-.76-2.43-1.83-3.82-2.5l.88-1.14Zm14.42,5.21c.14,3.25.37,5.96.7,8.11.9-1.58,1.6-3.36,2.11-5.33l1.81.46c-.07.16-.23.25-.51.25-.72,2.53-1.74,4.75-3.04,6.65.63,2.99,1.46,4.47,2.29,4.47.46,0,.74-.72.86-3.45.32.3.79.65,1.16.79-.25,3.55-.81,4.17-2.16,4.2-1.44,0-2.5-1.55-3.27-4.54-1.46,1.71-3.25,3.13-5.31,4.2-.21-.3-.7-.76-1-1.02,2.39-1.16,4.36-2.83,5.91-4.94-.46-2.55-.79-5.86-1-9.85h-6.93v4.82c0,3.41-.32,8.14-2.6,11.4-.25-.25-.88-.6-1.23-.74,2.18-3.11,2.43-7.46,2.43-10.66v-6.26h8.28c-.05-1.27-.09-2.6-.12-3.99l1.99.12c-.02.19-.16.28-.49.32,0,1.25.02,2.43.05,3.55h5.1v1.44h-5.05Zm-1.9,1.95v1.25h-5.72v-1.25h5.72Zm-4.4,9.41v1.16h-1.09v-7.39h5.26v6.24h-4.17Zm3.06-5.01h-3.06v3.75h3.06v-3.75Zm4.98-11.73c1.14.76,2.43,1.85,3.06,2.67l-1,.88c-.6-.81-1.88-1.97-3.01-2.76l.95-.79Z"/>
                <path class="cls-14" d="m652.31,1481.92c-.05.16-.23.25-.51.23-1.02,2.48-2.9,5.77-4.98,7.93-.32-.3-.95-.72-1.37-.95,2.09-1.99,3.92-5.17,4.82-7.74l2.04.53Zm11.87,7c-.07.16-.21.23-.49.25-2.23,6.19-6.93,9.43-15.67,10.8-.16-.49-.53-1.14-.83-1.53,8.41-1.11,12.96-4.08,15-10.06l1.99.53Zm-8.74-10.5l2.06.12c-.05.16-.16.28-.46.32v11.59c0,1.02-.25,1.48-1,1.76-.74.25-2.02.28-4.01.28-.07-.46-.32-1.14-.58-1.6.95.02,1.83.05,2.48.05,1.39,0,1.51,0,1.51-.51v-12.01Zm10.15,11.33c-.83-2.13-3.01-5.45-5.05-7.88l1.39-.7c2.06,2.36,4.29,5.59,5.19,7.74l-1.53.83Z"/>
              </g>
            </g>
          </g>
        </g>
        <g>
          <g>
            <rect class="cls-14" x="492.54" y="1617.65" width="3.16" height="15.62"/>
            <path class="cls-14" d="m497.9,1628.19l3.07-.3c.18,1.03.56,1.79,1.12,2.27.56.48,1.33.73,2.29.73,1.02,0,1.78-.22,2.3-.65.52-.43.77-.93.77-1.51,0-.37-.11-.68-.33-.94-.22-.26-.59-.49-1.13-.68-.37-.13-1.21-.36-2.53-.68-1.69-.42-2.88-.93-3.56-1.55-.96-.86-1.44-1.91-1.44-3.15,0-.8.22-1.54.68-2.23.45-.69,1.1-1.22,1.95-1.58.85-.37,1.87-.55,3.08-.55,1.96,0,3.44.43,4.43,1.29.99.86,1.51,2.01,1.56,3.44l-3.16.14c-.13-.8-.42-1.38-.87-1.73-.44-.35-1.11-.53-2-.53s-1.63.19-2.15.57c-.33.24-.5.56-.5.97,0,.37.16.69.47.95.4.33,1.36.68,2.9,1.05,1.54.36,2.67.74,3.41,1.12.73.39,1.31.92,1.73,1.59.41.67.62,1.5.62,2.49,0,.9-.25,1.73-.74,2.51-.5.78-1.2,1.36-2.11,1.74-.91.38-2.04.57-3.4.57-1.98,0-3.49-.46-4.55-1.37-1.06-.91-1.69-2.24-1.9-3.99"/>
            <path class="cls-14" d="m512.62,1625.56c0-1.59.24-2.93.71-4.01.36-.8.84-1.51,1.45-2.14.62-.63,1.29-1.1,2.02-1.41.97-.41,2.1-.62,3.37-.62,2.3,0,4.14.71,5.52,2.14,1.38,1.43,2.07,3.42,2.07,5.96s-.68,4.5-2.06,5.92c-1.37,1.42-3.2,2.14-5.5,2.14s-4.17-.71-5.54-2.13c-1.37-1.41-2.06-3.37-2.06-5.86m3.25-.11c0,1.77.41,3.11,1.23,4.02.82.91,1.86,1.37,3.11,1.37s2.29-.45,3.1-1.36c.81-.91,1.21-2.27,1.21-4.08s-.39-3.13-1.18-4.01c-.78-.88-1.83-1.32-3.13-1.32s-2.35.45-3.14,1.34c-.8.89-1.19,2.24-1.19,4.03"/>
            <path class="cls-14" d="m545.76,1630.49v2.78h-10.5c.11-1.05.45-2.05,1.02-2.99.57-.94,1.69-2.19,3.37-3.75,1.35-1.26,2.18-2.11,2.48-2.56.41-.62.62-1.23.62-1.83,0-.67-.18-1.18-.54-1.54-.36-.36-.85-.54-1.49-.54s-1.12.19-1.49.56c-.37.38-.58,1-.64,1.88l-2.99-.3c.18-1.65.73-2.83,1.67-3.55.94-.72,2.11-1.08,3.52-1.08,1.54,0,2.75.42,3.64,1.25.88.83,1.32,1.86,1.32,3.1,0,.7-.12,1.37-.38,2.01-.25.63-.65,1.3-1.2,2-.36.46-1.01,1.13-1.96,1.99-.94.87-1.54,1.44-1.8,1.72-.25.29-.46.56-.61.83h5.95Z"/>
            <path class="cls-14" d="m555.44,1633.27h-3v-11.29c-1.09,1.02-2.38,1.78-3.87,2.27v-2.72c.78-.25,1.63-.74,2.55-1.46.92-.71,1.55-1.55,1.89-2.5h2.43v15.69Z"/>
            <path class="cls-14" d="m559.92,1620.64v-2.78h10.24v2.17c-.84.83-1.71,2.02-2.58,3.58-.87,1.56-1.54,3.21-2,4.96-.46,1.75-.68,3.32-.68,4.69h-2.89c.05-2.16.5-4.36,1.34-6.61.84-2.25,1.97-4.25,3.37-6.02h-6.81Z"/>
            <path class="cls-14" d="m577.12,1617.58c1.52,0,2.7.54,3.55,1.62,1.01,1.28,1.52,3.4,1.52,6.36s-.51,5.08-1.53,6.37c-.85,1.07-2.02,1.6-3.54,1.6s-2.75-.58-3.68-1.75c-.93-1.17-1.4-3.25-1.4-6.25s.51-5.06,1.53-6.35c.85-1.07,2.02-1.6,3.54-1.6m0,2.48c-.36,0-.68.12-.97.35-.28.23-.51.64-.66,1.24-.21.77-.31,2.08-.31,3.91s.09,3.09.28,3.78c.19.68.42,1.14.7,1.37.28.23.6.34.96.34s.69-.11.97-.34c.28-.23.5-.65.66-1.24.21-.77.31-2.07.31-3.9s-.09-3.09-.28-3.78c-.19-.69-.42-1.14-.7-1.37-.28-.23-.6-.35-.97-.35"/>
            <path class="cls-14" d="m594.32,1630.49v2.78h-10.5c.11-1.05.45-2.05,1.02-2.99.57-.94,1.69-2.19,3.37-3.75,1.35-1.26,2.18-2.11,2.48-2.56.41-.62.62-1.23.62-1.83,0-.67-.18-1.18-.54-1.54-.36-.36-.85-.54-1.49-.54s-1.12.19-1.49.56-.58,1-.64,1.88l-2.99-.3c.18-1.65.74-2.83,1.67-3.55.94-.72,2.11-1.08,3.52-1.08,1.55,0,2.75.42,3.64,1.25.88.83,1.32,1.86,1.32,3.1,0,.7-.12,1.37-.38,2.01-.25.63-.65,1.3-1.2,2-.36.46-1.02,1.13-1.96,1.99-.94.87-1.54,1.44-1.8,1.72-.25.29-.46.56-.61.83h5.95Z"/>
            <path class="cls-14" d="m512.82,1650.52h-13.58v1.07h-1.91v3.72c.81-.27,1.38-.47,1.7-.6l.25,2.62c-.47.23-1.12.5-1.95.82v7.17c0,.84-.25,1.48-.75,1.94-.5.46-1.13.68-1.9.68h-2.57l-.34-3.05h1.76c.52,0,.77-.25.77-.77v-4.89c-.93.31-1.71.55-2.35.73l-.58-3.05c.64-.09,1.62-.32,2.93-.68v-4.63h-2.46v-2.7h2.46v-4.46h3.02v4.46h1.68v-1.45h4.74s0-3.19,0-3.19h3.08v3.2h6v3.07Zm.93,14.24c0,.67-.1,1.22-.31,1.65-.21.43-.51.74-.92.93-.4.19-1.02.28-1.85.28s-1.53-.03-2-.1c-.47-.07-.88-.31-1.23-.75-.35-.44-.52-1.04-.52-1.81v-9.89h-3.7v2.35c0,1.5-.13,2.83-.39,3.99-.26,1.16-.7,2.33-1.31,3.51-.61,1.18-1.37,2.2-2.28,3.06l-1.84-2.3c.91-1.02,1.61-2.17,2.11-3.47.5-1.29.75-3.16.75-5.59v-4.41h9.63v11.81c0,.36.15.54.44.54h.47c.13,0,.23-.04.31-.12.07-.08.13-.2.15-.35.02-.16.05-.6.08-1.33.03-.73.05-1.58.05-2.56l2.37.43v4.14Z"/>
            <path class="cls-14" d="m535.05,1649.92c0,6.29-1.19,10.74-3.57,13.36-2.38,2.61-6.31,4.21-11.8,4.79l-.74-3.45c2.88-.4,4.99-.88,6.35-1.43,1.36-.56,2.48-1.31,3.38-2.26.89-.95,1.49-1.81,1.8-2.57.31-.77.55-1.81.73-3.13.18-1.32.27-2.69.27-4.1h-12.38v7.1h-3.37v-10.41h7.79v-3.32h3.49v3.32h8.05v2.1Z"/>
            <path class="cls-14" d="m551.16,1667.78h-3.49v-11.84c-2.82,1.66-5.97,2.97-9.44,3.93l-1.04-3.42c4-1.1,7.47-2.71,10.42-4.84,2.95-2.13,5.19-4.58,6.71-7.35l3.31,1.45c-1.17,2.01-2.25,3.57-3.25,4.68-1,1.12-2.08,2.13-3.23,3.05v14.33Z"/>
            <path class="cls-14" d="m567.88,1653.11c.01,4.09-.57,7.29-1.76,9.61-1.19,2.32-3.01,4.14-5.47,5.46l-1.33-3.18c1.66-.93,2.93-2.31,3.83-4.14.89-1.83,1.34-4.62,1.34-8.36v-6.15h3.4v6.76Zm14.6,4.2c-1.1,2.65-2.57,4.88-4.4,6.7-1.84,1.82-3.88,3.05-6.14,3.69l-1.35-1.28v-20.84h3.39v17.03c2.32-1.31,4.28-3.87,5.86-7.66l2.63,2.36Z"/>
            <path class="cls-14" d="m605.25,1665.19l-2.56,2.81c-1.34-1.68-3.93-4.41-7.77-8.21-3.36,3.73-6.91,6.49-10.63,8.29l-1.66-3.08c2.89-1.42,5.71-3.51,8.45-6.29,2.74-2.77,4.77-5.82,6.08-9.14h-11.5v-3.43h14.92l.93,1.03c-.54,2.22-1.16,4.04-1.86,5.45-.69,1.41-1.57,2.88-2.63,4.39,3.27,3.05,6.01,5.78,8.21,8.18"/>
            <path class="cls-14" d="m612.44,1652.18c-.09,3.94-.56,7.22-1.41,9.83-.85,2.61-1.84,4.61-2.97,5.99l-2.24-1.84c1.12-1.57,1.99-3.59,2.61-6.05.62-2.46.95-5.1.99-7.93h-2.52v-2.95h2.53v-4.85h3.18v4.85h4.72v4.15c0,3-.02,5.19-.06,6.55-.04,1.37-.15,2.61-.32,3.73-.17,1.12-.34,1.84-.51,2.17-.17.33-.42.63-.75.92-.33.29-.72.5-1.16.65-.45.14-1.23.22-2.34.22-.36,0-.77,0-1.23-.01l-.4-3.17h1.95c.4,0,.73-.12.99-.35.26-.23.45-1.07.58-2.52.13-1.44.19-3.16.19-5.16v-4.21h-1.84Zm11.55,13.62h-2.38v1.79h-3.02v-21.12h8.46v20.91h-3.06v-1.58Zm-2.38-2.99h2.37v-13.49h-2.37v13.49Z"/>
            <polygon class="cls-14" points="650.52 1666.95 629.31 1666.95 629.31 1663.69 638.1 1663.69 638.1 1649.48 630.17 1649.48 630.17 1646.32 649.66 1646.32 649.66 1649.48 641.47 1649.48 641.47 1663.69 650.52 1663.69 650.52 1666.95"/>
            <path class="cls-14" d="m599.33,1578.83c-.51,1.09-1.27,2.05-2.19,2.78.92.73,1.68,1.69,2.19,2.78.97-1.53,2.61-2.59,4.5-2.78-1.89-.19-3.53-1.25-4.5-2.78"/>
            <path class="cls-14" d="m603.83,1593.61c-1.89-.19-3.53-1.25-4.5-2.78-.37.77-.85,1.47-1.43,2.07l2.35,2.35c.96-.91,2.19-1.51,3.58-1.65"/>
            <path class="cls-14" d="m599.33,1566.82c-.51,1.09-1.27,2.04-2.19,2.78.92.74,1.68,1.69,2.19,2.78.97-1.53,2.61-2.6,4.5-2.78-1.89-.18-3.53-1.25-4.5-2.78"/>
            <path class="cls-14" d="m616.43,1583.25c2.4,0,4.37,1.96,4.37,4.38s-1.96,4.34-4.37,4.34-4.38-1.95-4.38-4.34,1.96-4.38,4.38-4.38m0-12c2.4,0,4.37,1.96,4.37,4.38s-1.96,4.35-4.37,4.35-4.38-1.96-4.38-4.35,1.96-4.38,4.38-4.38m0-12c2.4,0,4.37,1.96,4.37,4.34s-1.96,4.37-4.37,4.37-4.38-1.96-4.38-4.37,1.96-4.34,4.38-4.34m12,25.64c1.51,0,2.74,1.23,2.74,2.74s-1.23,2.7-2.74,2.7-2.73-1.19-2.73-2.7,1.22-2.74,2.73-2.74m0-12c1.51,0,2.74,1.22,2.74,2.74s-1.23,2.7-2.74,2.7-2.73-1.22-2.73-2.7,1.22-2.74,2.73-2.74m0-12c1.51,0,2.74,1.22,2.74,2.7s-1.23,2.74-2.74,2.74-2.73-1.23-2.73-2.74,1.22-2.7,2.73-2.7m-12,43.08c-2.42,0-4.38-1.92-4.38-4.34s1.96-4.39,4.38-4.39,4.37,1.96,4.37,4.39c0,.8-.22,1.55-.6,2.19l31.74-31.75-38.44-38.41-25.98,25.98s.03.03.05.05c1.32-1.09,3-1.74,4.84-1.74,3.07,0,5.7,1.82,6.92,4.42,1.07-1.68,2.95-2.81,5.08-2.81,3.34,0,6.06,2.7,6.06,6.02,0,3.14-2.39,5.72-5.45,6.02,3.06.31,5.45,2.88,5.45,6.02s-2.39,5.68-5.45,5.99c3.06.3,5.45,2.88,5.45,6.02s-2.39,5.68-5.45,5.99c3.06.29,5.45,2.88,5.45,6.02,0,1.62-.65,3.09-1.68,4.14l4.72,4.74,5.1-5.09c-.65.34-1.37.56-2.17.56"/>
            <path class="cls-14" d="m500.68,1592.52v3.21c0,2.32.52,4.47,3.34,4.47,2.26,0,3.46-1.46,3.46-3.33,0-3.82-3.94-6.31-7.88-9.21-4.01-3.27-8-5.64-8-12.23,0-8.49,4.76-12.12,12.69-12.12,8.64,0,12.42,4.22,12.42,10.88v3.88h-9.29v-2.31c0-2.16-.33-4.79-3.13-4.79-2.12,0-3.41,1.24-3.41,3.29,0,2.58,4.21,5.5,8.25,8.57,3.69,3.22,8.26,5.37,8.26,14.05,0,4.15-3.14,10.99-13.49,10.99s-12.87-6.21-12.87-10.67v-4.67h9.63Z"/>
            <rect class="cls-14" x="522.4" y="1564.05" width="9.94" height="43.11"/>
            <path class="cls-14" d="m547.36,1591.83h4.96l-2.32-21.12h-.1l-2.54,21.12Zm-3.99-27.78h13.15l8.1,43.11h-10.4l-.94-7.66h-6.94l-1.04,7.66h-9.92l7.98-43.11Z"/>
            <path class="cls-14" d="m576.59,1591.83h4.98l-2.32-21.12h-.1l-2.56,21.12Zm-3.98-27.78h13.18l8.09,43.11h-10.42l-.91-7.66h-6.98l-1.02,7.66h-9.93l7.99-43.11Z"/>
          </g>
          <g class="cls-39">
            <path class="cls-58" d="m516.32,1782h-15.7v1.07h-2.21v3.72c.93-.27,1.59-.47,1.97-.6l.28,2.63c-.54.23-1.3.5-2.25.82v7.16c0,.84-.29,1.48-.87,1.94-.58.46-1.31.69-2.19.69h-2.96l-.39-3.06h2.03c.59,0,.89-.25.89-.77v-4.9c-1.08.31-1.98.55-2.72.73l-.67-3.05c.74-.09,1.88-.32,3.39-.68v-4.64h-2.85v-2.7h2.85v-4.46h3.49v4.46h1.94v-1.45h5.47s0-3.19,0-3.19h3.56v3.2h6.93v3.06Zm1.07,14.25c0,.67-.12,1.22-.36,1.65-.24.44-.59.74-1.05.93-.47.19-1.18.28-2.14.28s-1.77-.03-2.31-.1c-.55-.07-1.02-.32-1.42-.75-.4-.44-.6-1.04-.6-1.82v-9.9h-4.28v2.35c0,1.5-.15,2.83-.45,3.99-.3,1.17-.81,2.34-1.51,3.51-.7,1.18-1.58,2.2-2.63,3.06l-2.13-2.3c1.05-1.02,1.86-2.18,2.44-3.47.58-1.29.87-3.15.87-5.6v-4.41h11.13v11.82c0,.36.17.54.52.54h.54c.15,0,.26-.04.35-.12.09-.08.14-.2.17-.35.03-.16.05-.6.09-1.34.04-.73.06-1.58.06-2.56l2.74.43v4.14Z"/>
            <path class="cls-58" d="m539.43,1798.42h-16.32v.86h-3.44v-18.78h5.28v-1.15h-5.92v-2.3h5.92v-1.12h3.36v1.12h6.18v-1.12h3.36v1.12h5.85v2.3h-5.85v1.15h5.11v18.78h-3.53v-.86Zm-16.32-2.16h16.32v-13.76h-16.32v13.76Zm6.61-4.62c-1.69,1.46-3.41,2.54-5.16,3.24l-1.4-2.3c1.54-.58,3.16-1.61,4.86-3.07h-3.89v-2.37h5.54v-1.19c-1.45.08-2.83.12-4.16.12l-.44-2.3c4.76-.04,8.4-.38,10.91-1.04l1.35,2.27c-1.15.29-2.67.53-4.54.72v1.42h5.64v2.35h-4.14c1.25,1.05,2.93,2.06,5.05,3.06l-1.69,2.3c-1.72-.69-3.37-1.83-4.92-3.39v3.93h-3.01v-3.75Zm-1.42-11.13h6.18v-1.15h-6.18v1.15Z"/>
            <path class="cls-58" d="m552.72,1783.66c-.1,3.94-.65,7.23-1.63,9.84-.98,2.61-2.13,4.61-3.43,5.99l-2.59-1.84c1.29-1.57,2.3-3.59,3.02-6.05.72-2.46,1.1-5.1,1.14-7.93h-2.91v-2.95h2.92v-4.86h3.68v4.86h5.46v4.15c0,3.01-.02,5.19-.07,6.56-.06,1.37-.17,2.61-.37,3.73-.2,1.12-.39,1.84-.59,2.16-.19.33-.49.64-.86.92-.38.29-.83.5-1.35.65-.51.15-1.41.22-2.7.22-.41,0-.88,0-1.42-.01l-.46-3.17h2.26c.46,0,.84-.12,1.14-.35.3-.24.52-1.08.67-2.53.15-1.44.22-3.16.22-5.16v-4.22h-2.13Zm13.35,13.63h-2.74v1.79h-3.49v-21.13h9.77v20.92h-3.54v-1.58Zm-2.74-2.99h2.74v-13.5h-2.74v13.5Z"/>
            <polygon class="cls-58" points="597.4 1798.44 572.88 1798.44 572.88 1795.18 583.04 1795.18 583.04 1780.96 573.88 1780.96 573.88 1777.8 596.4 1777.8 596.4 1780.96 586.93 1780.96 586.93 1795.18 597.4 1795.18 597.4 1798.44"/>
            <path class="cls-58" d="m599.95,1738.79c-.52,1.1-1.28,2.05-2.2,2.78.92.73,1.68,1.69,2.2,2.78.98-1.53,2.63-2.59,4.53-2.78-1.9-.18-3.55-1.25-4.53-2.78"/>
            <path class="cls-58" d="m604.48,1753.59c-1.91-.19-3.55-1.25-4.53-2.78-.37.77-.86,1.47-1.44,2.07l2.37,2.36c.95-.91,2.2-1.51,3.59-1.64"/>
            <path class="cls-58" d="m599.95,1726.78c-.52,1.1-1.28,2.04-2.2,2.78.92.74,1.68,1.7,2.2,2.79.98-1.53,2.63-2.6,4.53-2.79-1.9-.18-3.55-1.24-4.53-2.78"/>
            <path class="cls-58" d="m617.15,1743.22c2.42,0,4.39,1.96,4.39,4.38s-1.98,4.34-4.39,4.34-4.4-1.96-4.4-4.34,1.98-4.38,4.4-4.38m0-12.01c2.42,0,4.39,1.96,4.39,4.38s-1.98,4.35-4.39,4.35-4.4-1.97-4.4-4.35,1.98-4.38,4.4-4.38m0-12.01c2.42,0,4.39,1.96,4.39,4.35s-1.98,4.38-4.39,4.38-4.4-1.96-4.4-4.38,1.98-4.35,4.4-4.35m12.07,25.66c1.52,0,2.75,1.23,2.75,2.74s-1.23,2.7-2.75,2.7-2.75-1.19-2.75-2.7,1.23-2.74,2.75-2.74m0-12c1.52,0,2.75,1.22,2.75,2.73s-1.23,2.71-2.75,2.71-2.75-1.23-2.75-2.71,1.23-2.73,2.75-2.73m0-12.01c1.52,0,2.75,1.22,2.75,2.7s-1.23,2.74-2.75,2.74-2.75-1.22-2.75-2.74,1.23-2.7,2.75-2.7m-12.07,43.11c-2.43,0-4.4-1.92-4.4-4.35s1.98-4.39,4.4-4.39,4.39,1.97,4.39,4.39c0,.8-.23,1.54-.6,2.19l31.92-31.76-38.66-38.43-26.13,25.99s.03.03.04.05c1.33-1.09,3.02-1.74,4.88-1.74,3.09,0,5.73,1.82,6.96,4.42,1.07-1.68,2.97-2.82,5.11-2.82,3.36,0,6.09,2.71,6.09,6.02,0,3.14-2.41,5.72-5.48,6.02,3.08.3,5.48,2.88,5.48,6.02s-2.41,5.69-5.48,5.99c3.08.3,5.48,2.88,5.48,6.02s-2.41,5.69-5.48,5.99c3.08.29,5.48,2.88,5.48,6.02,0,1.62-.65,3.1-1.69,4.14l4.74,4.74,5.13-5.09c-.65.34-1.38.56-2.18.56"/>
            <path class="cls-58" d="m500.73,1752.49v3.21c0,2.32.52,4.48,3.36,4.48,2.26,0,3.48-1.46,3.48-3.34,0-3.82-3.96-6.31-7.93-9.22-4.03-3.28-8.05-5.64-8.05-12.24,0-8.49,4.78-12.12,12.76-12.12,8.69,0,12.49,4.22,12.49,10.89v3.88h-9.34v-2.31c0-2.16-.34-4.79-3.15-4.79-2.13,0-3.43,1.24-3.43,3.29,0,2.58,4.24,5.51,8.31,8.57,3.71,3.22,8.31,5.37,8.31,14.06,0,4.15-3.16,11-13.57,11s-12.94-6.22-12.94-10.68v-4.67h9.68Z"/>
            <rect class="cls-58" x="522.58" y="1724" width="10" height="43.13"/>
            <path class="cls-58" d="m547.68,1751.8h4.99l-2.33-21.14h-.11l-2.56,21.14Zm-4.01-27.79h13.22l8.15,43.13h-10.47l-.93-7.66h-6.98l-1.06,7.66h-9.97l8.03-43.13Z"/>
            <path class="cls-58" d="m577.08,1751.8h5.01l-2.33-21.14h-.11l-2.57,21.14Zm-4-27.79h13.26l8.13,43.13h-10.48l-.91-7.66h-7.01l-1.03,7.66h-9.98l8.04-43.13Z"/>
          </g>
        </g>
      </g>
      <text class="cls-9" transform="translate(1.72 1624.95)"><tspan class="cls-67" x="0" y="0">マ</tspan><tspan class="cls-50" x="16.25" y="0">ッ</tspan><tspan class="cls-52" x="27.99" y="0">ト</tspan><tspan class="cls-73" x="44.77" y="0">塗装</tspan></text>
      <text class="cls-9" transform="translate(234.63 1624.95)"><tspan class="cls-5" x="0" y="0">フ</tspan><tspan class="cls-18" x="15.21" y="0">リ</tspan><tspan class="cls-27" x="31.21" y="0">ー</tspan><tspan class="cls-32" x="48.4" y="0">ワ</tspan><tspan class="cls-2" x="63.49" y="0">ッ</tspan><tspan class="cls-75" x="78.25" y="0">ク</tspan><tspan class="cls-55" x="94.28" y="0">ス</tspan></text>
      <text class="cls-9" transform="translate(236.1 1824.24)"><tspan class="cls-29" x="0" y="0">良</tspan><tspan class="cls-25" x="20.09" y="0">質な</tspan><tspan class="cls-73" x="57.6" y="0">銘</tspan><tspan class="cls-79" x="77.85" y="0">木</tspan><tspan class="cls-83" x="95.96" y="0">を</tspan><tspan class="cls-73" x="114.35" y="0">厳選</tspan></text>
      <text class="cls-9" transform="translate(3.5 1824.24)"><tspan class="cls-73" x="0" y="0">耐</tspan><tspan class="cls-57" x="20.25" y="0">久・</tspan><tspan class="cls-73" x="48.08" y="0">安定性</tspan></text>
      <g>
        <text class="cls-10" transform="translate(-3.54 856.87)"><tspan x="0" y="0">【算出条件</tspan><tspan class="cls-36" x="62.69" y="0">】</tspan><tspan x="6.27" y="18.24">●住宅断熱仕様 次世代省エネルギー基</tspan><tspan class="cls-85" x="222.43" y="18.24">準</tspan><tspan x="231.74" y="18.24">（平</tspan><tspan class="cls-87" x="256.82" y="18.24">成</tspan><tspan x="272.49" y="18.24">1</tspan><tspan class="cls-87" x="279.32" y="18.24">1</tspan><tspan x="289.29" y="18.24">年基準</tspan><tspan class="cls-85" x="326.91" y="18.24">）</tspan><tspan class="cls-87" x="336.21" y="18.24">Q</tspan><tspan x="348.64" y="18.24">値適合レベル</tspan><tspan class="cls-36" x="423.87" y="18.24">。</tspan><tspan x="430.14" y="18.24">●想定冷暖房機</tspan><tspan class="cls-85" x="517.91" y="18.24">器</tspan><tspan x="527.22" y="18.24">「平</tspan><tspan class="cls-87" x="552.29" y="18.24">成</tspan><tspan x="567.97" y="18.24">2</tspan><tspan class="cls-87" x="574.8" y="18.24">5</tspan><tspan x="584.77" y="18.24">年省エネルギー</tspan><tspan class="cls-84" x="6.27" y="36.48">基準に準拠した算</tspan><tspan x="107.03" y="36.48">定・</tspan><tspan class="cls-84" x="132.11" y="36.48">判断の方法及び解</tspan><tspan x="232.87" y="36.48">説Ⅱ</tspan><tspan class="cls-84" x="257.95" y="36.48">住</tspan><tspan x="270.54" y="36.48">宅」</tspan><tspan class="cls-84" x="295.62" y="36.48">に準</tspan><tspan x="320.81" y="36.48">拠</tspan><tspan class="cls-49" x="333.35" y="36.48">。</tspan><tspan x="339.62" y="36.48">●</tspan><tspan class="cls-84" x="352.16" y="36.48">空調設</tspan><tspan x="389.94" y="36.48">定 </tspan><tspan class="cls-84" x="405.49" y="36.48">暖</tspan><tspan x="418.08" y="36.48">房：24℃ </tspan><tspan class="cls-84" x="472.38" y="36.48">冷</tspan><tspan x="484.97" y="36.48">房：25</tspan><tspan class="cls-41" x="523.72" y="36.48">℃</tspan><tspan x="533.12" y="36.48">・6</tspan><tspan class="cls-86" x="552.49" y="36.48">0</tspan><tspan x="559.35" y="36.48">％「</tspan><tspan class="cls-84" x="584.43" y="36.48">住宅事業建築</tspan><tspan x="660" y="36.48">主</tspan><tspan x="6.27" y="54.71">の判断の基準におけるエネルギー消費量計算方法の解説」スケジュールに準拠した間歇運転</tspan><tspan class="cls-49" x="520.35" y="54.71">。</tspan><tspan x="526.62" y="54.71">●電力量単</tspan><tspan class="cls-82" x="589.31" y="54.71">価</tspan><tspan class="cls-43" x="606.74" y="54.71">2</tspan><tspan class="cls-82" x="613.58" y="54.71">7円</tspan><tspan x="642.73" y="54.71">/kWh</tspan><tspan x="0" y="72.95">（税込）/（公園）全国家庭電気製品公正取引協議会 新電力目安単価</tspan></text>
        <text class="cls-22" transform="translate(2.73 592.04)"><tspan class="cls-33" x="0" y="0">●</tspan><tspan class="cls-17" x="15.46" y="2.98">年間冷暖房費比較</tspan></text>
        <text class="cls-21" transform="translate(61.36 645.52)"><tspan x="0" y="0">アルミ</tspan><tspan x="-40.81" y="27.21">（複層ガラス</tspan><tspan class="cls-34" x="81.63" y="27.21">）</tspan></text>
        <text class="cls-21" transform="translate(20.55 721.55)"><tspan x="0" y="0">アルミ樹脂複合</tspan><tspan x="0" y="27.21">（複層ガラス</tspan><tspan class="cls-34" x="122.44" y="27.21">）</tspan></text>
        <text class="cls-20" transform="translate(53.22 799.13)"><tspan x="0" y="0">APW330</tspan><tspan x="-63.39" y="27.21">（Low-</tspan><tspan class="cls-89" x="2.64" y="27.21">E</tspan><tspan class="cls-62" x="18.46" y="27.21">複層ガラス</tspan><tspan class="cls-47" x="120.49" y="27.21">）</tspan></text>
        <text class="cls-90" transform="translate(233.01 816.34)"><tspan x="0" y="0">50,50</tspan><tspan class="cls-71" x="76.87" y="0">0</tspan><tspan x="100.5" y="0">円</tspan></text>
        <text class="cls-23" transform="translate(530.59 795.14)"><tspan x="0" y="0">16,40</tspan><tspan class="cls-6" x="84.87" y="0">0</tspan><tspan x="110.63" y="0">円</tspan><tspan x="27.52" y="32.08">お得‼</tspan></text>
        <text class="cls-90" transform="translate(233.01 737.47)"><tspan x="0" y="0">59,60</tspan><tspan class="cls-71" x="76.87" y="0">0</tspan><tspan x="100.5" y="0">円</tspan></text>
        <text class="cls-90" transform="translate(233.01 661.83)"><tspan x="0" y="0">66,90</tspan><tspan class="cls-71" x="76.87" y="0">0</tspan><tspan x="100.5" y="0">円</tspan></text>
      </g>
      <text class="cls-45" transform="translate(2.98 468.84)"><tspan class="cls-56" x="0" y="0">A</tspan><tspan class="cls-12" x="21.78" y="0">P</tspan><tspan class="cls-16" x="40.24" y="0">W</tspan><tspan class="cls-35" x="67.41" y="0">3</tspan><tspan class="cls-8" x="83.08" y="0">3</tspan><tspan class="cls-73" x="98.86" y="0">0　</tspan><tspan class="cls-37" x="141.34" y="0">L</tspan><tspan class="cls-72" x="161.38" y="0">o</tspan><tspan class="cls-28" x="177.88" y="0">w</tspan><tspan class="cls-60" x="199.06" y="0">-</tspan><tspan class="cls-61" x="208.01" y="0">E</tspan><tspan class="cls-76" x="227.94" y="0">複</tspan><tspan class="cls-3" x="254.89" y="0">層</tspan><tspan class="cls-68" x="279.73" y="0">ガ</tspan><tspan class="cls-53" x="304.6" y="0">ラ</tspan><tspan class="cls-73" x="327.29" y="0">ス</tspan></text>
      <text class="cls-11" transform="translate(.42 508.1)"><tspan class="cls-30" x="0" y="0">高い</tspan><tspan class="cls-26" x="43.55" y="0">断熱性</tspan><tspan class="cls-70" x="111.64" y="0">能</tspan><tspan class="cls-78" x="131.19" y="0">と</tspan><tspan class="cls-88" x="148.35" y="0">日</tspan><tspan class="cls-24" x="168.64" y="0">射遮蔽性</tspan><tspan class="cls-48" x="259.42" y="0">能</tspan><tspan class="cls-74" x="279.74" y="0">を</tspan><tspan class="cls-26" x="300.37" y="0">両</tspan><tspan class="cls-64" x="323.07" y="0">立</tspan><tspan class="cls-31" x="342.02" y="0">し</tspan><tspan class="cls-46" x="363.08" y="0">、</tspan><tspan class="cls-30" x="375.58" y="0">夏は</tspan><tspan class="cls-64" x="419.14" y="0">涼</tspan><tspan class="cls-19" x="438.09" y="0">し</tspan><tspan class="cls-7" x="455.07" y="0">く</tspan><tspan class="cls-46" x="472.21" y="0">、</tspan><tspan class="cls-30" x="484.71" y="0">冬は</tspan><tspan class="cls-63" x="528.26" y="0">暖</tspan><tspan class="cls-59" x="550.31" y="0">か</tspan><tspan class="cls-1" x="571.99" y="0">い</tspan><tspan class="cls-46" x="593.57" y="0">。</tspan><tspan class="cls-88" x="606.07" y="0">西日</tspan><tspan class="cls-73" x="646.66" y="0">対</tspan><tspan class="cls-13" x="0" y="26">策や</tspan><tspan class="cls-73" x="43.52" y="26">紫外</tspan><tspan class="cls-80" x="88.52" y="26">線</tspan><tspan class="cls-44" x="109.72" y="26">に</tspan><tspan class="cls-38" x="127.86" y="26">よ</tspan><tspan class="cls-40" x="145.08" y="26">る</tspan><tspan class="cls-80" x="165.2" y="26">色</tspan><tspan class="cls-54" x="186.4" y="26">あ</tspan><tspan class="cls-51" x="207.42" y="26">せ</tspan><tspan class="cls-73" x="229.74" y="26">防</tspan><tspan class="cls-80" x="252.24" y="26">止</tspan><tspan class="cls-66" x="273.44" y="26">に</tspan><tspan class="cls-42" x="291.12" y="26">も</tspan><tspan class="cls-73" x="310.1" y="26">効果</tspan><tspan class="cls-77" x="355.1" y="26">的</tspan><tspan class="cls-15" x="376.92" y="26">で</tspan><tspan class="cls-4" x="397.7" y="26">す</tspan><tspan class="cls-46" x="419.64" y="26">。</tspan></text>
    </g>
  </g>
</svg>