<?xml version="1.0" encoding="UTF-8"?>
<svg id="_レイヤー_2" data-name="レイヤー 2" xmlns="http://www.w3.org/2000/svg" xmlns:xlink="http://www.w3.org/1999/xlink" viewBox="0 0 1101.37 780.81">
  <defs>
    <style>
      .cls-1 {
        letter-spacing: .11em;
      }

      .cls-2 {
        letter-spacing: .14em;
      }

      .cls-3 {
        letter-spacing: .12em;
      }

      .cls-4 {
        letter-spacing: .12em;
      }

      .cls-5 {
        letter-spacing: -.07em;
      }

      .cls-6 {
        font-size: 18px;
      }

      .cls-6, .cls-7, .cls-8 {
        font-weight: 300;
      }

      .cls-6, .cls-8 {
        font-family: RyuminPr6N-Light-90ms-RKSJ-H, 'A-OTF Ryumin Pr6N';
      }

      .cls-9 {
        letter-spacing: .11em;
      }

      .cls-10, .cls-11 {
        font-size: 17.9px;
      }

      .cls-10, .cls-11, .cls-12 {
        font-family: KozGoPro-Regular-90ms-RKSJ-H, 'Kozuka Gothic Pro';
      }

      .cls-13 {
        letter-spacing: 0em;
      }

      .cls-11, .cls-14 {
        fill: #e73a1f;
      }

      .cls-15 {
        letter-spacing: .12em;
      }

      .cls-16 {
        fill: #e50038;
      }

      .cls-17 {
        letter-spacing: .11em;
      }

      .cls-18 {
        letter-spacing: -.04em;
      }

      .cls-14 {
        font-family: Meiryo-Bold, Meiryo;
        font-size: 24.38px;
        font-weight: 700;
      }

      .cls-19 {
        letter-spacing: .1em;
      }

      .cls-20 {
        font-family: Meiryo, Meiryo;
        font-size: 23.8px;
      }

      .cls-21 {
        letter-spacing: .04em;
      }

      .cls-22 {
        letter-spacing: .02em;
      }

      .cls-23 {
        font-size: 23px;
      }

      .cls-24 {
        font-family: ShipporiMinchoB1-Regular, 'Shippori Mincho B1';
        font-size: 23.36px;
      }

      .cls-25 {
        letter-spacing: .25em;
      }

      .cls-26 {
        letter-spacing: .25em;
      }

      .cls-27 {
        letter-spacing: .06em;
      }

      .cls-28 {
        letter-spacing: .08em;
      }

      .cls-29 {
        letter-spacing: 0em;
      }

      .cls-30 {
        letter-spacing: .08em;
      }

      .cls-31 {
        letter-spacing: .1em;
      }

      .cls-32 {
        letter-spacing: .09em;
      }

      .cls-33 {
        letter-spacing: -.5em;
      }

      .cls-34 {
        letter-spacing: -.15em;
      }

      .cls-35 {
        letter-spacing: -.18em;
      }

      .cls-36 {
        letter-spacing: -.14em;
      }

      .cls-37 {
        clip-path: url(#clippath-1);
      }

      .cls-38 {
        letter-spacing: .39em;
      }

      .cls-39 {
        letter-spacing: .04em;
      }

      .cls-40 {
        letter-spacing: -.05em;
      }

      .cls-41 {
        letter-spacing: .1em;
      }

      .cls-42 {
        letter-spacing: -.38em;
      }

      .cls-43 {
        letter-spacing: -.35em;
      }

      .cls-44 {
        letter-spacing: 0em;
      }

      .cls-45 {
        letter-spacing: -.14em;
      }

      .cls-46 {
        letter-spacing: 0em;
      }

      .cls-47 {
        letter-spacing: .25em;
      }

      .cls-48 {
        letter-spacing: -.1em;
      }

      .cls-49 {
        letter-spacing: -.26em;
      }

      .cls-50 {
        letter-spacing: -.16em;
      }

      .cls-7 {
        font-family: KozGoPro-Light-90ms-RKSJ-H, 'Kozuka Gothic Pro';
        font-size: 11px;
      }

      .cls-51 {
        fill: #009d95;
      }

      .cls-52 {
        letter-spacing: .09em;
      }

      .cls-53 {
        letter-spacing: .01em;
      }

      .cls-54 {
        letter-spacing: -.12em;
      }

      .cls-8 {
        font-size: 13px;
      }

      .cls-55 {
        letter-spacing: -.23em;
      }

      .cls-56 {
        clip-path: url(#clippath);
      }

      .cls-57 {
        letter-spacing: -.11em;
      }

      .cls-58 {
        letter-spacing: .13em;
      }

      .cls-59 {
        letter-spacing: -.03em;
      }

      .cls-60 {
        letter-spacing: .04em;
      }

      .cls-61 {
        fill: none;
      }

      .cls-62 {
        letter-spacing: .12em;
      }

      .cls-63 {
        letter-spacing: -.09em;
      }

      .cls-64 {
        letter-spacing: -.15em;
      }

      .cls-65 {
        letter-spacing: -.16em;
      }

      .cls-66 {
        letter-spacing: .12em;
      }

      .cls-67 {
        letter-spacing: -.26em;
      }

      .cls-68 {
        letter-spacing: .12em;
      }

      .cls-69 {
        letter-spacing: .15em;
      }

      .cls-70 {
        letter-spacing: -.06em;
      }

      .cls-71 {
        letter-spacing: -.11em;
      }

      .cls-72 {
        letter-spacing: .07em;
      }

      .cls-73 {
        letter-spacing: .05em;
      }

      .cls-74 {
        letter-spacing: .02em;
      }

      .cls-75 {
        letter-spacing: .04em;
      }

      .cls-76 {
        letter-spacing: 0em;
      }

      .cls-77 {
        letter-spacing: .11em;
      }

      .cls-78 {
        fill: #231815;
      }

      .cls-79 {
        letter-spacing: -.05em;
      }

      .cls-80 {
        letter-spacing: -.25em;
      }

      .cls-81 {
        letter-spacing: -.5em;
      }

      .cls-82 {
        font-size: 17px;
      }

      .cls-83 {
        letter-spacing: 0em;
      }

      .cls-84 {
        letter-spacing: .09em;
      }

      .cls-85 {
        letter-spacing: 0em;
      }

      .cls-86 {
        letter-spacing: .25em;
      }

      .cls-87 {
        letter-spacing: .13em;
      }

      .cls-88 {
        letter-spacing: .05em;
      }
    </style>
    <clipPath id="clippath">
      <rect class="cls-61" width="1101.37" height="780.81"/>
    </clipPath>
    <clipPath id="clippath-1">
      <rect class="cls-61" x="991.52" y="706.56" width="88.22" height="58.81"/>
    </clipPath>
  </defs>
  <g id="_レイヤー_2-2" data-name="レイヤー 2">
    <g class="cls-56">
      <g>
        <g>
          <path d="m765.29,522.15l-4.41,16.84h-.07l-4.04-16.84h-6l-3.77,16.84h-.07l-4.31-16.84h-6.04l7.66,26.71h5.88s2.76-11.56,3.59-16.77h.08c.9,5.21,2.8,16.77,2.8,16.77h6.03l8.42-26.71h-5.74Z"/>
          <path d="m816.92,521.76h-9.54v27.1h10.95c8.95,0,11.84-8.33,11.84-14.14s-4.07-12.96-13.25-12.96m.14,22.27h-4.12v-17.19h3.25c5.89,0,8.26,3.6,8.26,8.64s-2.72,8.55-7.39,8.55"/>
          <polygon points="829.02 526.55 837.21 526.55 837.21 548.86 842.87 548.86 842.87 526.55 851.06 526.55 851.06 521.76 829.02 521.76 829.02 526.55"/>
          <polygon points="858.77 537.05 871.98 537.05 871.98 532.25 858.77 532.25 858.77 526.55 871.76 526.55 871.76 521.76 853.22 521.76 853.22 548.86 872.01 548.86 872.01 544.07 858.77 544.07 858.77 537.05"/>
          <path d="m892.4,538.33c0,3.21-2.5,5.79-5.9,5.79-4.56,0-6.95-3.98-6.95-8.61,0-7.28,4.37-9.2,6.95-9.2,4.01,0,5.52,3.51,5.71,5.02h5.2c-.29-3.81-3.23-9.5-10.94-9.5-6.64,0-12.23,4.6-12.23,13.6s5.83,13.53,12.15,13.53c8.14,0,11.2-5.5,11.2-10.64h-5.19Z"/>
          <path d="m791.42,513.51c-5.93,0-10.99,3.69-13.05,8.89-5.2,2.06-8.88,7.11-8.88,13.04,0,7.75,6.28,14.03,14.03,14.03,5.93,0,10.99-3.69,13.04-8.89,5.2-2.05,8.88-7.11,8.88-13.04,0-7.75-6.28-14.03-14.03-14.03m.36,22.28c-.12,0-.24.02-.36.02-4.57,0-8.27-3.7-8.27-8.27,0-.12.01-.24.02-.36.12,0,.23-.02.35-.02,4.56,0,8.27,3.71,8.27,8.27,0,.12-.01.23-.02.35m-16.52-.35c0-2.23.88-4.25,2.32-5.73.93,6.01,5.68,10.75,11.69,11.68-1.49,1.44-3.51,2.32-5.74,2.32-4.57,0-8.27-3.71-8.27-8.27m22.12-2.16c-.93-6.01-5.68-10.75-11.69-11.68,1.49-1.44,3.5-2.32,5.74-2.32,4.57,0,8.27,3.7,8.27,8.27,0,2.23-.89,4.25-2.32,5.73"/>
          <polygon points="916.94 525.4 921.63 525.4 921.63 543.84 932.78 543.84 932.78 547.86 916.94 547.86 916.94 525.4"/>
          <path d="m938.53,529.25h-4.39v-3.98h4.39v3.98Zm-4.39,2.01h4.39v16.6h-4.39v-16.6Z"/>
          <polygon points="951.38 531.25 956.05 531.25 950.04 547.85 945.47 547.85 939.52 531.25 944.4 531.25 947.85 543.5 951.38 531.25"/>
          <path d="m963.19,534.41c1.04,0,1.91.3,2.62.88.69.58,1.08,1.44,1.16,2.56h-7.58c.17-1.06.56-1.89,1.18-2.51.63-.62,1.5-.93,2.63-.93m.03-3.61c-2.44,0-4.41.77-5.94,2.3-1.52,1.54-2.27,3.75-2.27,6.63,0,3.08.84,5.3,2.53,6.65,1.69,1.37,3.64,2.05,5.85,2.05,2.68,0,4.76-.8,6.24-2.41.97-1.02,1.5-2.01,1.62-3h-4.42c-.25.48-.55.86-.9,1.13-.62.51-1.43.75-2.43.75-.93,0-1.73-.21-2.4-.63-1.1-.66-1.68-1.84-1.74-3.51h12.1c.02-1.44-.03-2.52-.14-3.29-.2-1.3-.64-2.45-1.33-3.43-.74-1.12-1.71-1.93-2.87-2.46-1.15-.51-2.45-.78-3.9-.78"/>
          <polygon points="978.89 525.4 983.79 525.4 992.67 541 992.67 525.4 997.02 525.4 997.02 547.86 992.36 547.86 983.25 531.93 983.25 547.86 978.89 547.86 978.89 525.4"/>
          <path d="m1008.73,541.4c-.03,1.45-.44,2.46-1.23,3-.8.55-1.66.83-2.6.83-.6,0-1.11-.16-1.52-.5-.41-.33-.62-.87-.62-1.61,0-.83.33-1.45,1.01-1.84.4-.24,1.06-.44,1.99-.6l.98-.18c.49-.09.88-.2,1.16-.3.28-.11.55-.25.83-.41v1.61Zm-4.12-3.47c-1.68.21-2.96.57-3.83,1.07-1.57.91-2.37,2.4-2.37,4.43,0,1.58.5,2.8,1.48,3.66.97.86,2.21,1.29,3.72,1.29,1.19,0,2.24-.27,3.17-.81.79-.46,1.48-1.01,2.08-1.66.03.37.07.71.13,1,.04.29.14.61.27.94h4.73v-.65c-.28-.13-.5-.29-.64-.5-.14-.2-.23-.58-.26-1.15-.02-.75-.03-1.39-.03-1.92v-7.63c0-2.01-.7-3.36-2.11-4.06-1.42-.71-3.03-1.06-4.85-1.06-2.8,0-4.77.73-5.92,2.18-.72.93-1.13,2.12-1.23,3.56h4.18c.11-.64.31-1.16.61-1.53.44-.51,1.17-.76,2.2-.76.91,0,1.62.12,2.09.38.47.26.71.73.71,1.41,0,.57-.31.97-.93,1.24-.35.15-.92.28-1.73.38l-1.48.18Z"/>
          <path d="m1013.93,534.49v-3.07h2.29v-4.63h4.34v4.63h2.71v3.07h-2.71v8.81c0,.68.09,1.11.26,1.28.18.17.7.25,1.6.25.13,0,.27,0,.41,0,.16,0,.29-.02.44-.03v3.24l-2.08.09c-2.07.06-3.48-.29-4.24-1.07-.49-.5-.74-1.27-.74-2.3v-10.24h-2.29Z"/>
          <path d="m1029.05,531.25v9.98c0,.94.11,1.65.33,2.12.4.84,1.17,1.26,2.33,1.26,1.49,0,2.5-.6,3.05-1.8.28-.64.43-1.51.43-2.56v-9.01h4.39v16.6h-4.22v-2.37s-.14.2-.31.46c-.16.26-.35.48-.58.68-.68.61-1.33,1.03-1.96,1.26-.63.23-1.38.34-2.22.34-2.45,0-4.11-.89-4.95-2.68-.47-.97-.71-2.4-.71-4.3v-9.98h4.42Z"/>
          <path d="m1050.83,530.9c.05,0,.18.02.36.03v4.39c-.27-.01-.51-.02-.72-.03-.2,0-.39,0-.52,0-1.74,0-2.9.57-3.5,1.7-.34.65-.5,1.63-.5,2.95v7.93h-4.35v-16.6h4.1v2.9c.67-1.1,1.25-1.85,1.75-2.26.8-.67,1.87-1.01,3.17-1.01.08,0,.15,0,.21.01"/>
          <path d="m1061.39,541.4c-.03,1.45-.44,2.46-1.23,3-.81.55-1.67.83-2.61.83-.59,0-1.09-.16-1.52-.5-.41-.33-.61-.87-.61-1.61,0-.83.34-1.45,1.02-1.84.39-.24,1.05-.44,1.98-.6l.98-.18c.49-.09.88-.2,1.15-.3.29-.11.58-.25.85-.41v1.61Zm-4.13-3.47c-1.68.21-2.96.57-3.82,1.07-1.57.91-2.37,2.4-2.37,4.43,0,1.58.49,2.8,1.47,3.66.99.86,2.23,1.29,3.73,1.29,1.18,0,2.24-.27,3.18-.81.78-.46,1.48-1.01,2.07-1.66.03.37.08.71.12,1,.05.29.14.61.27.94h4.73v-.65c-.29-.13-.5-.29-.64-.5-.14-.2-.23-.58-.26-1.15-.02-.75-.03-1.39-.03-1.92v-7.63c0-2.01-.71-3.36-2.12-4.06-1.41-.71-3.04-1.06-4.85-1.06-2.8,0-4.78.73-5.92,2.18-.72.93-1.13,2.12-1.22,3.56h4.18c.1-.64.32-1.16.62-1.53.42-.51,1.16-.76,2.19-.76.92,0,1.62.12,2.09.38.48.26.71.73.71,1.41,0,.57-.31.97-.93,1.24-.35.15-.91.28-1.71.38l-1.49.18Z"/>
          <rect x="1068.64" y="525.43" width="4.35" height="22.43"/>
          <path d="m1077.31,525.22c-1.12,0-2.03.91-2.03,2.04s.91,2.03,2.03,2.03,2.03-.91,2.03-2.03-.91-2.04-2.03-2.04m0,3.87c-1.02,0-1.84-.82-1.84-1.84s.82-1.84,1.84-1.84,1.84.82,1.84,1.84-.82,1.84-1.84,1.84"/>
          <path d="m1076.72,527.11v-.81h.78c.1,0,.19.01.26.04.12.05.18.18.18.35s-.04.28-.12.33c-.09.06-.21.09-.35.09h-.74Zm-.33,1.32h.33v-1.05h.73c.13,0,.22.01.29.05.1.06.15.16.16.32l.02.41c0,.09,0,.16.01.19,0,.03.02.06.03.08h.4v-.06s-.08-.07-.1-.15c-.02-.04-.02-.11-.02-.2v-.33c-.01-.13-.05-.24-.09-.31-.05-.06-.12-.11-.22-.14.11-.06.2-.14.25-.23.06-.08.09-.21.09-.35,0-.28-.11-.48-.34-.58-.11-.05-.26-.07-.44-.07h-1.1v2.42Z"/>
        </g>
        <g>
          <g>
            <g>
              <path class="cls-78" d="m1000.32,574.11c-.32.16-.64.31-1.45.62v3.36c0,.53-.12.87-.92.87h-.93l-.14-.64.88.02c.31,0,.5-.03.5-.4v-3c-.65.25-1.04.38-1.5.53l-.1-.62c.37-.1.76-.2,1.6-.5v-2.73h-1.52v-.55h1.52v-2.25h.61v2.25h1.45v.55h-1.45v2.51c.63-.23,1.05-.42,1.45-.59v.55Zm5.02,3.88c0,.22.03.29.29.29h.25c.2,0,.29-.06.32-.22.09-.45.13-1.46.13-1.71l.61.21c-.04,2.18-.45,2.36-1.02,2.36h-.45c-.53,0-.75-.17-.75-.67v-5.58h-2.7v1.73c0,2.13-.38,3.53-2.14,4.59l-.38-.52c1.17-.72,1.89-1.45,1.89-4.1v-2.25h3.94v5.89Zm-1.59-9.16v1.49h3.12v.54h-6.43v-.54h2.68v-1.49h.63Z"/>
              <path class="cls-78" d="m1017.2,570.89v.75c0,2.41-.66,6.27-6.71,6.76l-.2-.64c5.92-.6,6.2-3.95,6.2-6.02v-.24h-6.66v2.88h-.67v-3.48h3.64v-1.81h.71v1.81h3.71Z"/>
              <path class="cls-78" d="m1025.17,578.58h-.71v-5.5c-1.02.75-2.66,1.8-4.7,2.51l-.31-.65c1.33-.4,5.08-1.96,7.94-5.73l.66.4c-.71.86-1.53,1.8-2.89,2.92v6.05Z"/>
              <path class="cls-78" d="m1032.62,572.44c0,2.73-.55,4.44-2.2,6.07l-.48-.48c1.9-1.73,2.03-3.87,2.03-5.55v-2.84h.65v2.8Zm2.84,5.09c2.8-.53,3.47-2.51,3.83-4.55l.62.25c-.45,2.22-1.31,4.69-5.12,5.1v-9.03h.68v8.22Z"/>
              <path class="cls-78" d="m1049.19,569.84c-.54,2.1-1.38,3.41-2.2,4.51,1.35,1.08,2.62,2.23,3.87,3.46l-.56.52c-1.52-1.63-3.39-3.2-3.72-3.47-.79.93-2.22,2.47-4.6,3.55l-.42-.53c1.76-.76,5.14-2.83,6.76-7.41h-6.25v-.63h7.12Z"/>
              <path class="cls-78" d="m1052.41,573.96c.4-1.01.49-2,.5-2.84l.59.06c-.07,1.28-.21,2.12-.5,3.01l-.59-.22Zm2.3-5.12v10.14h-.62v-10.14h.62Zm.93,3.93c-.1-.69-.33-1.35-.5-1.81l.5-.13c.3.76.44,1.31.54,1.74l-.54.21Zm3.7-1.35v-2.58h.62v2.58h2.64v.56h-2.64v2.54h2.38v.55h-2.38v2.89h2.8v.58h-6.84v-.58h3.42v-2.89h-2.64v-.55h2.64v-2.54h-1.93c-.21.59-.56,1.48-1.05,2.08l-.46-.39c1.02-1.44,1.38-3.22,1.48-4.29l.6.11c-.03.32-.09.93-.38,1.92h1.74Z"/>
              <path class="cls-78" d="m1068.07,569.4c.46.55,1.19,1.54,1.65,2.32l-.5.34c-.11-.21-.2-.39-.44-.76-.52.08-.9.11-4.19.43l-.08-.61c.13.01.6-.02.76-.02.29-.55.66-1.48.96-2.22l.61.16c-.17.32-.83,1.75-.98,2.04,1.78-.11,1.98-.12,2.63-.2-.45-.65-.64-.9-.86-1.17l.44-.3Zm.99,3.14v5.65c0,.56-.24.77-.81.77h-1.14l-.12-.63,1.19.04c.29,0,.29-.16.29-.29v-1.64h-2.85v2.51h-.59v-6.43h4.03Zm-.59.56h-2.85v1.12h2.85v-1.12Zm0,1.63h-2.85v1.21h2.85v-1.21Zm2.39-5.9v1.87c.59-.16,2.05-.6,3.09-1.33l.41.48c-1.02.69-2.61,1.16-3.5,1.36v1.46c0,.22,0,.41.41.41h2.12c.41,0,.55,0,.63-1.6l.57.2c-.09,1.45-.17,1.94-1.02,1.94h-2.42c-.7,0-.9-.3-.9-.82v-3.96h.6Zm0,5.14v1.79c.49-.1,1.78-.41,3.04-1.32l.42.48c-1.02.72-2.59,1.18-3.46,1.37v1.42c0,.34.03.48.53.48h2c.31,0,.38-.06.44-.24.06-.16.16-.75.18-1.49l.6.16c-.15,1.77-.18,2.15-1.18,2.15h-2.17c-.29,0-1,0-1-.84v-3.94h.6Z"/>
            </g>
            <g>
              <g>
                <path class="cls-16" d="m985.19,599.9c.48.05,1.04,0,1.81-.08,1.3-.18,2.52-.71,3.47-1.61,1.1-.99,1.89-2.45,2.19-4.41h-.08c-.92,1.12-2.24,1.78-3.9,1.78-2.98,0-4.89-2.24-4.89-5.07,0-3.13,2.27-5.89,5.66-5.89s5.48,2.75,5.48,6.98c0,3.64-1.22,6.19-2.85,7.77-1.27,1.25-3.03,2.01-4.82,2.22-.82.13-1.53.15-2.06.13v-1.83Zm.81-9.53c0,2.06,1.25,3.52,3.19,3.52,1.5,0,2.68-.74,3.26-1.73.13-.2.2-.46.2-.82,0-2.83-1.04-4.99-3.39-4.99-1.91,0-3.26,1.68-3.26,4.03Z"/>
                <path class="cls-16" d="m998.26,599.9c.48.05,1.04,0,1.81-.08,1.3-.18,2.52-.71,3.47-1.61,1.1-.99,1.89-2.45,2.19-4.41h-.08c-.92,1.12-2.24,1.78-3.9,1.78-2.98,0-4.89-2.24-4.89-5.07,0-3.13,2.27-5.89,5.66-5.89s5.48,2.75,5.48,6.98c0,3.64-1.22,6.19-2.85,7.77-1.27,1.25-3.03,2.01-4.82,2.22-.82.13-1.53.15-2.06.13v-1.83Zm.82-9.53c0,2.06,1.25,3.52,3.18,3.52,1.5,0,2.68-.74,3.26-1.73.13-.2.2-.46.2-.82,0-2.83-1.04-4.99-3.39-4.99-1.91,0-3.26,1.68-3.26,4.03Z"/>
                <path class="cls-16" d="m1010.21,600.16c0-.94.64-1.61,1.53-1.61s1.5.66,1.5,1.61-.59,1.61-1.53,1.61c-.89,0-1.5-.69-1.5-1.61Z"/>
                <path class="cls-16" d="m1016.61,599.9c.48.05,1.04,0,1.81-.08,1.3-.18,2.52-.71,3.47-1.61,1.1-.99,1.89-2.45,2.19-4.41h-.08c-.92,1.12-2.24,1.78-3.9,1.78-2.98,0-4.89-2.24-4.89-5.07,0-3.13,2.27-5.89,5.66-5.89s5.48,2.75,5.48,6.98c0,3.64-1.22,6.19-2.85,7.77-1.27,1.25-3.03,2.01-4.82,2.22-.82.13-1.53.15-2.06.13v-1.83Zm.81-9.53c0,2.06,1.25,3.52,3.19,3.52,1.5,0,2.68-.74,3.26-1.73.13-.2.2-.46.2-.82,0-2.83-1.04-4.99-3.39-4.99-1.91,0-3.26,1.68-3.26,4.03Z"/>
                <path class="cls-16" d="m1029.68,599.9c.48.05,1.04,0,1.81-.08,1.3-.18,2.52-.71,3.46-1.61,1.1-.99,1.89-2.45,2.19-4.41h-.08c-.92,1.12-2.24,1.78-3.9,1.78-2.98,0-4.89-2.24-4.89-5.07,0-3.13,2.27-5.89,5.66-5.89s5.48,2.75,5.48,6.98c0,3.64-1.22,6.19-2.85,7.77-1.27,1.25-3.03,2.01-4.82,2.22-.81.13-1.53.15-2.06.13v-1.83Zm.82-9.53c0,2.06,1.25,3.52,3.19,3.52,1.5,0,2.68-.74,3.26-1.73.13-.2.2-.46.2-.82,0-2.83-1.04-4.99-3.39-4.99-1.91,0-3.26,1.68-3.26,4.03Z"/>
              </g>
              <g>
                <path class="cls-16" d="m1053.05,594.75c0,2.13-1.05,3.16-2.27,3.16s-2.22-1-2.22-3.03,1.07-3.12,2.29-3.12c1.38,0,2.2,1.12,2.2,2.98Zm-3.56.14c0,1.25.45,2.31,1.31,2.31.93,0,1.31-1.08,1.31-2.38,0-1.23-.34-2.34-1.31-2.34s-1.31,1.23-1.31,2.41Zm1.89,7.28h-.78l5.86-10.43h.78l-5.86,10.43Zm7.92-3.23c0,2.12-1.05,3.15-2.27,3.15s-2.22-1-2.22-3.03,1.07-3.13,2.29-3.13c1.38,0,2.2,1.14,2.2,3.01Zm-3.56.07c0,1.3.45,2.36,1.31,2.36.94,0,1.31-1.07,1.31-2.38,0-1.22-.33-2.34-1.3-2.34-.92,0-1.33,1.19-1.33,2.37Z"/>
                <g>
                  <path class="cls-16" d="m1062.89,593.9c.76.29,1.68.79,2.15,1.2l-.49.7c-.46-.4-1.36-.95-2.12-1.28l.47-.62Zm-.21,7.5c.54-1.04,1.31-2.79,1.86-4.28l.68.47c-.49,1.39-1.17,3.02-1.67,4.02.05.06.08.14.08.19s-.01.1-.04.14l-.91-.53Zm.83-10.97c.75.34,1.67.87,2.11,1.3l-.5.68c-.44-.42-1.33-1-2.08-1.37l.48-.62Zm7.86,2.84c.08,1.77.2,3.25.38,4.42.49-.86.87-1.83,1.15-2.91l.99.25c-.04.09-.13.14-.28.14-.39,1.38-.95,2.59-1.66,3.63.34,1.63.8,2.44,1.25,2.44.25,0,.4-.39.47-1.88.18.16.43.35.63.43-.14,1.93-.44,2.27-1.17,2.29-.78,0-1.37-.85-1.78-2.48-.8.93-1.77,1.71-2.89,2.29-.11-.16-.38-.42-.54-.56,1.3-.63,2.38-1.54,3.22-2.69-.25-1.39-.43-3.2-.54-5.37h-3.78v2.63c0,1.86-.18,4.44-1.41,6.22-.14-.14-.48-.33-.67-.4,1.19-1.69,1.33-4.07,1.33-5.81v-3.41h4.51c-.02-.7-.05-1.42-.06-2.17l1.09.06c-.01.1-.09.15-.26.18,0,.68.01,1.33.03,1.93h2.78v.78h-2.75Zm-1.04,1.06v.68h-3.12v-.68h3.12Zm-2.4,5.13v.63h-.59v-4.03h2.87v3.4h-2.27Zm1.67-2.73h-1.67v2.05h1.67v-2.05Zm2.72-6.39c.62.42,1.33,1.01,1.67,1.45l-.54.48c-.33-.44-1.02-1.07-1.64-1.5l.52-.43Z"/>
                  <path class="cls-16" d="m1079.43,592.25c-.03.09-.13.14-.28.13-.56,1.35-1.58,3.15-2.72,4.32-.18-.16-.52-.39-.75-.52,1.14-1.09,2.14-2.82,2.63-4.22l1.11.29Zm6.47,3.82c-.04.09-.11.13-.27.14-1.21,3.37-3.78,5.14-8.54,5.89-.09-.26-.29-.62-.46-.83,4.59-.61,7.06-2.22,8.17-5.48l1.09.29Zm-4.76-5.72l1.12.06c-.03.09-.09.15-.25.18v6.32c0,.56-.14.81-.54.96-.4.14-1.1.15-2.19.15-.04-.25-.18-.62-.32-.87.52.01,1,.03,1.35.03.76,0,.82,0,.82-.28v-6.54Zm5.53,6.18c-.46-1.16-1.64-2.97-2.75-4.3l.76-.38c1.12,1.29,2.34,3.04,2.83,4.22l-.83.46Z"/>
                </g>
              </g>
            </g>
          </g>
          <g>
            <g>
              <rect class="cls-16" x="992.34" y="666.24" width="1.72" height="8.52"/>
              <path class="cls-16" d="m995.26,671.99l1.67-.16c.1.56.3.97.61,1.24.31.26.72.4,1.25.4.56,0,.97-.12,1.25-.35.28-.23.42-.51.42-.82,0-.2-.06-.37-.18-.51-.12-.14-.32-.26-.62-.37-.2-.07-.66-.19-1.38-.37-.92-.23-1.57-.51-1.94-.84-.52-.47-.78-1.04-.78-1.71,0-.43.12-.84.37-1.22.25-.38.6-.67,1.06-.86.46-.2,1.02-.3,1.68-.3,1.07,0,1.87.24,2.41.7.54.47.82,1.09.85,1.88l-1.72.08c-.07-.44-.23-.75-.47-.94-.24-.19-.61-.29-1.09-.29s-.89.1-1.17.31c-.18.13-.27.31-.27.53,0,.2.09.37.26.52.22.18.74.37,1.58.57.84.2,1.46.4,1.86.61.4.21.71.5.94.87.23.37.34.82.34,1.36,0,.49-.13.94-.41,1.37-.27.43-.66.74-1.15.95-.5.21-1.11.31-1.85.31-1.08,0-1.9-.25-2.48-.75-.58-.5-.92-1.22-1.03-2.17"/>
              <path class="cls-16" d="m1003.28,670.56c0-.87.13-1.6.39-2.19.19-.43.46-.82.79-1.17.34-.34.7-.6,1.1-.77.53-.22,1.14-.34,1.84-.34,1.25,0,2.26.39,3.01,1.17.75.78,1.13,1.86,1.13,3.25s-.37,2.45-1.12,3.23c-.75.78-1.75,1.17-3,1.17s-2.27-.39-3.02-1.16c-.75-.77-1.12-1.84-1.12-3.19m1.77-.06c0,.96.22,1.7.67,2.19.45.5,1.01.75,1.7.75s1.25-.25,1.69-.74c.44-.49.66-1.24.66-2.22s-.21-1.7-.64-2.19c-.43-.48-1-.72-1.71-.72s-1.28.24-1.71.73c-.43.49-.65,1.22-.65,2.2"/>
              <path class="cls-16" d="m1021.35,673.25v1.52h-5.72c.06-.57.25-1.12.56-1.63s.92-1.19,1.84-2.04c.74-.69,1.19-1.15,1.35-1.39.22-.34.34-.67.34-1,0-.36-.1-.64-.29-.84-.2-.19-.47-.29-.81-.29s-.61.1-.81.31c-.2.21-.32.55-.35,1.02l-1.63-.16c.1-.9.4-1.54.91-1.94.51-.39,1.15-.59,1.92-.59.84,0,1.5.23,1.98.68.48.45.72,1.02.72,1.69,0,.38-.07.75-.21,1.1-.14.35-.36.71-.66,1.09-.2.25-.55.61-1.07,1.09-.51.47-.84.79-.98.94-.14.16-.25.31-.33.45h3.24Z"/>
              <path class="cls-16" d="m1026.63,674.76h-1.63v-6.15c-.6.56-1.3.97-2.11,1.24v-1.48c.43-.14.89-.4,1.39-.79.5-.39.84-.84,1.03-1.36h1.32v8.55Z"/>
              <path class="cls-16" d="m1029.07,667.88v-1.52h5.58v1.19c-.46.45-.93,1.1-1.41,1.95-.48.85-.84,1.75-1.09,2.7-.25.95-.37,1.81-.37,2.56h-1.57c.03-1.18.27-2.38.73-3.6s1.07-2.32,1.84-3.28h-3.71Z"/>
              <path class="cls-16" d="m1038.45,666.21c.83,0,1.47.3,1.94.88.55.7.83,1.85.83,3.47s-.28,2.77-.84,3.47c-.46.58-1.1.87-1.93.87s-1.5-.32-2-.96c-.51-.64-.76-1.77-.76-3.41s.28-2.76.84-3.46c.46-.58,1.1-.87,1.93-.87m0,1.35c-.2,0-.37.06-.53.19-.15.13-.28.35-.36.68-.11.42-.17,1.13-.17,2.13s.05,1.69.15,2.06c.1.37.23.62.38.75.15.12.33.19.53.19s.37-.06.53-.19c.15-.13.27-.35.36-.68.11-.42.17-1.13.17-2.13s-.05-1.69-.15-2.06c-.1-.37-.23-.62-.38-.75-.15-.13-.33-.19-.53-.19"/>
              <path class="cls-16" d="m1047.82,673.25v1.52h-5.72c.06-.57.25-1.12.56-1.63.31-.51.92-1.19,1.84-2.04.74-.69,1.19-1.15,1.35-1.39.22-.34.34-.67.34-1,0-.36-.1-.64-.29-.84-.2-.19-.47-.29-.81-.29s-.61.1-.81.31-.32.55-.35,1.02l-1.63-.16c.1-.9.4-1.54.91-1.94.51-.39,1.15-.59,1.92-.59.84,0,1.5.23,1.98.68.48.45.72,1.02.72,1.69,0,.38-.07.75-.21,1.1-.14.35-.36.71-.65,1.09-.2.25-.55.61-1.07,1.09-.51.47-.84.79-.98.94-.14.16-.25.31-.33.45h3.24Z"/>
              <path class="cls-16" d="m1003.39,684.17h-7.4v.58h-1.04v2.03c.44-.15.75-.26.93-.33l.14,1.43c-.26.12-.61.27-1.07.45v3.91c0,.46-.14.81-.41,1.06-.27.25-.62.37-1.03.37h-1.4l-.19-1.67h.96c.28,0,.42-.14.42-.42v-2.67c-.51.17-.93.3-1.28.4l-.32-1.66c.35-.05.88-.18,1.6-.37v-2.53h-1.34v-1.47h1.34v-2.43h1.65v2.43h.92v-.79h2.58s0-1.74,0-1.74h1.68v1.74h3.27v1.67Zm.51,7.76c0,.37-.06.66-.17.9-.11.23-.28.4-.5.51-.22.1-.56.15-1.01.15s-.83-.02-1.09-.05c-.26-.04-.48-.17-.67-.41-.19-.24-.29-.57-.29-.99v-5.39h-2.02v1.28c0,.82-.07,1.54-.21,2.17-.14.63-.38,1.27-.71,1.91-.33.64-.75,1.2-1.24,1.67l-1-1.25c.49-.56.88-1.18,1.15-1.89.27-.7.41-1.72.41-3.05v-2.4h5.25v6.44c0,.19.08.29.24.29h.25c.07,0,.13-.02.17-.06.04-.04.07-.11.08-.19.01-.09.03-.33.04-.73.02-.4.02-.86.02-1.39l1.29.23v2.26Z"/>
              <path class="cls-16" d="m1015.51,683.84c0,3.43-.65,5.86-1.95,7.28-1.3,1.42-3.44,2.3-6.43,2.61l-.4-1.88c1.57-.22,2.72-.48,3.46-.78.74-.3,1.35-.71,1.84-1.23.49-.52.81-.98.98-1.4.17-.42.3-.99.4-1.7.1-.72.15-1.46.15-2.24h-6.75v3.87h-1.84v-5.68h4.25v-1.81h1.9v1.81h4.39v1.14Z"/>
              <path class="cls-16" d="m1024.29,693.57h-1.9v-6.45c-1.54.91-3.25,1.62-5.14,2.14l-.57-1.86c2.18-.6,4.07-1.48,5.68-2.64,1.61-1.16,2.83-2.5,3.66-4.01l1.8.79c-.64,1.1-1.23,1.95-1.77,2.55-.55.61-1.13,1.16-1.76,1.67v7.81Z"/>
              <path class="cls-16" d="m1033.41,685.57c0,2.23-.31,3.98-.96,5.24-.65,1.26-1.64,2.26-2.98,2.98l-.73-1.74c.9-.51,1.6-1.26,2.09-2.26.49-1,.73-2.52.73-4.56v-3.35h1.85v3.69Zm7.96,2.29c-.6,1.44-1.4,2.66-2.4,3.65-1,.99-2.12,1.66-3.35,2.01l-.74-.7v-11.36h1.85v9.29c1.27-.72,2.33-2.11,3.2-4.18l1.44,1.29Z"/>
              <path class="cls-16" d="m1053.78,692.16l-1.39,1.53c-.73-.92-2.14-2.41-4.23-4.48-1.83,2.03-3.76,3.54-5.79,4.52l-.9-1.68c1.58-.77,3.11-1.92,4.61-3.43,1.5-1.51,2.6-3.17,3.31-4.98h-6.27v-1.87h8.13l.51.56c-.3,1.21-.63,2.2-1.01,2.97-.38.77-.86,1.57-1.43,2.39,1.78,1.66,3.27,3.15,4.48,4.46"/>
              <path class="cls-16" d="m1057.7,685.07c-.05,2.15-.31,3.93-.77,5.36-.46,1.42-1,2.51-1.62,3.27l-1.22-1c.61-.86,1.08-1.96,1.42-3.3.34-1.34.52-2.78.54-4.32h-1.37v-1.61h1.38v-2.65h1.73v2.65h2.58v2.26c0,1.64-.01,2.83-.03,3.57-.02.75-.08,1.42-.17,2.03-.09.61-.19,1-.28,1.18-.09.18-.23.34-.41.5-.18.16-.39.27-.63.35-.24.08-.67.12-1.28.12-.19,0-.42,0-.67,0l-.22-1.73h1.06c.22,0,.4-.06.54-.19.14-.13.25-.59.32-1.37.07-.79.11-1.72.11-2.81v-2.3h-1Zm6.3,7.43h-1.3v.97h-1.65v-11.51h4.61v11.4h-1.67v-.86Zm-1.3-1.63h1.29v-7.36h-1.29v7.36Z"/>
              <polygon class="cls-16" points="1078.46 693.12 1066.9 693.12 1066.9 691.34 1071.69 691.34 1071.69 683.6 1067.37 683.6 1067.37 681.87 1077.99 681.87 1077.99 683.6 1073.53 683.6 1073.53 691.34 1078.46 691.34 1078.46 693.12"/>
              <path class="cls-16" d="m1050.55,645.08c-.28.6-.69,1.12-1.19,1.52.5.4.91.92,1.19,1.51.53-.83,1.42-1.41,2.45-1.51-1.03-.1-1.92-.68-2.45-1.52"/>
              <path class="cls-16" d="m1053.01,653.14c-1.03-.11-1.92-.68-2.45-1.52-.2.42-.46.8-.78,1.13l1.28,1.28c.52-.5,1.2-.83,1.95-.9"/>
              <path class="cls-16" d="m1050.55,638.54c-.28.6-.69,1.11-1.19,1.51.5.4.91.92,1.19,1.52.53-.83,1.42-1.42,2.45-1.52-1.03-.1-1.92-.68-2.45-1.51"/>
              <path class="cls-16" d="m1059.88,647.49c1.31,0,2.38,1.07,2.38,2.39s-1.07,2.36-2.38,2.36-2.39-1.07-2.39-2.36,1.07-2.39,2.39-2.39m0-6.54c1.31,0,2.38,1.07,2.38,2.39s-1.07,2.37-2.38,2.37-2.39-1.07-2.39-2.37,1.07-2.39,2.39-2.39m0-6.54c1.31,0,2.38,1.07,2.38,2.37s-1.07,2.38-2.38,2.38-2.39-1.07-2.39-2.38,1.07-2.37,2.39-2.37m6.54,13.98c.82,0,1.49.67,1.49,1.49s-.67,1.47-1.49,1.47-1.49-.65-1.49-1.47.67-1.49,1.49-1.49m0-6.54c.82,0,1.49.67,1.49,1.49s-.67,1.47-1.49,1.47-1.49-.67-1.49-1.47.67-1.49,1.49-1.49m0-6.54c.82,0,1.49.67,1.49,1.47s-.67,1.49-1.49,1.49-1.49-.67-1.49-1.49.67-1.47,1.49-1.47m-6.54,23.49c-1.32,0-2.39-1.05-2.39-2.37s1.07-2.39,2.39-2.39,2.38,1.07,2.38,2.39c0,.43-.12.84-.32,1.19l17.3-17.31-20.95-20.94-14.16,14.16s.02.02.02.03c.72-.59,1.64-.95,2.64-.95,1.68,0,3.11.99,3.77,2.41.58-.92,1.61-1.53,2.77-1.53,1.82,0,3.3,1.47,3.3,3.28,0,1.71-1.3,3.12-2.97,3.28,1.67.17,2.97,1.57,2.97,3.28s-1.3,3.1-2.97,3.26c1.67.16,2.97,1.57,2.97,3.28s-1.3,3.1-2.97,3.26c1.67.16,2.97,1.57,2.97,3.28,0,.88-.35,1.69-.92,2.26l2.57,2.58,2.78-2.78c-.35.19-.75.3-1.18.3"/>
              <path class="cls-16" d="m996.78,652.55v1.75c0,1.27.28,2.44,1.82,2.44,1.23,0,1.88-.8,1.88-1.82,0-2.08-2.15-3.44-4.29-5.02-2.18-1.78-4.36-3.07-4.36-6.67,0-4.63,2.59-6.6,6.92-6.6,4.71,0,6.77,2.3,6.77,5.93v2.11h-5.06v-1.26c0-1.18-.18-2.61-1.71-2.61-1.16,0-1.86.68-1.86,1.79,0,1.41,2.3,3,4.5,4.67,2.01,1.76,4.51,2.93,4.51,7.66,0,2.26-1.71,5.99-7.35,5.99s-7.01-3.39-7.01-5.82v-2.55h5.25Z"/>
              <rect class="cls-16" x="1008.62" y="637.02" width="5.42" height="23.5"/>
              <path class="cls-16" d="m1022.22,652.17h2.7l-1.26-11.52h-.06l-1.38,11.52Zm-2.18-15.14h7.17l4.42,23.5h-5.67l-.51-4.17h-3.78l-.57,4.17h-5.41l4.35-23.5Z"/>
              <path class="cls-16" d="m1038.16,652.17h2.71l-1.27-11.52h-.06l-1.39,11.52Zm-2.17-15.14h7.19l4.41,23.5h-5.68l-.5-4.17h-3.8l-.56,4.17h-5.41l4.36-23.5Z"/>
            </g>
            <g class="cls-37">
              <path class="cls-51" d="m1005.3,755.84h-8.56v.59h-1.2v2.03c.51-.15.87-.26,1.07-.33l.16,1.43c-.29.12-.71.27-1.23.45v3.91c0,.46-.16.81-.47,1.06-.32.25-.71.37-1.2.37h-1.62l-.21-1.67h1.11c.32,0,.49-.14.49-.42v-2.67c-.59.17-1.08.3-1.48.4l-.36-1.67c.41-.05,1.02-.18,1.85-.37v-2.53h-1.55v-1.47h1.55v-2.43h1.9v2.43h1.06v-.79h2.98s0-1.74,0-1.74h1.94v1.75h3.78v1.67Zm.58,7.77c0,.36-.06.66-.2.9-.13.24-.32.41-.57.51-.25.1-.64.15-1.17.15s-.96-.02-1.26-.05c-.3-.04-.56-.17-.78-.41-.22-.24-.33-.57-.33-.99v-5.4h-2.34v1.28c0,.82-.08,1.54-.24,2.18-.16.64-.44,1.27-.83,1.92-.38.64-.86,1.2-1.43,1.67l-1.16-1.25c.57-.56,1.02-1.19,1.33-1.89.32-.7.47-1.72.47-3.05v-2.4h6.07v6.44c0,.19.09.29.28.29h.29c.08,0,.14-.02.19-.06.05-.04.08-.11.09-.19.02-.09.03-.33.05-.73.02-.4.03-.86.03-1.39l1.49.24v2.26Z"/>
              <path class="cls-51" d="m1017.9,764.79h-8.89v.47h-1.87v-10.24h2.88v-.63h-3.23v-1.25h3.23v-.61h1.83v.61h3.37v-.61h1.83v.61h3.19v1.25h-3.19v.63h2.78v10.24h-1.93v-.47Zm-8.89-1.18h8.9v-7.5h-8.9v7.5Zm3.61-2.52c-.92.8-1.86,1.39-2.81,1.77l-.77-1.25c.84-.32,1.72-.88,2.65-1.67h-2.12v-1.29h3.02v-.65c-.79.04-1.54.07-2.27.07l-.24-1.25c2.6-.02,4.58-.21,5.95-.57l.74,1.24c-.63.16-1.45.29-2.48.39v.77h3.08v1.28h-2.26c.68.57,1.6,1.12,2.75,1.67l-.92,1.25c-.94-.38-1.84-1-2.68-1.85v2.14h-1.64v-2.04Zm-.77-6.07h3.37v-.63h-3.37v.63Z"/>
              <path class="cls-51" d="m1025.15,756.75c-.05,2.15-.35,3.94-.89,5.36-.53,1.42-1.16,2.51-1.87,3.27l-1.41-1.01c.7-.86,1.25-1.96,1.64-3.3.39-1.34.6-2.78.62-4.33h-1.59v-1.61h1.59v-2.65h2v2.65h2.98v2.26c0,1.64-.01,2.83-.04,3.57-.03.74-.09,1.42-.2,2.03-.11.61-.22,1-.32,1.18-.11.18-.26.35-.47.5-.21.16-.45.27-.74.35-.28.08-.77.12-1.47.12-.22,0-.48,0-.77,0l-.25-1.73h1.23c.25,0,.46-.06.62-.19.16-.13.29-.59.36-1.38.08-.79.12-1.72.12-2.81v-2.3h-1.16Zm7.28,7.43h-1.49v.98h-1.9v-11.52h5.33v11.4h-1.93v-.86Zm-1.49-1.63h1.49v-7.36h-1.49v7.36Z"/>
              <polygon class="cls-51" points="1049.5 764.81 1036.13 764.81 1036.13 763.03 1041.67 763.03 1041.67 755.27 1036.68 755.27 1036.68 753.55 1048.96 753.55 1048.96 755.27 1043.8 755.27 1043.8 763.03 1049.5 763.03 1049.5 764.81"/>
              <path class="cls-51" d="m1050.9,732.29c-.28.6-.7,1.12-1.2,1.52.5.4.92.92,1.2,1.52.53-.83,1.43-1.41,2.47-1.52-1.04-.1-1.94-.68-2.47-1.52"/>
              <path class="cls-51" d="m1053.36,740.35c-1.04-.11-1.94-.68-2.47-1.52-.2.42-.47.8-.78,1.13l1.29,1.28c.52-.5,1.2-.82,1.96-.9"/>
              <path class="cls-51" d="m1050.9,725.74c-.28.6-.7,1.11-1.2,1.51.5.41.92.92,1.2,1.52.53-.83,1.43-1.42,2.47-1.52-1.04-.1-1.94-.68-2.47-1.51"/>
              <path class="cls-51" d="m1060.27,734.7c1.32,0,2.4,1.07,2.4,2.39s-1.08,2.37-2.4,2.37-2.4-1.07-2.4-2.37,1.08-2.39,2.4-2.39m0-6.55c1.32,0,2.4,1.07,2.4,2.39s-1.08,2.37-2.4,2.37-2.4-1.07-2.4-2.37,1.08-2.39,2.4-2.39m0-6.55c1.32,0,2.4,1.07,2.4,2.37s-1.08,2.39-2.4,2.39-2.4-1.07-2.4-2.39,1.08-2.37,2.4-2.37m6.58,13.99c.83,0,1.5.67,1.5,1.49s-.67,1.47-1.5,1.47-1.5-.65-1.5-1.47.67-1.49,1.5-1.49m0-6.54c.83,0,1.5.67,1.5,1.49s-.67,1.48-1.5,1.48-1.5-.67-1.5-1.48.67-1.49,1.5-1.49m0-6.55c.83,0,1.5.67,1.5,1.47s-.67,1.49-1.5,1.49-1.5-.67-1.5-1.49.67-1.47,1.5-1.47m-6.58,23.5c-1.32,0-2.4-1.05-2.4-2.37s1.08-2.39,2.4-2.39,2.4,1.07,2.4,2.39c0,.43-.13.84-.33,1.19l17.4-17.32-21.08-20.95-14.24,14.17s.01.02.02.03c.72-.6,1.64-.95,2.66-.95,1.68,0,3.12.99,3.79,2.41.59-.92,1.62-1.53,2.78-1.53,1.83,0,3.32,1.48,3.32,3.28,0,1.71-1.31,3.12-2.99,3.28,1.68.16,2.99,1.57,2.99,3.28s-1.31,3.1-2.99,3.27c1.68.16,2.99,1.57,2.99,3.28s-1.31,3.1-2.99,3.27c1.68.16,2.99,1.57,2.99,3.28,0,.88-.35,1.69-.92,2.26l2.59,2.58,2.8-2.78c-.35.19-.75.3-1.19.3"/>
              <path class="cls-51" d="m996.8,739.76v1.75c0,1.27.28,2.44,1.83,2.44,1.23,0,1.9-.8,1.9-1.82,0-2.08-2.16-3.44-4.32-5.03-2.2-1.79-4.39-3.08-4.39-6.67,0-4.63,2.61-6.61,6.96-6.61,4.74,0,6.81,2.3,6.81,5.93v2.11h-5.09v-1.26c0-1.18-.18-2.61-1.72-2.61-1.16,0-1.87.68-1.87,1.79,0,1.41,2.31,3,4.53,4.67,2.02,1.76,4.53,2.93,4.53,7.66,0,2.26-1.72,6-7.4,6s-7.05-3.39-7.05-5.82v-2.55h5.28Z"/>
              <rect class="cls-51" x="1008.72" y="724.22" width="5.45" height="23.52"/>
              <path class="cls-51" d="m1022.4,739.38h2.72l-1.27-11.52h-.06l-1.39,11.52Zm-2.19-15.15h7.21l4.44,23.52h-5.71l-.51-4.18h-3.8l-.58,4.18h-5.44l4.38-23.52Z"/>
              <path class="cls-51" d="m1038.43,739.38h2.73l-1.27-11.52h-.06l-1.4,11.52Zm-2.18-15.15h7.23l4.43,23.52h-5.71l-.5-4.18h-3.82l-.56,4.18h-5.44l4.38-23.52Z"/>
            </g>
          </g>
        </g>
        <text class="cls-8" transform="translate(727.02 663.46)"><tspan class="cls-48" x="0" y="0">マ</tspan><tspan class="cls-43" x="11.74" y="0">ッ</tspan><tspan class="cls-5" x="20.22" y="0">ト</tspan><tspan class="cls-68" x="32.33" y="0">塗装</tspan></text>
        <text class="cls-8" transform="translate(852.71 663.46)"><tspan class="cls-34" x="0" y="0">フ</tspan><tspan class="cls-57" x="10.99" y="0">リ</tspan><tspan class="cls-18" x="22.54" y="0">ー</tspan><tspan class="cls-65" x="34.96" y="0">ワ</tspan><tspan class="cls-35" x="45.85" y="0">ッ</tspan><tspan class="cls-71" x="56.51" y="0">ク</tspan><tspan class="cls-53" x="68.09" y="0">ス</tspan></text>
        <text class="cls-8" transform="translate(727.5 773.39)"><tspan class="cls-68" x="0" y="0">耐</tspan><tspan class="cls-55" x="14.62" y="0">久・</tspan><tspan class="cls-68" x="34.72" y="0">安定性</tspan></text>
        <text class="cls-8" transform="translate(854.4 773.39)"><tspan class="cls-66" x="0" y="0">良</tspan><tspan class="cls-21" x="14.51" y="0">質な</tspan><tspan class="cls-68" x="41.6" y="0">銘</tspan><tspan class="cls-13" x="56.23" y="0">木</tspan><tspan class="cls-74" x="69.3" y="0">を</tspan><tspan class="cls-68" x="82.59" y="0">厳選</tspan></text>
      </g>
      <text class="cls-7" transform="translate(511.19 247.66)"><tspan x="0" y="0">【算出条件</tspan><tspan class="cls-81" x="55" y="0">】</tspan><tspan x="5.5" y="16">●住宅断熱仕様 次世代省エネルギー基</tspan><tspan class="cls-49" x="195.14" y="16">準</tspan><tspan x="203.3" y="16">（平</tspan><tspan class="cls-25" x="225.3" y="16">成</tspan><tspan x="239.05" y="16">1</tspan><tspan class="cls-25" x="245.05" y="16">1</tspan><tspan x="253.79" y="16">年基準</tspan><tspan class="cls-67" x="286.79" y="16">）</tspan><tspan class="cls-25" x="294.96" y="16">Q</tspan><tspan x="305.86" y="16">値適合レベル</tspan><tspan class="cls-81" x="371.86" y="16">。</tspan><tspan x="377.36" y="16">●想定冷暖房機</tspan><tspan class="cls-49" x="454.36" y="16">器</tspan><tspan x="462.52" y="16">「平</tspan><tspan class="cls-25" x="484.52" y="16">成</tspan><tspan x="498.27" y="16">2</tspan><tspan class="cls-25" x="504.27" y="16">5</tspan><tspan x="513.01" y="16">年省エネルギー</tspan><tspan class="cls-29" x="5.5" y="32">基準に準拠した算</tspan><tspan class="cls-83" x="93.9" y="32">定・</tspan><tspan class="cls-29" x="115.9" y="32">判断の方法及び解</tspan><tspan x="204.29" y="32">説Ⅱ</tspan><tspan class="cls-29" x="226.29" y="32">住</tspan><tspan class="cls-83" x="237.34" y="32">宅」</tspan><tspan class="cls-29" x="259.34" y="32">に準</tspan><tspan x="281.44" y="32">拠</tspan><tspan class="cls-81" x="292.44" y="32">。</tspan><tspan x="297.94" y="32">●</tspan><tspan class="cls-29" x="308.94" y="32">空調設</tspan><tspan x="342.09" y="32">定 </tspan><tspan class="cls-29" x="355.73" y="32">暖</tspan><tspan class="cls-83" x="366.78" y="32">房：24℃ </tspan><tspan class="cls-29" x="414.41" y="32">冷</tspan><tspan x="425.46" y="32">房：25</tspan><tspan class="cls-80" x="459.45" y="32">℃</tspan><tspan x="467.7" y="32">・6</tspan><tspan class="cls-44" x="484.7" y="32">0</tspan><tspan x="490.72" y="32">％「</tspan><tspan class="cls-29" x="512.72" y="32">住宅事業建築</tspan><tspan x="579.01" y="32">主</tspan><tspan x="5.5" y="48">の判断の基準におけるエネルギー消費量計算方法の解説」スケジュールに準拠した間歇運転</tspan><tspan class="cls-81" x="456.5" y="48">。</tspan><tspan x="462" y="48">●電力量単</tspan><tspan class="cls-38" x="517" y="48">価</tspan><tspan x="532.29" y="48">2</tspan><tspan class="cls-38" x="538.28" y="48">7円</tspan><tspan x="563.86" y="48">/kWh</tspan><tspan x="0" y="64">（税込）/（公園）全国家庭電気製品公正取引協議会 新電力目安単価</tspan></text>
      <g>
        <text class="cls-12" transform="translate(516.69 16.22)"><tspan class="cls-82" x="0" y="0">●</tspan><tspan class="cls-23" x="17" y="3.28">年間冷暖房費比較</tspan></text>
        <text class="cls-10" transform="translate(568.13 62.24)"><tspan x="0" y="0">アルミ</tspan><tspan x="-35.81" y="23.87">（複層ガラス</tspan><tspan class="cls-33" x="71.61" y="23.87">）</tspan></text>
        <text class="cls-10" transform="translate(532.33 128.95)"><tspan x="0" y="0">アルミ樹脂複合</tspan><tspan x="0" y="23.87">（複層ガラス</tspan><tspan class="cls-33" x="107.42" y="23.87">）</tspan></text>
        <text class="cls-11" transform="translate(560.99 197)"><tspan x="0" y="0">APW330</tspan><tspan x="-55.61" y="23.87">（Low-</tspan><tspan class="cls-86" x="2.32" y="23.87">E</tspan><tspan x="16.19" y="23.87">複層ガラス</tspan><tspan class="cls-33" x="105.71" y="23.87">）</tspan></text>
        <text class="cls-20" transform="translate(718.72 212.1)"><tspan x="0" y="0">50,50</tspan><tspan class="cls-26" x="67.44" y="0">0</tspan><tspan x="88.17" y="0">円</tspan></text>
        <text class="cls-14" transform="translate(979.77 193.5)"><tspan x="0" y="0">16,40</tspan><tspan class="cls-47" x="74.46" y="0">0</tspan><tspan x="97.05" y="0">円</tspan><tspan x="24.15" y="28.14">お得‼</tspan></text>
        <text class="cls-20" transform="translate(718.72 142.91)"><tspan x="0" y="0">59,60</tspan><tspan class="cls-26" x="67.44" y="0">0</tspan><tspan x="88.17" y="0">円</tspan></text>
        <text class="cls-20" transform="translate(718.72 76.55)"><tspan x="0" y="0">66,90</tspan><tspan class="cls-26" x="67.44" y="0">0</tspan><tspan x="88.17" y="0">円</tspan></text>
      </g>
      <text class="cls-24" transform="translate(2.55 317.75)"><tspan class="cls-69" x="0" y="0">A</tspan><tspan class="cls-17" x="21.2" y="0">P</tspan><tspan class="cls-9" x="39.17" y="0">W</tspan><tspan class="cls-87" x="65.62" y="0">3</tspan><tspan class="cls-2" x="80.87" y="0">3</tspan><tspan class="cls-58" x="96.24" y="0">0　</tspan><tspan class="cls-4" x="137.58" y="0">L</tspan><tspan class="cls-1" x="157.08" y="0">o</tspan><tspan class="cls-41" x="173.14" y="0">w</tspan><tspan class="cls-31" x="193.76" y="0">-</tspan><tspan class="cls-77" x="202.48" y="0">E</tspan><tspan class="cls-3" x="221.88" y="0">複</tspan><tspan class="cls-39" x="248.11" y="0">層</tspan><tspan class="cls-75" x="272.3" y="0">ガ</tspan><tspan class="cls-79" x="296.51" y="0">ラ</tspan><tspan class="cls-15" x="318.6" y="0">ス</tspan></text>
      <text class="cls-6" transform="translate(0 355.25)"><tspan class="cls-28" x="0" y="0">高い</tspan><tspan class="cls-68" x="38.84" y="0">断熱性</tspan><tspan class="cls-59" x="99.59" y="0">能</tspan><tspan class="cls-64" x="117.02" y="0">と</tspan><tspan class="cls-46" x="132.28" y="0">日</tspan><tspan class="cls-68" x="150.37" y="0">射遮蔽性</tspan><tspan class="cls-76" x="231.37" y="0">能</tspan><tspan class="cls-22" x="249.48" y="0">を</tspan><tspan class="cls-68" x="267.88" y="0">両</tspan><tspan class="cls-70" x="288.13" y="0">立</tspan><tspan class="cls-73" x="305.01" y="0">し</tspan><tspan class="cls-42" x="323.96" y="0">、</tspan><tspan class="cls-28" x="335.21" y="0">夏は</tspan><tspan class="cls-70" x="374.06" y="0">涼</tspan><tspan class="cls-50" x="390.94" y="0">し</tspan><tspan class="cls-36" x="406.04" y="0">く</tspan><tspan class="cls-42" x="421.47" y="0">、</tspan><tspan class="cls-28" x="432.72" y="0">冬は</tspan><tspan class="cls-32" x="471.56" y="0">暖</tspan><tspan class="cls-72" x="491.24" y="0">か</tspan><tspan class="cls-30" x="510.57" y="0">い</tspan><tspan class="cls-42" x="529.99" y="0">。</tspan><tspan class="cls-85" x="541.24" y="0">西日</tspan><tspan class="cls-68" x="577.42" y="0">対</tspan><tspan class="cls-52" x="597.67" y="0">策や</tspan><tspan class="cls-68" x="636.84" y="0">紫外</tspan><tspan class="cls-27" x="677.34" y="0">線</tspan><tspan class="cls-63" x="696.42" y="0">に</tspan><tspan class="cls-45" x="712.75" y="0">よ</tspan><tspan class="cls-76" x="728.25" y="0">る</tspan><tspan class="cls-27" x="746.35" y="0">色</tspan><tspan class="cls-88" x="765.43" y="0">あ</tspan><tspan class="cls-62" x="784.35" y="0">せ</tspan><tspan class="cls-68" x="804.44" y="0">防</tspan><tspan class="cls-27" x="824.69" y="0">止</tspan><tspan class="cls-54" x="843.77" y="0">に</tspan><tspan class="cls-40" x="859.68" y="0">も</tspan><tspan class="cls-68" x="876.77" y="0">効果</tspan><tspan class="cls-84" x="917.27" y="0">的</tspan><tspan class="cls-60" x="936.9" y="0">で</tspan><tspan class="cls-19" x="955.61" y="0">す</tspan><tspan class="cls-42" x="975.35" y="0">。</tspan></text>
    </g>
  </g>
</svg>